<?xml version="1.0" encoding="UTF-8"?>
<svg version="1.1" xmlns="http://www.w3.org/2000/svg" width="117" height="28">
<path d="M0 0 C11.55 0 23.1 0 35 0 C37.07612347 5.19030869 36.97208061 6.75076469 36 12 C35.7763932 14.9254644 35.7763932 14.9254644 37 17 C37.35555556 24.46666667 37.35555556 24.46666667 35 28 C32.30459685 28.26686213 29.84152536 28.34818073 27.1484375 28.29296875 C26.37440582 28.28872391 25.60037415 28.28447906 24.80288696 28.28010559 C22.32657323 28.26328998 19.85106842 28.22563395 17.375 28.1875 C15.69792841 28.17245682 14.02084408 28.15876778 12.34375 28.14648438 C8.22860306 28.11592635 4.11520866 28.05721454 0 28 C0 18.76 0 9.52 0 0 Z M11 7 C11 7.99 11 8.98 11 10 C15.95 10 20.9 10 26 10 C26 9.01 26 8.02 26 7 C21.05 7 16.1 7 11 7 Z M11 17 C11 18.32 11 19.64 11 21 C15.95 21 20.9 21 26 21 C26 19.68 26 18.36 26 17 C21.05 17 16.1 17 11 17 Z " fill="#FFFFFF" transform="translate(1,0)"/>
<path d="M0 0 C0.70523804 0.00091141 1.41047607 0.00182281 2.13708496 0.00276184 C2.8619812 -0.00152328 3.58687744 -0.00580841 4.33374023 -0.01022339 C5.86697342 -0.01596858 7.40023386 -0.01646555 8.93347168 -0.01213074 C11.2843654 -0.00896897 13.63400304 -0.03243152 15.98474121 -0.05778503 C17.47302087 -0.06005778 18.96130392 -0.06076164 20.44958496 -0.05973816 C21.50744202 -0.07355278 21.50744202 -0.07355278 22.58666992 -0.08764648 C24.56872559 -0.06877136 24.56872559 -0.06877136 27.79333496 0.30354309 C29.96570859 3.56210353 30.04936147 4.52996653 30.05895996 8.30354309 C30.06282715 9.75760559 30.06282715 9.75760559 30.06677246 11.24104309 C30.05903809 12.25166809 30.05130371 13.26229309 30.04333496 14.30354309 C30.05493652 15.81948059 30.05493652 15.81948059 30.06677246 17.36604309 C30.06419434 18.33541809 30.06161621 19.30479309 30.05895996 20.30354309 C30.0567041 21.19041809 30.05444824 22.07729309 30.05212402 22.99104309 C29.79333496 25.30354309 29.79333496 25.30354309 27.79333496 28.30354309 C25.26286673 28.59571178 22.98040616 28.69987449 20.44958496 28.66682434 C19.72468872 28.66732285 18.99979248 28.66782135 18.25292969 28.66833496 C16.719658 28.66599351 15.18638255 28.65626065 13.65319824 28.63972473 C11.30242651 28.61613433 8.95278867 28.61916231 6.60192871 28.62580872 C5.11364068 28.62023194 3.62535744 28.61312206 2.13708496 28.60432434 C1.43184692 28.60523575 0.72660889 28.60614716 0 28.60708618 C-4.97563283 28.5345753 -4.97563283 28.5345753 -7.20666504 26.30354309 C-7.4654541 23.90510559 -7.4654541 23.90510559 -7.47229004 20.92854309 C-7.47486816 19.86119934 -7.47744629 18.79385559 -7.48010254 17.69416809 C-7.46850098 16.01580872 -7.46850098 16.01580872 -7.45666504 14.30354309 C-7.46439941 13.18463684 -7.47213379 12.06573059 -7.48010254 10.91291809 C-7.47752441 9.84557434 -7.47494629 8.77823059 -7.47229004 7.67854309 C-7.47003418 6.69627747 -7.46777832 5.71401184 -7.4654541 4.70198059 C-6.94751576 -0.09823291 -4.20148774 0.06122911 0 0 Z M2.79333496 9.30354309 C2.79333496 12.60354309 2.79333496 15.90354309 2.79333496 19.30354309 C8.07333496 19.30354309 13.35333496 19.30354309 18.79333496 19.30354309 C18.79333496 16.00354309 18.79333496 12.70354309 18.79333496 9.30354309 C13.51333496 9.30354309 8.23333496 9.30354309 2.79333496 9.30354309 Z " fill="#FFFFFF" transform="translate(46.2066650390625,-0.3035430908203125)"/>
<path d="M0 0 C1.02150398 0.01061211 1.02150398 0.01061211 2.06364441 0.0214386 C4.2245687 0.04928056 6.38283697 0.11198598 8.54296875 0.17578125 C10.01363427 0.20087793 11.48434068 0.22368872 12.95507812 0.24414062 C16.54772832 0.29906937 20.13883903 0.38526478 23.73046875 0.48828125 C21.51482288 3.99096511 19.47819041 6.99320146 15.36035156 8.15966797 C12.67291776 8.39923755 10.05315076 8.45849209 7.35546875 8.42578125 C6.42863281 8.44189453 5.50179687 8.45800781 4.546875 8.47460938 C2.27322151 8.50976897 0.00412063 8.51347319 -2.26953125 8.48828125 C-2.26953125 9.47828125 -2.26953125 10.46828125 -2.26953125 11.48828125 C-1.93953125 11.15828125 -1.60953125 10.82828125 -1.26953125 10.48828125 C2.53635019 10.23619403 6.35472331 10.30305781 10.16796875 10.30078125 C11.78155273 10.28241211 11.78155273 10.28241211 13.42773438 10.26367188 C14.45447266 10.26173828 15.48121094 10.25980469 16.5390625 10.2578125 C17.95916626 10.25164917 17.95916626 10.25164917 19.40795898 10.24536133 C21.73046875 10.48828125 21.73046875 10.48828125 23.73046875 12.48828125 C23.99609375 15.67578125 23.99609375 15.67578125 23.98046875 19.48828125 C23.98820312 21.37546875 23.98820312 21.37546875 23.99609375 23.30078125 C23.73046875 26.48828125 23.73046875 26.48828125 21.73046875 28.48828125 C18.59765625 28.74707031 18.59765625 28.74707031 14.60546875 28.75390625 C13.90276855 28.7558197 13.20006836 28.75773315 12.47607422 28.75970459 C10.98990521 28.761066 9.5037243 28.75737257 8.01757812 28.74902344 C5.73931229 28.73832279 3.46183498 28.74891964 1.18359375 28.76171875 C-0.25911633 28.76039715 -1.70182591 28.75783474 -3.14453125 28.75390625 C-4.46195312 28.75165039 -5.779375 28.74939453 -7.13671875 28.74707031 C-10.26953125 28.48828125 -10.26953125 28.48828125 -12.26953125 26.48828125 C-12.7736913 23.07324968 -12.68624608 19.62380921 -12.70703125 16.17578125 C-12.73990234 15.22509766 -12.77277344 14.27441406 -12.80664062 13.29492188 C-12.81373047 12.37259766 -12.82082031 11.45027344 -12.828125 10.5 C-12.84157959 9.65912842 -12.85503418 8.81825684 -12.86889648 7.9519043 C-11.2025045 1.10238842 -6.35557868 -0.13077322 0 0 Z M-1.26953125 17.48828125 C-1.92953125 18.80828125 -2.58953125 20.12828125 -3.26953125 21.48828125 C2.67046875 21.48828125 8.61046875 21.48828125 14.73046875 21.48828125 C14.73046875 20.16828125 14.73046875 18.84828125 14.73046875 17.48828125 C9.45046875 17.48828125 4.17046875 17.48828125 -1.26953125 17.48828125 Z " fill="#F86700" transform="translate(93.26953125,-0.48828125)"/>
</svg>
