<svg width="27" height="27" viewBox="0 0 24 24" fill="none" xmlns="http://www.w3.org/2000/svg">
  <path fill-rule="evenodd" clip-rule="evenodd" d="M3.64645 3.64645C3.84171 3.45118 4.15829 3.45118 4.35355 3.64645L12 11.2929L19.6464 3.64645C19.8417 3.45118 20.1583 3.45118 20.3536 3.64645C20.5488 3.84171 20.5488 4.15829 20.3536 4.35355L12.7071 12L20.3536 19.6464C20.5488 19.8417 20.5488 20.1583 20.3536 20.3536C20.1583 20.5488 19.8417 20.5488 19.6464 20.3536L12 12.7071L4.35355 20.3536C4.15829 20.5488 3.84171 20.5488 3.64645 20.3536C3.45118 20.1583 3.45118 19.8417 3.64645 19.6464L11.2929 12L3.64645 4.35355C3.45118 4.15829 3.45118 3.84171 3.64645 3.64645Z" fill="currentColor"></path>
</svg>