<?xml version="1.0" encoding="UTF-8"?>
<svg version="1.1" xmlns="http://www.w3.org/2000/svg" width="245" height="55">
<path d="M0 0 C5.94 0 11.88 0 18 0 C18.26554687 1.68867187 18.53109375 3.37734375 18.8046875 5.1171875 C19.16135248 7.36980843 19.51812926 9.62241166 19.875 11.875 C20.04902344 12.98359375 20.22304687 14.0921875 20.40234375 15.234375 C21.45419459 21.85713958 22.62064027 28.43736658 24 35 C24.21934204 33.46291382 24.21934204 33.46291382 24.44311523 31.89477539 C24.98497382 28.10542667 25.53229455 24.31688394 26.08129883 20.52856445 C26.31847647 18.88652789 26.55415742 17.24427444 26.78833008 15.60180664 C27.12451426 13.24567439 27.46601295 10.89036581 27.80859375 8.53515625 C27.91280136 7.79660904 28.01700897 7.05806183 28.12437439 6.2971344 C28.88612829 1.11387171 28.88612829 1.11387171 30 0 C31.34267413 -0.08631874 32.68974322 -0.10706473 34.03515625 -0.09765625 C34.84404297 -0.09443359 35.65292969 -0.09121094 36.48632812 -0.08789062 C37.33646484 -0.07951172 38.18660156 -0.07113281 39.0625 -0.0625 C39.91650391 -0.05798828 40.77050781 -0.05347656 41.65039062 -0.04882812 C43.76695663 -0.03700373 45.88348685 -0.01906769 48 0 C50.01075552 7.24596585 51.06479362 14.56284857 52.125 22 C52.30675781 23.25167969 52.48851562 24.50335937 52.67578125 25.79296875 C53.12083134 28.86147203 53.56213236 31.930465 54 35 C56.08004092 23.34587005 58.06870102 11.67976052 60 0 C65.61 0 71.22 0 77 0 C76.34253158 11.07260315 74.05972381 21.82328003 71.9375 32.6875 C71.5561474 34.66071203 71.17528379 36.63401863 70.79492188 38.60742188 C69.8689199 43.4060577 68.93629403 48.20336218 68 53 C64.18751574 53.02887236 60.3750593 53.04675492 56.5625 53.0625 C55.47388672 53.07087891 54.38527344 53.07925781 53.26367188 53.08789062 C52.22919922 53.09111328 51.19472656 53.09433594 50.12890625 53.09765625 C49.17056885 53.10289307 48.21223145 53.10812988 47.22485352 53.11352539 C45 53 45 53 44 52 C43.62936762 50.0041569 43.31610936 47.99760265 43.02734375 45.98828125 C42.85009766 44.75529297 42.67285156 43.52230469 42.49023438 42.25195312 C42.21663086 40.30192383 42.21663086 40.30192383 41.9375 38.3125 C41.75123047 37.03181641 41.56496094 35.75113281 41.37304688 34.43164062 C41.19708984 33.19220703 41.02113281 31.95277344 40.83984375 30.67578125 C40.67863037 29.54052002 40.51741699 28.40525879 40.35131836 27.2355957 C40.01374586 24.12659759 39.93650579 21.12421054 40 18 C39.34 18 38.68 18 38 18 C37.96261719 18.55042969 37.92523438 19.10085937 37.88671875 19.66796875 C37.34785912 26.48295823 36.45868581 33.23379064 35.5 40 C35.36940186 40.93223389 35.23880371 41.86446777 35.10424805 42.82495117 C34.91342651 44.14910034 34.91342651 44.14910034 34.71875 45.5 C34.60466797 46.2940625 34.49058594 47.088125 34.37304688 47.90625 C34 50 34 50 33 53 C25.41 53 17.82 53 10 53 C8.73490134 46.57738804 7.47091025 40.15457831 6.2097168 33.73120117 C5.78067658 31.54780565 5.35099644 29.36453577 4.9206543 27.18139648 C4.30087176 24.03662705 3.68342035 20.89140738 3.06640625 17.74609375 C2.87470352 16.7760289 2.68300079 15.80596405 2.48548889 14.8065033 C2.30537766 13.88607742 2.12526642 12.96565155 1.93969727 12.01733398 C1.78203384 11.21569321 1.62437042 10.41405243 1.46192932 9.58811951 C0.89388211 6.40543765 0.45721202 3.20048412 0 0 Z " fill="#FFFFFF" transform="translate(114,2)"/>
<path d="M0 0 C8.58 0 17.16 0 26 0 C27.56928013 4.80464664 29.13677857 9.60979812 30.69970703 14.41650391 C31.23218186 16.05226399 31.76570655 17.6876827 32.30029297 19.32275391 C33.06752921 21.67001284 33.83100889 24.01846463 34.59375 26.3671875 C34.83436157 27.10057343 35.07497314 27.83395935 35.32287598 28.58956909 C37 33.77225659 37 33.77225659 37 36 C37.66 36 38.32 36 39 36 C39 24.12 39 12.24 39 0 C44.28 0 49.56 0 55 0 C55 17.49 55 34.98 55 53 C46.09 53 37.18 53 28 53 C24.37 41.78 20.74 30.56 17 19 C16.67 30.22 16.34 41.44 16 53 C10.72 53 5.44 53 0 53 C0 35.51 0 18.02 0 0 Z " fill="#FFFFFF" transform="translate(2,2)"/>
<path d="M0 0 C0.78012451 -0.00428513 1.56024902 -0.00857025 2.36401367 -0.01298523 C4.00796542 -0.01870995 5.65194248 -0.01924252 7.29589844 -0.01489258 C9.80447692 -0.01172887 12.31187929 -0.03522655 14.8203125 -0.06054688 C16.42187352 -0.06281977 18.02343769 -0.06352341 19.625 -0.0625 C20.37096436 -0.07170975 21.11692871 -0.08091949 21.88549805 -0.09040833 C26.80083723 -0.04693308 30.2725996 0.76088085 33.8125 4.30078125 C33.88563567 6.83127527 33.90497527 9.33382962 33.875 11.86328125 C33.87048828 12.57419922 33.86597656 13.28511719 33.86132812 14.01757812 C33.84950864 15.77868138 33.83157263 17.53974161 33.8125 19.30078125 C29.1925 19.30078125 24.5725 19.30078125 19.8125 19.30078125 C19.8125 17.32078125 19.8125 15.34078125 19.8125 13.30078125 C13.2125 13.30078125 6.6125 13.30078125 -0.1875 13.30078125 C0.1425 14.95078125 0.4725 16.60078125 0.8125 18.30078125 C1.70557861 18.53265137 2.59865723 18.76452148 3.51879883 19.00341797 C6.83544199 19.86739023 10.15067533 20.73641357 13.46508789 21.60888672 C14.89912655 21.98526716 16.33369539 22.35963367 17.76879883 22.73193359 C19.83297546 23.26780499 21.89512929 23.81091962 23.95703125 24.35546875 C25.19815674 24.68015137 26.43928223 25.00483398 27.71801758 25.33935547 C30.8125 26.30078125 30.8125 26.30078125 33.8125 28.30078125 C34.16894531 30.80688477 34.16894531 30.80688477 34.140625 33.9296875 C34.13546875 35.04666016 34.1303125 36.16363281 34.125 37.31445312 C34.104375 38.48556641 34.08375 39.65667969 34.0625 40.86328125 C34.05734375 42.03826172 34.0521875 43.21324219 34.046875 44.42382812 C33.96624453 53.14703672 33.96624453 53.14703672 32.8125 54.30078125 C31.38628155 54.41446055 29.95456084 54.46030809 28.52392578 54.4777832 C27.15713181 54.49703606 27.15713181 54.49703606 25.76272583 54.51667786 C24.77110443 54.52406479 23.77948303 54.53145172 22.7578125 54.5390625 C21.7453244 54.54713425 20.7328363 54.55520599 19.68966675 54.56352234 C17.5426404 54.57738059 15.39559187 54.58809492 13.24853516 54.59594727 C9.9582364 54.61317269 6.66893879 54.65704511 3.37890625 54.70117188 C1.29688242 54.71129707 -0.78514999 54.71981371 -2.8671875 54.7265625 C-4.34854691 54.75282463 -4.34854691 54.75282463 -5.85983276 54.77961731 C-6.77733307 54.77669174 -7.69483337 54.77376617 -8.64013672 54.77075195 C-9.44764374 54.77661819 -10.25515076 54.78248444 -11.08712769 54.78852844 C-13.1875 54.30078125 -13.1875 54.30078125 -14.95339966 52.47355652 C-17.4986568 47.99233924 -16.33670324 42.27422242 -16.1875 37.30078125 C-11.2375 37.30078125 -6.2875 37.30078125 -1.1875 37.30078125 C-1.1875 39.28078125 -1.1875 41.26078125 -1.1875 43.30078125 C5.7425 43.30078125 12.6725 43.30078125 19.8125 43.30078125 C19.4825 41.65078125 19.1525 40.00078125 18.8125 38.30078125 C17.9246582 38.07938477 17.03681641 37.85798828 16.12207031 37.62988281 C12.81664325 36.7985519 9.51490823 35.95480342 6.21484375 35.10253906 C4.78838167 34.73686253 3.36064457 34.37612154 1.93164062 34.02050781 C-0.12728654 33.50720982 -2.18091118 32.97608741 -4.234375 32.44140625 C-5.47026367 32.12719727 -6.70615234 31.81298828 -7.97949219 31.48925781 C-12.00612694 29.99750302 -14.26595751 28.14386623 -16.1875 24.30078125 C-16.33879552 21.5163617 -16.41888429 18.77365638 -16.4375 15.98828125 C-16.458125 15.22837891 -16.47875 14.46847656 -16.5 13.68554688 C-16.53184123 9.10438928 -16.31059405 5.91949674 -13.1875 2.30078125 C-8.9027181 0.03389059 -4.73933822 -0.00579045 0 0 Z " fill="#FFFFFF" transform="translate(211.1875,0.69921875)"/>
<path d="M0 0 C15.18 0 30.36 0 46 0 C46 3.96 46 7.92 46 12 C36.43 12 26.86 12 17 12 C17 14.97 17 17.94 17 21 C26.24 21 35.48 21 45 21 C45 24.96 45 28.92 45 33 C35.76 33 26.52 33 17 33 C17 35.97 17 38.94 17 42 C26.57 42 36.14 42 46 42 C46 45.63 46 49.26 46 53 C30.82 53 15.64 53 0 53 C0 35.51 0 18.02 0 0 Z " fill="#FFFFFF" transform="translate(64,2)"/>
</svg>
