<svg xmlns="http://www.w3.org/2000/svg" width="470" height="168.391" viewBox="247.202 0 470 168.391" xmlns:v="https://vecta.io/nano"><path d="M247.202 0h470v168.391h-470z"/><path fill="#fff" d="M396.339 47.657H375.19v75.905h35.95v-14.479h-14.801V47.657zm39.571 0h-21.149v75.905h35.95v-14.479H435.91V47.657zm-127.514.869c-.557-.593-1.358-.869-2.18-.869h-28.517c-.821 0-1.623.273-2.18.869a138.92 138.92 0 0 0-7.811 9.137c-.411.53-.612 1.247-.612 1.912v52.063c0 .671.199 1.387.612 1.911 2.655 3.429 5.837 7.039 7.805 9.139.56.594 1.358.872 2.18.872h28.518c.821 0 1.623-.272 2.18-.872 1.967-2.096 5.15-5.709 7.807-9.139.409-.527.61-1.243.61-1.911V90.386h-19.313v20.39H286.41V60.445h11.086v19.537h19.313v-20.4c0-.671-.2-1.387-.61-1.911-2.657-3.427-5.839-7.039-7.807-9.137h.001v-.008h.003 0zm54.101 0c-.558-.593-1.358-.869-2.18-.869h-28.519c-.82 0-1.621.273-2.178.869-1.967 2.098-5.152 5.714-7.806 9.137-.409.53-.613 1.247-.613 1.912v63.984h19.313v-22.613H351.6v22.613h19.313V59.576c0-.67-.2-1.386-.612-1.911a140.88 140.88 0 0 0-7.807-9.136h.003v-.003h0zm-21.98 39.659v-27.74h11.085v27.74h-11.085zm242.15 22.591h-11.088V47.657h-19.313v63.986c0 .669.2 1.387.612 1.912 2.657 3.423 5.841 7.036 7.809 9.138.556.594 1.357.869 2.179.869h28.516c.825 0 1.625-.275 2.184-.869 1.968-2.098 5.15-5.715 7.805-9.138.412-.531.612-1.25.612-1.912V47.657h-19.314v63.119h-.002zm-43.263-62.25c-.557-.593-1.355-.869-2.181-.869h-39.105v75.905h39.105c.825 0 1.625-.275 2.181-.869 1.967-2.098 5.153-5.715 7.808-9.138.409-.531.612-1.25.612-1.912v-52.06c0-.671-.199-1.387-.612-1.911-2.654-3.427-5.84-7.038-7.808-9.137v-.009zM528.51 92.023v18.753h-11.075V60.445h11.075v31.578zm151.692-44.366h18.056v33.021a2.82 2.82 0 0 1-.644 1.793l-12.668 15.308v25.783h-20.801V97.779l-12.624-15.308a2.79 2.79 0 0 1-.649-1.793V47.657h18.021v27.679l4.694 6.192h1.948l4.666-6.192V47.657zM464.595 63.132c-.248-.267-.605-.389-.971-.389h-14.438c-.366 0-.727.122-.973.389-.879.936-1.596 1.849-2.786 3.379-.181.236-.274.556-.274.853v23.951c0 .3.092.615.274.853l2.786 3.379c.249.266.607.388.973.388h14.438c.366 0 .726-.122.971-.388.881-.937 1.598-1.849 2.786-3.379.183-.238.275-.557.275-.853v-23.95c0-.3-.092-.617-.275-.853l-2.786-3.38zm-5.567 19.588v6.055h-5.253V69.897h5.253V82.72zm12.304 13.214h8.628V84.98h9.238v-7.708h-9.238v-6.82h10.429v-7.708h-19.057v33.19zm176.523-48.277h-11.194-19.313-11.231v15.717h11.212v60.188h19.314V63.375h11.213V47.657h-.001zm47.459 66.397h4.569c.371 0 .653.098.853.288.206.193.306.468.306.824v1.175c0 .296-.087.537-.262.715s-.425.266-.75.266h-.243l1.38 2.77h-1.355l-1.109-2.42h-2.276v2.42h-1.112l-.001-6.038h0 0zm4.451 2.73c.053 0 .159-.103.159-.162v-1.511c0-.057-.106-.162-.159-.162h-3.343v1.833h3.343v.002zm-1.683-6.008c-3.529 0-6.391 2.86-6.391 6.393s2.861 6.394 6.391 6.394 6.396-2.862 6.396-6.394-2.865-6.394-6.396-6.393zm0 11.799c-2.986 0-5.409-2.417-5.409-5.406a5.41 5.41 0 0 1 5.409-5.409 5.41 5.41 0 0 1 5.409 5.409 5.41 5.41 0 0 1-5.409 5.406z"/></svg>