<svg xmlns="http://www.w3.org/2000/svg" width="26.753" height="25.554" viewBox="0 0 26.753 25.554">
    <path id="heart-icon-empty_1_" d="M577.486,25.564,565.074,14.3a2.949,2.949,0,0,1-.964-2.176V6.1a2.94,2.94,0,0,1,1.253-2.406L569.852.545A2.947,2.947,0,0,1,573.3.588l4.3,3.181,4.434-3.19a2.939,2.939,0,0,1,3.486.029l4.159,3.1a2.951,2.951,0,0,1,1.183,2.356v6.063A2.945,2.945,0,0,1,589.9,14.3ZM566.645,5.512a.715.715,0,0,0-.3.585v6.029a.72.72,0,0,0,.235.53l10.913,9.9,10.913-9.9a.717.717,0,0,0,.235-.529V6.064a.72.72,0,0,0-.287-.573l-4.158-3.1a.711.711,0,0,0-.847-.007l-5.757,4.141-5.613-4.15a.715.715,0,0,0-.838-.01Z" transform="translate(-564.11 -0.01)"/>
</svg>
