<svg width="17" height="17" viewBox="0 0 17 17" fill="none" xmlns="http://www.w3.org/2000/svg">
<g id="Icon">
<path id="Vector" d="M8.6564 2.33325C5.49891 2.33325 2.91238 4.79007 2.66675 7.91201L5.8882 9.2561C6.16948 9.06141 6.50354 8.95729 6.84567 8.95768C6.87763 8.95768 6.90924 8.95855 6.94037 8.9603L8.37313 6.8645V6.83517C8.37313 5.57408 9.38986 4.54784 10.6397 4.54784C11.8895 4.54784 12.9062 5.57408 12.9062 6.83517C12.9062 8.09626 11.8895 9.12284 10.6397 9.12284C10.6223 9.12284 10.6054 9.12241 10.5882 9.12202L8.54481 10.5928C8.54612 10.6201 8.54694 10.6473 8.54694 10.6742C8.54694 11.6212 7.78367 12.3914 6.84567 12.3914C6.02228 12.3914 5.33336 11.7981 5.17767 11.0128L2.87348 10.0514C3.58707 12.5974 5.90505 14.4638 8.6564 14.4638C11.976 14.4638 14.6667 11.748 14.6667 8.39852C14.6667 5.04906 11.976 2.33325 8.6564 2.33325ZM6.43327 11.5363L5.69506 11.2284C5.8257 11.5034 6.05229 11.7335 6.35285 11.8598C7.00239 12.1331 7.75143 11.8222 8.02217 11.1661C8.15324 10.8507 8.15402 10.4962 8.0243 10.1801C7.89454 9.86183 7.64935 9.61358 7.33495 9.48124C7.0223 9.35022 6.68755 9.35498 6.39345 9.46701L7.15633 9.7853C7.63551 9.98688 7.8621 10.5421 7.66231 11.0256C7.46296 11.5091 6.9124 11.7379 6.43327 11.5363ZM12.15 6.83522C12.15 5.99498 11.4723 5.31086 10.6398 5.31086C9.80731 5.31086 9.12922 5.99502 9.12922 6.83522C9.12922 7.67541 9.80687 8.35923 10.6398 8.35923C11.4728 8.35923 12.15 7.67551 12.15 6.83522ZM9.50767 6.83264C9.50767 6.2004 10.0158 5.68796 10.6421 5.68796C11.2683 5.68796 11.7768 6.2004 11.7768 6.83264C11.7768 7.46489 11.2687 7.97738 10.642 7.97738C10.0154 7.97738 9.50762 7.46489 9.50762 6.83269L9.50767 6.83264Z" fill="#C2C7CB"/>
</g>
</svg>
