<svg width="17" height="17" viewBox="0 0 17 17" fill="none" xmlns="http://www.w3.org/2000/svg">
<path d="M8.33341 7.63325L10.2934 5.53325L2.68674 1.42659C2.64007 1.37992 2.54674 1.37992 2.40674 1.33325L8.33341 7.63325Z" fill="#C2C7CB"/>
<path d="M11.1334 10.6666L13.8867 9.17327C14.2134 8.98661 14.4001 8.70661 14.4001 8.33327C14.4001 7.95994 14.2134 7.63327 13.8867 7.49327L11.1334 5.99994L8.94006 8.33327L11.1334 10.6666Z" fill="#C2C7CB"/>
<path d="M1.52004 1.75323C1.38004 1.89323 1.33337 2.0799 1.33337 2.26657V14.3999C1.33337 14.5866 1.38004 14.7732 1.52004 14.9599L7.68004 8.33324L1.52004 1.75323Z" fill="#C2C7CB"/>
<path d="M8.33341 9.03326L2.40674 15.3333C2.50007 15.3333 2.5934 15.2866 2.68674 15.2399L10.2934 11.1333L8.33341 9.03326Z" fill="#C2C7CB"/>
</svg>
