<svg width="17" height="17" viewBox="0 0 17 17" fill="none" xmlns="http://www.w3.org/2000/svg">
<g id="Icon">
<path id="Vector" d="M0.990571 11.368C0.390951 11.7678 0.590796 12.5273 1.87003 12.8871C3.18929 13.3269 4.62842 13.4468 6.02759 13.2069C6.10757 13.2069 6.18748 13.167 6.22743 13.167V11.8077L4.86821 12.2475C4.3485 12.4074 3.82878 12.4473 3.30915 12.3275C2.90937 12.2075 2.98936 11.9676 3.46904 11.7678L6.22743 10.8084V9.32919L2.38966 10.6485C1.90998 10.8083 1.43021 11.0482 0.990487 11.368H0.990571ZM10.2651 5.37148V9.2492C11.9042 10.0488 13.1834 9.2492 13.1834 7.17042C13.1834 5.09164 12.4238 4.09225 10.2252 3.33265C9.06581 2.93287 7.86657 2.57313 6.66724 2.33325V13.8865L9.46558 14.726V5.01165C9.46558 4.57193 9.46558 4.25205 9.78537 4.372C10.2251 4.49194 10.265 4.93166 10.265 5.37139L10.2651 5.37148ZM15.4621 10.4485C14.3028 10.0488 13.0636 9.88886 11.8642 10.0088C11.2246 10.0488 10.625 10.2086 10.0653 10.4086L9.94535 10.4485V12.0076L12.5438 11.0481C13.0636 10.8883 13.5833 10.8483 14.1029 10.9682C14.5027 11.0881 14.4227 11.328 13.943 11.5278L9.94535 13.007V14.5261L15.4621 12.4873C15.8619 12.3274 16.2217 12.1274 16.5415 11.8077C16.8213 11.4079 16.7014 10.8482 15.4621 10.4484V10.4485Z" fill="#C2C7CB"/>
</g>
</svg>
