<svg width="17" height="17" viewBox="0 0 17 17" fill="none" xmlns="http://www.w3.org/2000/svg">
<path fill-rule="evenodd" clip-rule="evenodd" d="M10.4331 3.56828C10.9434 2.97678 11.2874 2.15295 11.1933 1.33325C10.4578 1.36125 9.56808 1.80306 9.04074 2.39386C8.56719 2.91816 8.15381 3.7559 8.26494 4.5595C9.08534 4.6204 9.92271 4.16047 10.4331 3.56828ZM12.2728 8.77082C12.2933 10.8897 14.2122 11.5946 14.2335 11.6037C14.2179 11.6534 13.927 12.608 13.2227 13.595C12.6132 14.4476 11.9811 15.2967 10.9852 15.3149C10.0069 15.3324 9.69196 14.7592 8.57285 14.7592C7.45446 14.7592 7.10479 15.2967 6.17893 15.3324C5.21768 15.3667 4.48506 14.4099 3.87136 13.5601C2.61564 11.822 1.65651 8.64838 2.94479 6.5064C3.58468 5.4431 4.72785 4.76874 5.9694 4.75194C6.91296 4.73444 7.80414 5.36034 8.38103 5.36034C8.95792 5.36034 10.0409 4.60784 11.1791 4.71844C11.6555 4.73734 12.9933 4.90248 13.852 6.10717C13.7826 6.14847 12.2558 6.99983 12.2728 8.77082Z" fill="#C2C7CB"/>
</svg>
