<svg width="17" height="17" viewBox="0 0 17 17" fill="none" xmlns="http://www.w3.org/2000/svg">
<g id="Icon">
<path id="Vector" d="M5.3398 3.35262C5.3706 3.32322 5.40281 3.29521 5.43781 3.27001C6.37877 2.65951 7.46395 2.33325 8.66815 2.33325C9.79393 2.33325 10.8497 2.6455 11.7487 3.18599C11.8145 3.2238 11.9937 3.34702 12.0847 3.45764C11.2152 2.49988 8.66115 4.55682 8.66115 4.55682C7.779 3.87491 6.96547 3.41143 6.36197 3.2448C5.85508 3.10618 5.50643 3.2224 5.3398 3.35262ZM13.0677 4.25717C13.0425 4.22776 13.0131 4.20116 12.9865 4.17036C12.768 3.92952 12.4978 3.87211 12.2541 3.88611C12.0315 3.95752 11.0079 4.32578 9.74633 5.51738C9.74633 5.51738 11.1662 6.89801 12.0371 8.31084C12.9066 9.72227 13.4261 10.8327 13.1069 12.3715C14.1122 11.2667 14.6695 9.82729 14.6667 8.33324C14.6667 6.76078 14.0618 5.32695 13.0677 4.25717ZM10.9001 8.91294C10.347 8.29404 9.77433 7.69194 9.18483 7.10804C9.01961 6.94421 8.84458 6.77198 8.65975 6.59416C8.65975 6.59416 8.3825 6.8714 8.02404 7.23546V7.23406C7.56337 7.70034 6.96547 8.30664 6.63361 8.6623C6.04271 9.2924 4.34984 11.2709 4.25602 12.3813C4.25602 12.3813 3.87936 11.502 4.70549 9.47163C5.24458 8.14281 6.87585 6.15168 7.55636 5.50198C7.55636 5.50198 6.93326 4.81866 6.15333 4.34538L6.14773 4.34398C6.14773 4.34398 6.13793 4.33698 6.12673 4.32998C5.75147 4.10594 5.3398 3.93232 4.94633 3.90851C4.54447 3.93792 4.28823 4.23337 4.28823 4.23337C3.24505 5.34095 2.66396 6.80979 2.66676 8.33464C2.66676 11.649 5.3524 14.3346 8.66815 14.3346C10.4268 14.3346 12.0077 13.5771 13.1069 12.3701C13.1069 12.3701 12.9809 11.5776 12.1743 10.442C11.9825 10.1773 11.2908 9.34841 10.9001 8.91294Z" fill="#C2C7CB"/>
</g>
</svg>
