<svg width="17" height="17" viewBox="0 0 17 17" fill="none" xmlns="http://www.w3.org/2000/svg">
<g id="Icon">
<path id="Vector" d="M12.1411 6.28712C10.6234 5.58511 8.43825 5.1377 6.38411 5.30331C6.48793 4.62354 6.74254 4.14894 7.15781 4.05007C7.73129 3.91164 8.35668 4.28984 8.95487 4.97702C9.34543 5.02646 9.81014 5.11792 10.1315 5.19208C9.04386 3.14536 7.58298 1.99593 6.4731 2.4211C5.62772 2.74244 5.19514 3.9067 5.24705 5.46893C4.14706 5.70376 3.28932 6.11903 2.74056 6.71723C2.71337 6.74936 2.6491 6.83094 2.67135 6.87049C2.68865 6.90015 2.7455 6.86801 2.76775 6.85071C3.4055 6.40577 4.21874 6.16353 5.28165 6.01274C5.43244 7.67879 6.13692 9.79472 7.3086 11.4904C6.66838 11.7426 6.13198 11.7574 5.83536 11.4459C5.42997 11.0183 5.44233 10.2866 5.73895 9.42641C5.58817 9.06305 5.43244 8.61563 5.33604 8.29923C4.10751 10.2644 3.84302 12.1035 4.76503 12.8524C5.46705 13.4234 6.68816 13.2158 8.01556 12.3902C8.76948 13.2257 9.55801 13.7596 10.349 13.9376C10.391 13.945 10.4924 13.9598 10.5146 13.9203C10.5319 13.8906 10.4751 13.8585 10.4479 13.8461C9.7434 13.5174 9.1279 12.9315 8.46544 12.0886C9.83239 11.1246 11.3106 9.45607 12.1955 7.59475C12.7344 8.02485 13.0162 8.48215 12.8951 8.89249C12.727 9.45855 12.0867 9.81203 11.1944 9.98506C10.9546 10.299 10.6456 10.6549 10.4207 10.8972C12.7369 10.9788 14.4622 10.2866 14.6501 9.11495C14.7935 8.2226 14.0025 7.26599 12.6231 6.52937C12.9717 5.45904 13.0384 4.50984 12.7962 3.73367C12.7813 3.69412 12.7443 3.59771 12.6973 3.59771C12.6627 3.59771 12.6627 3.66198 12.6652 3.69164C12.7393 4.46534 12.5416 5.29342 12.1411 6.28712ZM7.87466 11.2235C6.89579 9.65135 6.32973 7.79744 6.3322 5.92623C8.18364 5.86443 10.0697 6.29948 11.6912 7.24127C10.8211 8.87271 9.49869 10.2891 7.87466 11.2235Z" fill="#C2C7CB"/>
</g>
</svg>
