<svg xmlns="http://www.w3.org/2000/svg" viewBox="0 0 654.13 244.64"><defs/><path fill="#657000" d="M147.99 17.84c-26.3-15.6-74.8-23.5-131.6-13.2-18.8 3.4-18 14.4-14.2 23.6s8.9 12.1 24.1 8.2c6.4-1.7 13.3-3.3 20.6-4.6-.1 3.1-.9 28.4-3 66.8-2.2 41.1 5.9 75.1 30.3 71.2s5.6-25.5-1.5-72.4c23.7-9 43.5-18.5 57.8-27.7 8.1-5.2 49.6-33 17.5-51.9Zm-77 65.4c-2-18.1-2.6-36.4-1.9-54.7 8.5-.9 17.4-1.5 26.7-1.6 74.6-.9 50.8 29.5-24.8 56.3Zm262.5-14.3c-10.7-2-32.2 33.3-40.9 63.9s-22.8 16.5-29 17.2-16.3 9.2-34.6-.4-23-34-23-34c-54.1 55.5-82.2 40.7-81.5 11.9 1.2-52.4 56.8-79.3 83.3-75 11.3 1.8 14.1 8.7-6.6 17.2-49.7 20.3-66.6 64.1-57.6 69.5s31.9-11 51.2-33.1 19.8-32.7 33.2-29.9 15 14.8 11.2 30.9c-3.8 16-4.1 32.1 8.1 34.3s17.1-14.9 23.9-44.5c5.9-26 3.8-32.6-4.9-39.9-5.1-4.3-5.4-8.4 3.8-6.5 29.2 6 29.1 34.5 29.1 34.5s17.9-27 41.8-30.2 21.7 7.7 11.3 34.6c-10.2 26.2-1 47.7 11.2 60.4 7.3 7.5-16.8 9.5-30.5-5.7-27.2-29.8 11.1-73.3.5-75.2Zm210.4-25.2c-22 5.6-36.1 22-36.1 22s-7-21-22.2-24.2c-6.5-1.4-6.2 2.7-.7 9.1 12.9 15.1 7.7 43.8-20.4 61.6-36.9 23.4-68.4 17.7-71.2 3.4-.4-2.1-.5-4.2-.4-6.3 11.9 0 20-.3 46.4-9.2 31-10.5 39.9-32.2 23.5-44.1s-57.3-4.1-80.8 27.3-13.3 66.3 18.9 70.9c8.6 1.2 18.3 0 28.3-3.3 17.7-5.8 38.3-18.3 55.7-36.9-5 21.1-8.3 39.7 9 44.8 31.2 9.4 3.5-48.1 35-87 11.2-13.5 26.1-18.5 36.8-18.2 15.6.3.3-15.5-21.8-9.9Zm-111.6 24.9c30.1-3.3 33.3 13.4 4.2 22.6-20.1 6.4-34.3 6.3-41.1 5.6 5.5-14.1 21.5-26.5 36.9-28.2Zm212.7 84.3c-18-7.2-20.8-36-20.8-36-24.5 30.6-58.6 47.2-74.6 34.2s-9.6-54 17.6-77.4c27.2-23.4 65-21.2 63.9-11.3s-38.7 7.9-60.6 42.6c-22.6 35.7-4.4 46 22.5 21.5 25.2-23 28.1-43.6 42.8-51v.1c1.2-.7 2.6-1.3 3.9-1.7 12.5-3.3 11.6 5.6 6.6 27.7-4.9 21.5.4 38.7 7 48.5 3 4.5-2.5 5.2-8.3 2.8ZM212.89 200.04c4.4 0 7.9 1.1 10.4 3.2 2.5 2.2 3.9 5.4 3.8 8.7.2 3.8-2.1 7.3-5.7 8.7v.3c2.1.8 3.9 2.2 5.3 4 1.3 1.9 2 4.1 1.9 6.4 0 4.1-1.3 7.3-3.9 9.7-2.6 2.3-6.2 3.5-10.9 3.5h-23.3v-44.5h22.4Zm-11.8 8v10.2h9.6c1.6.1 3.2-.4 4.4-1.3 2-2.1 2-5.4 0-7.5-1.3-1-2.8-1.5-4.4-1.3h-9.6v-.1Zm10.4 28.3c1.7.1 3.4-.4 4.7-1.4 2.2-2.3 2.2-5.8 0-8.1-1.4-1-3-1.5-4.7-1.4h-10.4v11l10.4-.1ZM297.09 244.54h-12.4l-8.9-15.6h-8v15.6h-10.6v-44.5h22.2c5.2 0 9.2 1.3 12.2 3.8s4.4 6.1 4.4 10.6c.1 3-.7 5.9-2.3 8.4-1.6 2.4-4 4.1-6.8 5l10.2 16.7Zm-29.3-36.2v12.4h10c2 .1 3.9-.4 5.5-1.7 1.3-1.2 2-2.8 1.9-4.6.1-1.7-.6-3.4-1.9-4.5-1.6-1.2-3.5-1.8-5.5-1.6h-10ZM357.39 208.34h-22.6v9.5h21.4v8h-21.4v10.3h22.6v8.5h-33.2v-44.6h33.2v8.3ZM427.79 244.54h-11.3l-3.3-10h-17.4l-3.3 10h-11.2l16.2-44.5h14.1l16.2 44.5Zm-23.6-35.6-5.9 17.9h12.2l-6-17.9h-.3ZM470.59 200.04c7 0 12.6 1.9 16.7 5.5 4.1 3.7 6.1 9.3 6.1 16.7s-2 13-6.1 16.7c-4.1 3.7-9.6 5.5-16.7 5.5h-18v-44.4h18Zm-1.6 36.3c4.4 0 7.8-1.1 10.1-3.3s3.5-5.8 3.4-10.8c0-5-1.2-8.6-3.4-10.7s-5.7-3.3-10.1-3.3h-5.8v28l5.8.1ZM504.69 206.44c-4.9 0-8.8-4-8.8-8.8s4-8.8 8.8-8.8 8.8 4 8.8 8.8c0 4.8-4 8.8-8.8 8.8Zm0-16.3c-4.1 0-7.4 3.3-7.4 7.4s3.3 7.4 7.4 7.4 7.4-3.3 7.4-7.4-3.4-7.4-7.4-7.4Z M508.89 202.14h-1.9l-2.2-3.6h-2.2v3.6h-1.7v-9.4h4.4c.9-.1 1.7.2 2.4.8.6.5.9 1.3.9 2.1 0 .6-.2 1.3-.6 1.8s-1 .9-1.6 1l2.5 3.7Zm-6.3-8v3.1h2.6c.5 0 1-.1 1.4-.4.6-.6.6-1.7 0-2.3-.4-.3-.9-.4-1.4-.4h-2.6Z"/></svg>