<svg
  width="24"
  height="24"
  viewBox="0 0 24 24"
  fill="none"
  xmlns="http://www.w3.org/2000/svg"
>
  <path
    fill-rule="evenodd"
    clip-rule="evenodd"
    d="M18.3 14.4C20.7 11.2 20.542 6.7 17.6 3.8C14.5 0.7 9.5 0.7 6.3 3.8C3.2 7 3.2 12.1 6.3 15.2C9.2 18.1 13.8 18.3 16.9 15.8C16.9 15.9 16.9 15.9 16.9 15.9L21.1 20.1C21.6 20.5 22.2 20.5 22.6 20.1C23 19.7412 22.9971 19.1081 22.6066 18.7175L18.364 14.4749C18.3493 14.4603 18.3343 14.4462 18.319 14.4326ZM16.2426 5.28251C18.5858 7.62565 18.5858 11.4246 16.2426 13.7678C13.8995 16.1109 10.1005 16.1109 7.75736 13.7678C5.41421 11.4246 5.41421 7.62565 7.75736 5.28251C10.1005 2.93936 13.8995 2.93936 16.2426 5.28251Z"
    fill="currentColor"
  />
</svg>