<svg width="174" height="40" viewBox="0 0 174 40" fill="none" xmlns="http://www.w3.org/2000/svg">
<g id="xbox_game_pass 1" clip-path="url(#clip0_359_7182)">
<path id="Vector" d="M20.1389 16.0978C20.1611 16.0978 20.1877 16.1167 20.2033 16.13C26.0722 20.5944 36.1222 31.6378 33.0577 34.7567C29.6055 37.7778 25.0866 39.6089 20.1389 39.6089C15.1911 39.6089 10.6722 37.7778 7.21997 34.7567C4.15553 31.6378 14.2044 20.5944 20.0733 16.13C20.09 16.1167 20.1166 16.0978 20.1389 16.0978ZM30.3622 3.23C27.3566 1.44333 24.0989 0.358889 20.1389 0.358889C16.1789 0.358889 12.9211 1.44444 9.91553 3.23C9.87997 3.25 9.86553 3.29111 9.88331 3.32778C9.89997 3.36333 9.93886 3.37111 9.97886 3.36111C13.7789 2.54 19.5511 5.82222 20.0989 6.15111C20.1111 6.15778 20.1233 6.16667 20.14 6.16667C20.1566 6.16667 20.1689 6.15889 20.1811 6.15111C20.7289 5.82111 26.5011 2.54 30.3011 3.36111C30.34 3.37 30.38 3.36333 30.3966 3.32778C30.4122 3.29111 30.3978 3.25 30.3622 3.23ZM6.40108 5.98889C6.36886 6.00556 6.33997 6.03 6.31442 6.05556C2.73331 9.61111 0.513306 14.5367 0.513306 19.9833C0.513306 24.4544 2.00886 28.5733 4.52664 31.8733C4.55108 31.9044 4.59553 31.9256 4.63108 31.9044C4.66442 31.8844 4.66664 31.8411 4.65331 31.8033C3.15775 27.1789 10.8066 15.9644 14.7577 11.2633C14.7711 11.2467 14.7844 11.2289 14.7844 11.2067C14.7844 11.1789 14.77 11.1578 14.7511 11.1411C8.7633 5.18667 6.73108 5.81889 6.40108 5.98889ZM25.5278 11.1411C25.5089 11.1578 25.4944 11.1778 25.4944 11.2067C25.4944 11.2289 25.5077 11.2467 25.5211 11.2633C29.4711 15.9656 37.12 27.1789 35.6244 31.8044C35.6111 31.8422 35.6133 31.8856 35.6466 31.9056C35.6822 31.9267 35.7266 31.9056 35.7511 31.8744C38.2689 28.5744 39.7644 24.4556 39.7644 19.9844C39.7644 14.5378 37.5444 9.61222 33.9633 6.05667C33.9377 6.03111 33.9089 6.00667 33.8766 5.99C33.5466 5.81889 31.5144 5.18667 25.5278 11.1411ZM62.8889 16.88H60.0789L55.2411 10.2222L50.4033 16.88H47.5933L53.8355 8.28778L48.0833 0.37H50.8933L55.2411 6.35333L59.5889 0.37H62.3989L56.6466 8.28778L62.8889 16.88ZM77.4766 12.1856C77.4766 13.6344 76.9955 14.7922 76.0466 15.6256C75.0989 16.4578 73.72 16.88 71.95 16.88H64.2089V9.52778H60.5311L62.0611 7.42222H64.2089V0.37H71.6266C73.29 0.37 74.5822 0.768889 75.4689 1.55556C76.3566 2.34222 76.8066 3.39111 76.8066 4.67222C76.8066 6.26 76.0866 7.46444 74.6666 8.25222C75.5833 8.60667 76.2855 9.12778 76.7555 9.80333C77.2344 10.4889 77.4766 11.29 77.4766 12.1856ZM66.7311 7.42111H71.4644C72.4166 7.42111 73.1411 7.20778 73.6155 6.78555C74.09 6.36444 74.33 5.72333 74.33 4.87889C74.33 4.15 74.08 3.57333 73.5877 3.16333C73.0933 2.75333 72.3789 2.54444 71.4644 2.54444H66.7311V7.42111ZM74.9311 12.1389C74.9311 11.2722 74.67 10.6133 74.1533 10.1811C73.6366 9.74778 72.8477 9.52778 71.8111 9.52778H66.7311V14.7044H71.8111C72.8177 14.7044 73.5977 14.4811 74.1311 14.04C74.6622 13.5989 74.9311 12.96 74.9311 12.1389ZM94.4355 8.62444C94.4355 9.9 94.25 11.0722 93.8855 12.1067C93.52 13.1411 92.9644 14.0678 92.2333 14.86C91.4944 15.6522 90.6277 16.2556 89.6589 16.6522C88.69 17.0489 87.59 17.2489 86.39 17.2489C85.1744 17.2489 84.0666 17.0478 83.0977 16.6522C82.1277 16.2556 81.27 15.6533 80.5455 14.86C79.8066 14.0756 79.2455 13.1522 78.8755 12.1178C78.5066 11.0833 78.3189 9.90778 78.3189 8.62444C78.3189 7.34889 78.5055 6.17444 78.8755 5.13667C79.2444 4.09778 79.8066 3.16556 80.5455 2.36556C81.2689 1.58 82.1277 0.983333 83.0977 0.591111C84.0666 0.198889 85.1744 0 86.3889 0C87.5889 0 88.6889 0.198889 89.6577 0.591111C90.6277 0.983333 91.4933 1.58111 92.2322 2.36556C92.9633 3.16556 93.5189 4.09778 93.8844 5.13667C94.2511 6.17556 94.4355 7.34889 94.4355 8.62444ZM80.9344 8.62444C80.9344 10.5667 81.4377 12.1244 82.4311 13.2556C83.4089 14.4011 84.74 14.9811 86.39 14.9811C88.04 14.9811 89.3711 14.4011 90.3477 13.2556C91.3255 12.14 91.8211 10.5822 91.8211 8.62444C91.8211 6.66667 91.3255 5.10111 90.3477 3.97C89.3555 2.84 88.0233 2.26778 86.3889 2.26778C84.7544 2.26778 83.4233 2.84111 82.43 3.97C81.4377 5.13222 80.9344 6.69778 80.9344 8.62444ZM102.401 8.28778L108.153 0.37H105.343L100.996 6.35333L96.6488 0.37H93.8389L99.5911 8.28778L93.3489 16.88H96.1589L100.996 10.2222L105.833 16.88H108.643L102.401 8.28778ZM72.85 23.12H69.9966L63.55 39.63H66.1689L67.7644 35.3522H75.0822L76.6777 39.63H79.2966L72.85 23.12ZM68.57 33.1544L71.4244 25.5956L74.2789 33.1544H68.57ZM62.2311 30.9344V33.9678V39.63H59.8589V37.4689C59.2489 38.3011 58.4944 38.9367 57.6166 39.3567C56.7233 39.7844 55.6777 40.0011 54.5077 40.0011C53.3233 40.0011 52.2444 39.8 51.3022 39.4033C50.3589 39.0067 49.5255 38.4033 48.8255 37.6111C48.11 36.8267 47.5655 35.9033 47.2077 34.8689C46.85 33.8344 46.6689 32.6589 46.6689 31.3756C46.6689 30.0767 46.8522 28.8911 47.2133 27.8533C47.5744 26.8144 48.1255 25.8933 48.8489 25.1167C49.5644 24.3322 50.4155 23.7344 51.3777 23.3422C52.34 22.95 53.4389 22.7511 54.6466 22.7511C56.6622 22.7511 58.3555 23.2822 59.6789 24.3289C60.9877 25.3911 61.7844 26.82 62.0455 28.5756L62.05 28.6033H59.4589L59.4544 28.5844C59.2255 27.4856 58.6722 26.6044 57.81 25.9633C56.9477 25.3222 55.8911 24.9967 54.6689 24.9967C53.0344 24.9967 51.7189 25.5767 50.7566 26.7222C49.7789 27.8533 49.2822 29.4189 49.2822 31.3767C49.2822 33.3344 49.7777 34.9 50.7555 36.0311C51.7477 37.1767 53.08 37.7567 54.7144 37.7567C56.1355 37.7567 57.3511 37.3078 58.3277 36.4222C59.2989 35.5578 59.8166 34.4367 59.8677 33.0889H55.0133V30.9367H62.2311V30.9344ZM102.611 25.3878V30.1711H110.812V32.2778H102.611V37.3622H111.882V39.63H100.089V23.12H111.882V25.3878H102.611ZM97.5666 23.12V39.63H95.1366V26.5289C94.8244 27.4489 94.4055 28.5878 93.8889 29.9278L90.16 39.6311H88.0455L88.04 39.6156L84.2711 29.9278C83.8222 28.7322 83.4122 27.6078 83.0466 26.5767V39.6311H80.6166V23.12H84.0789L87.46 31.8978C88.1377 33.6756 88.6977 35.2167 89.1255 36.4778C89.6266 34.9789 90.1944 33.36 90.8144 31.6667L94.08 23.1189H97.5666V23.12ZM129.387 24.5256C128.4 23.5933 126.994 23.12 125.209 23.12H118.179V39.63H120.701V33.5489H125.209C126.994 33.5489 128.401 33.0756 129.387 32.1433C130.373 31.21 130.874 29.9322 130.874 28.3456C130.874 26.7433 130.374 25.4578 129.387 24.5256ZM120.701 25.3411H125.162C126.183 25.3411 126.971 25.6033 127.503 26.12C128.036 26.6367 128.306 27.3856 128.306 28.3456C128.306 29.3056 128.036 30.05 127.503 30.5589C126.971 31.0689 126.183 31.3267 125.162 31.3267H120.701V25.3411ZM158.8 35.0511C158.8 36.5778 158.226 37.7978 157.091 38.6767C155.959 39.5544 154.371 40 152.371 40C150.202 40 148.49 39.5 147.281 38.5144C146.071 37.5278 145.45 36.0667 145.434 34.1722V34.1478H147.957V34.1711C147.98 35.3911 148.366 36.3189 149.103 36.9278C149.843 37.5378 150.958 37.8467 152.418 37.8467C153.624 37.8467 154.564 37.6111 155.213 37.1456C155.859 36.6822 156.186 36.0011 156.186 35.1189C156.186 34.4056 155.917 33.8489 155.387 33.4622C154.852 33.0733 153.876 32.72 152.482 32.4144L151.072 32.1144C149.381 31.7767 148.086 31.2144 147.223 30.4444C146.359 29.6722 145.92 28.5933 145.92 27.2356C145.92 25.8778 146.452 24.7778 147.501 23.9678C148.549 23.1589 149.984 22.7489 151.77 22.7489C153.923 22.7489 155.567 23.2178 156.652 24.1422C157.739 25.0678 158.307 26.3567 158.337 27.9756V28H155.839L155.838 27.9778C155.761 26.9267 155.411 26.1422 154.794 25.6478C154.178 25.1522 153.168 24.9022 151.792 24.9022C150.723 24.9022 149.896 25.1033 149.332 25.4989C148.771 25.8933 148.487 26.4622 148.487 27.19C148.487 27.9333 148.74 28.5033 149.24 28.8811C149.744 29.2933 150.69 29.65 152.051 29.94L153.484 30.24C155.36 30.64 156.729 31.2256 157.553 31.98C158.381 32.7378 158.8 33.7711 158.8 35.0511ZM173.487 35.0511C173.487 36.5778 172.912 37.7978 171.778 38.6767C170.646 39.5544 169.058 40 167.058 40C164.889 40 163.177 39.5 161.968 38.5144C160.758 37.5278 160.137 36.0667 160.121 34.1722V34.1478H162.643V34.1711C162.667 35.3911 163.052 36.3189 163.791 36.9278C164.531 37.5378 165.646 37.8467 167.106 37.8467C168.312 37.8467 169.252 37.6111 169.901 37.1456C170.547 36.6822 170.873 36.0011 170.873 35.1189C170.873 34.4056 170.604 33.8489 170.074 33.4622C169.54 33.0733 168.563 32.72 167.17 32.4144L165.76 32.1144C164.069 31.7767 162.773 31.2144 161.911 30.4444C161.047 29.6722 160.608 28.5933 160.608 27.2356C160.608 25.8778 161.14 24.7778 162.189 23.9678C163.237 23.1589 164.672 22.7489 166.458 22.7489C168.611 22.7489 170.254 23.2178 171.34 24.1422C172.427 25.0678 172.994 26.3567 173.024 27.9756V28H170.527L170.526 27.9778C170.449 26.9267 170.099 26.1422 169.482 25.6478C168.866 25.1522 167.856 24.9022 166.48 24.9022C165.411 24.9022 164.583 25.1033 164.02 25.4989C163.459 25.8933 163.174 26.4622 163.174 27.19C163.174 27.9333 163.428 28.5033 163.928 28.8811C164.432 29.2933 165.378 29.65 166.739 29.94L168.172 30.24C170.048 30.64 171.418 31.2256 172.241 31.98C173.068 32.7378 173.487 33.7711 173.487 35.0511ZM138.417 23.12H135.563L129.117 39.63H131.736L133.331 35.3522H140.649L142.244 39.63H144.863L138.417 23.12ZM134.136 33.1544L136.99 25.5956L139.844 33.1544H134.136Z" fill="white"/>
</g>
<defs>
<clipPath id="clip0_359_7182">
<rect width="172.973" height="40" fill="white" transform="translate(0.513306)"/>
</clipPath>
</defs>
</svg>
