<svg width="12" height="12" viewBox="0 0 12 12" fill="none" xmlns="http://www.w3.org/2000/svg">
<path fill-rule="evenodd" clip-rule="evenodd" d="M9.53557 10.9497C9.92609 11.3402 10.5593 11.3402 10.9498 10.9497C11.3403 10.5592 11.3403 9.92602 10.9498 9.5355L7.41423 5.99995L10.9497 2.46443C11.3403 2.07391 11.3403 1.44074 10.9497 1.05022C10.5592 0.659693 9.92605 0.659693 9.53553 1.05022L6.00001 4.58573L2.4645 1.05022C2.07398 0.659696 1.44081 0.659696 1.05029 1.05022C0.659763 1.44074 0.659763 2.07391 1.05029 2.46443L4.5858 5.99995L1.05025 9.5355C0.659723 9.92602 0.659723 10.5592 1.05025 10.9497C1.44077 11.3402 2.07394 11.3402 2.46446 10.9497L6.00001 7.41416L9.53557 10.9497Z" fill="#001C2D"/>
</svg>
