<svg width="14" height="12" viewBox="0 0 14 12" fill="none" xmlns="http://www.w3.org/2000/svg">
<path fill-rule="evenodd" clip-rule="evenodd" d="M1.89087 4.99999C1.33858 4.99999 0.890869 5.44771 0.890869 5.99999C0.890869 6.55228 1.33858 6.99999 1.89087 6.99999L9.69511 6.99999L7.15954 9.53557C6.76901 9.92609 6.76901 10.5593 7.15954 10.9498C7.55006 11.3403 8.18322 11.3403 8.57375 10.9498L12.8164 6.70714C12.8408 6.68273 12.8637 6.65738 12.885 6.63119C13.2054 6.23842 13.1825 5.65905 12.8164 5.29293L12.8152 5.29172L8.57375 1.05029C8.18322 0.659764 7.55006 0.659763 7.15953 1.05029C6.76901 1.44081 6.76901 2.07398 7.15954 2.4645L9.69503 4.99999L1.89087 4.99999Z" fill="#004370"/>
</svg>
