<svg width="14" height="12" viewBox="0 0 14 12" fill="none" xmlns="http://www.w3.org/2000/svg">
<path fill-rule="evenodd" clip-rule="evenodd" d="M12.1091 7.00001C12.6614 7.00001 13.1091 6.55229 13.1091 6.00001C13.1091 5.44772 12.6614 5.00001 12.1091 5.00001L4.30489 5.00001L6.84046 2.46443C7.23099 2.07391 7.23099 1.44074 6.84046 1.05022C6.44994 0.659693 5.81678 0.659693 5.42625 1.05022L1.18361 5.29286C1.1592 5.31726 1.13632 5.34262 1.11496 5.36881C0.794612 5.76158 0.817494 6.34095 1.18361 6.70707L1.18482 6.70828L5.42625 10.9497C5.81677 11.3402 6.44994 11.3402 6.84046 10.9497C7.23099 10.5592 7.23099 9.92602 6.84046 9.5355L4.30497 7.00001L12.1091 7.00001Z" fill="#004370"/>
</svg>
