<svg xmlns="http://www.w3.org/2000/svg" width="615.803" height="605.248" viewBox="0 0 615.803 605.248">
  <path id="teaser_outerswoosh" d="M52.233,199.425c.309-2.41.582-5.379,1.046-8,.154-.807.443-1.331.718-2.6.561-2.962,1.561-6.335,2.249-9.444.7-3.07,1.314-5.812,1.713-7.553a38.738,38.738,0,0,0,.525-4.756c.119-.637.312-1.659.371-2,.356-2.692,1.269-3.537,2.112-5.7,1.294-3.162,2.148-7.741,4.065-12.165.371-.924,1.1-2.155,1.48-3.046.937-2.3,1.829-5.125,3.041-7.512.548-1.132.845-1.275,1.34-2.361.3-.667.52-1.653.66-1.921.765-1.411,1.029-1.123,1.531-2.27a16,16,0,0,1,.526-2,15.671,15.671,0,0,1,2.916-4.586c.2-.225.579-.262.7-.4.294-.361.648-1.362.945-1.79.458-.667.918-.9,1.316-1.585a25.031,25.031,0,0,0,1.822-4.382c-1.545,1.471-1.971,3.508-2.825,5.375-.345-.414-1.124,1.613-1.518,1.5.736-2.817,3.118-5.522,4.661-8.243.885-1.6.975-2.649,2.05-4.288.182.11.5-.341.713-.365,1.28.407-1.659,4.582-.553,5.13-.682.527-1.128.03-2.119,1.89-.291,1.981-1.379,2.577-2.164,4.187-.4.783-.213.914-.749,1.882-.425.768-.646.691-1.132,1.68-1.338,2.825-2.369,6.217-3.5,8.741-.678,1.4-1.742,2.065-2.091,3.462-.588,1.593,1.67-1.9.5.955a27.884,27.884,0,0,1-3.22,4.445c.375,1.4-1.48,4.889-2.194,7.071-.331,1.015-.216,1.559-.617,2.628-1.265,3.673-2.667,7.468-4.147,11.253a109.5,109.5,0,0,0-3.378,11.561c.855,1.335,1.539-4.835,2.371-4.176a48.123,48.123,0,0,0-2.529,8.267c-.216,1.268.686.713-.006,2.737-.8-.184-2.855,4.681-2.188,6.306.389-.327.722-3.065,1.182-3.137.63.014,1.159.184.567,2.166-.393-.522-.79-1.546-1.329,1.067-.233,2.67,1.37-1.714,1.049.225l-.625,3.246-.84-.171c-.573,1.57-.2,2.858-.463,4.638-.119.819-.686,2.312-.839,3.218-.35,2.583-.334,6.163-.673,9.27-.261,1.962-.586,3.926-.61,5.253-.034,1.352,1.221,2.723-.154,3.967-.389-.459.146-3.083-.336-3.353-.7,3.323-.283,8.282-.926,11.879.266,1.3.947-1.093,1.017,1.384a77.9,77.9,0,0,0,.129,7.919c.286,4.988-.232,10.635.5,14.481.224,1.451.7,1.9.828,3.256.154,1.588-.268,2.918-.174,4.613.083,1.1.589,2.062.767,3.239.347,2.221.255,4.67.915,6.512.149-1-.126-2.936.576-2.694.16,1.845.655,4.445.059,4.6-.469.774-1.15-2.968-.852.1a7.129,7.129,0,0,0,.5,1.925c.272.982.15,1.291.311,1.948.6,2.383,1.662,4.77,1.975,8.342,2.381,1.038,2.126,10.628,4.029,12.557-.859.4-.066,3.35.853,6.526.637.322.112-3,1.078-.941a16.752,16.752,0,0,1,.579,3.9c-.411.094-.713-1.66-1.158-1.058.517,1.568,1.207,5.53,1.9,4.922.942-.381-1.477-3.259-.369-3.293,1.87,2.016,1.79,6.7,2.174,8.232.39,1.376,1.129,2.911,1.853,4.913.826,2.292,1.029,3.875,2.062,4.835.484,1.468-.267,1.388.557,3.3.976-.6,1.8,3.891,2.644,5.324.242.445.8.3,1.123.968.541,1.11.969,2.749,1.642,4.292.5,1.137.776,1.246,1.244,2.32,1.161,2.465.531,1.712,1.642,2.871,1.138,1.158,2.045,3.921,3.125,5.781.437-.3.886-.527,1.442.034.282,3.249,2.37,5.117,3.883,7.565,1.367,2.086,3.609,5.854,4.1,6.708.389.829-.927-.3.156,1.422,2.049,3.188,4.781,5.952,6.386,9.164.7.3-.537-1.973.716-.458a88.49,88.49,0,0,0,10.163,12.8c-.524.914,1.762,3.785,3.613,6.287.7.237-.694-1.938.664-.52,2.072,2.317,4.807,4.484,6.06,6,.586.7.646,1.413,1.388,2.246.773.866,1.812,1.354,2.563,2.09.665.636,1.476,1.842,2.105,2.5,1.32,1.367,2.448,2.18,3.311,3.158.746.871,1.266,1.768,2.023,2.584,1.353,1.468,3.162,3.337,4.618,4.644,1.155.995,2.412,1.174,3.939,2.5.765.671.271.935,1.711,2.009.924-.347,1.343.389,1.912.807,1.584,1.13,5.129,4.222,5.623,4.484.848.605,2.13,1.95,2.966,2.563.743.542,1.648.815,2.331,1.282.566.381.675.794,1.412,1.366,1.814,1.552,6.326,4.352,8.627,5.935.686.453,3.042,1.615,2.912,1.542.539.328.542.631.978.887,3.112,1.743,6.906,3.611,9.738,5.412a15.055,15.055,0,0,0,2.16,1.461c.182.084,1.077.167,1.358.287.675.3,1.622,1.05,2.265,1.29.754.279,1.338.231,2.016.432,2.124.642,2.7,1.222,5.262,2.594,2.227,1.136,4.847,2.473,6.385,3.25-.049.422-.864.078-.955.445,1.51,1.042,2.106.6,3.716,1.331,1.3.613,1.388,1.142,2.8,1.716a24.469,24.469,0,0,0,2.557.7c.71.228,3.357,1.856,3.141.969a48,48,0,0,1-6.352-3.331c-.709-.473-2.944-1.538-2.1-1.626a26.382,26.382,0,0,1,2.868,1.517,30.633,30.633,0,0,0,4.651,2.328,3.885,3.885,0,0,0,1.1.729c1.5.624,2.453.761,3.546,1.666.994.124,1.248-.355,2.209-.253,2.423,1.619,4.442,1.589,6.108,2.21,1.024.323,1.452.827,2.382,1.032,1.566.346,2.213-.194,3.96.48,2.491,1.024,2.8,2.358.065,1.783-2.96-1.457-5.823-2.552-8.071-2.609a43.468,43.468,0,0,0,9.233,3.232c2.334.424,1.659-.162,4.094.054.466.033,2.276.475,2.556.521.249.046,1.683.016,1.87.543-.414.3-4.562-.712-2.8.267,2.725.717,3.384.274,5.226.665,3.495.838,7.61,2.084,11.308,2.927.857.19,1.7.023,2.613.215.924.23,2.475.786,3.761.981,1.768.251,3.887.6,3.972-.08-.339-.632-2.752-.8-3.723-1.145-.17-.061-.283-.479-.547-.528-1.824-.346-1.965.292-3.916-.195-2.019-1.677-4.685-1.424-7.469-2.034-1.072-.219-2.67-.857-3.681-1.188-4.038-1.256-8.8-1.962-13.065-3.577-1.081-.382-1.786-.874-2.983-1.243-1.569-.492-2.99-.657-4.419-1.068-1.543-.539-3.143-1.329-4.794-1.916-2.527-.926-5.14-1.142-7.522-2.148-.638-.266-1.205-.751-2.266-1.259l-7.119-3.358c-2.516-1.32-5.118-2.616-7.44-3.652-1.578-.712-2.813-.97-4.2-1.747-3.744-2.092-8.227-4.245-11.277-6.341-.807-.518-1.749-1.4-2.611-1.907-1.18-.688-2.345-.822-3.635-1.548-.55-.279-2.038-1.535-3.1-2.34-2.709-1.984-5.088-3.318-6.468-4.287-.75-.533-.832-.841-1.963-1.691-1.452-1.067-2.97-1.835-4.337-2.843-1.795-1.355-3.317-2.816-4.944-4.153-.8-.664-1.776-1.054-2.722-1.784-2.75-2.149-5.916-5.2-8.224-7.258-.994-.833-1.678-1.061-2.641-1.919a76.183,76.183,0,0,1-5.389-5.55c-2.633-2.828-6.375-5.9-7.84-7.691-.587-.672-1.336-1.923-1.949-2.574-.557-.587-.842-.213-1.759-1.062-.078-.088-1.64-1.88-1.7-1.95-.926-1.1-1.379-1.9-2.314-3.1-2.539-3.158-5.586-6.138-7.271-8.272-2.029-2.762-2.761-4.281-3.722-5.278a36.24,36.24,0,0,1-4.362-6.4c-.92-1.437-2.5-3.108-3.477-4.691-.491-.8-.429-1.108-1.208-2.288a61.961,61.961,0,0,1-3.409-5.495c-.411-.829-.842-2.4-1.216-3.013a16.81,16.81,0,0,1-1.844-1.959c-.912-1.159-1.69-3.057-2.268-3.93-.543-.865-.992-1.16-1.539-2.136a90.9,90.9,0,0,1-4.908-9.857c-.529-1.222-.5-1.8-1.1-3.035-.949-2-2.289-3.643-3.1-5.735-.707-1.691-.983-3.2-1.618-4.906-.569-1.527-1.187-3.049-1.823-4.563l-1.692-4.6a88.883,88.883,0,0,1-3.136-9.042q1.082.182.175-2.7c-.857-1.586-.455,2.442-1.411-.319-.3-3.471-1.092-4.908-1.92-7.509-.921-2.853-1.626-6.553-2.425-9.4a25.985,25.985,0,0,1-.863-2.477c-.215-1.21-.078-2.275-.291-3.23-.182-.818-.663-1.593-.827-2.5-.178-.968.2-1.49.011-2.606-.223-1.274-1.108-1.647-.842-3.16.051-2.353.866-2.323.515-5.237-.819-1.853-.2,1.636-.93,1.378-.412-3.161-.66-6.5-.859-9.656-.1-1.061-.492-2.089-.611-3.212-.172-2-.257-4.452-.3-6.469-.13-2.572-.639-4.524-.68-6.48-.014-.93.23-2.968.2-3.89-.034-1.73-.479-2.732-.442-4.568.024-1.354.544-3.112.615-4.513.059-.738-.361-2.047-.239-3.277.086-1.185.5-2.5.522-3.215a16.793,16.793,0,0,0-.245-1.981,51.511,51.511,0,0,1,.69-9.751c.176-1.177.465-1.436.58-2.553.092-.9-.077-2.15.032-3.289.075-1.052.422-2.2.549-3.219.156-1.291.021-2.1.207-3.28.355-2.582,1.512-8.833,1.816-9.636.127-.515.464-.853.524-1.226.307-1.926-.031-2.5.31-3.966.28-1.135,1.08-2.56,1.382-3.695.327-1.313.2-2.224.508-3.937.606-3.312,1.428-6.5,2.887-6.653.5-1.782,1.518-3.782,1.963-5.545.338-1.342-.027-1.76.063-2.756.129-2.921,2.724-8.826,4.044-12.535.291-.768.615-.749.955-1.736.134-.368-.193-.659.17-1.361a6.934,6.934,0,0,0,.672-.425c1.44-2.138,1.788-5.289,2.484-6.834.746-1.712,2.2-2.587,2.457-3.94.185-.987,1.542-1.663,1.042-2.426-.395.7-.791,1.353-1,.971.628-1.839.756-3.021,1.786-4.284a10.233,10.233,0,0,0,1.542-2.929c.414-.738.721-.639,1.2-1.6s.317-1.289.985-2.486c.625-1.116,1.863-2.582,2.553-3.883a17.686,17.686,0,0,1,.827-1.82c.749-1.227,1.669-2.023,2.357-3.216,1.025-1.738.662-2.957,2.576-4.654.6.132-2.221,2.993-.93,2.559,1.5-1.621,1.359-2.139,2.925-4.422-.931-.013.163-1.482.449-2.1a13.17,13.17,0,0,1,1.841-3.581c.66-.891,1.629-1.776,2.154-2.559.952-1.456,1.677-3.354,2.729-4.618,1.006-1.273,2.034-1.839,2.878-2.844.7-.821,2.339-3.021,2.784-3.753.625-1.039.377-1.376,1.247-2.432,2.725-3.281,6.1-6.324,8.3-9.683.68-.283,1.035.086,2.051-.847.528-2.058,3.129-4.917,5.913-7.358.707-.6,2.547-1.985,3.146-2.555.08-.077.933-1.361,1.2-1.665a58.943,58.943,0,0,1,6.478-5.915c1.825-1.606,2.52-3.463,4.71-3.86-.784.9-2.814,2.3-2.2,2.628,1.69-1.467,3.422-2.853,5.123-4.166a52.651,52.651,0,0,0,4.882-3.856c1.012-.939,1.232-1.618,2.333-2.518a21.552,21.552,0,0,1,2.311-1.434c3.544-2.14,4-3.025,5.983-4.465.643-.473.949-.364,1.816-.957,1.894-1.368,4.724-3.108,5.659-3.771.289-.207-.2-.488.243-.877,1.321-1.162,3.716-1.928,3.307-2.449,1.025-.108,2.05-.29,4.452-1.882-.06-.757-2.333.7-1.144-.577a155.292,155.292,0,0,1,15.094-8.213c1.507-.781,3.5-1.806,4.29-2.217A10.748,10.748,0,0,0,195.5,12.9c2.292-1.24,2.1-1.977,4.054-2.718,1.044.119,4.945-2.089,5.381-1.49.217-.773,2-1.648,4.236-2.582,2.246-.906,5.016-1.673,7.1-2.556,2.122-.874,3.623-1.843,5.018-2.418.788-.339,1.363-.154,2.725-.621,1.112-.377,2.076-.972,3.205-1.371a24.6,24.6,0,0,1,2.732-.583c.85-.269,2.277-1.082,3.212-1.38,2.481-.8,5.055-1.15,7.435-1.846,2.88-.777,4.877-1.78,7.367-2.147,1.2-.172,2.4-.011,3.526-.233-.313-.439-1.664-.6.465-1.149,1.967-.036,2.277.787,5.7-.013,1.784-.511-1.725-.675,1.176-1.291,6.034-.242,10.98-2.045,15.96-2.3,1.1-.068.7.485,1.466.5.877.017,1.887-.411,3.472-.521,2.89-.2,1.279.412,3.528.1,2.418-.355,2.386-.909,5.54-1.135,1.093.01.516.5,1.44.57.257-.026,4.758-.409,4.894-.418,2.072-.343,1.146-1.432,3.483-1.127,3.031-.256.9,1,3.539.857,1.2-.525-.821-.735.694-1.035,2.158.159,2.073-.348,4.237-.193l0,.837c2.859-.255,4.4.2,8.444.307-2.127-1.647,4.216-.249,5.717-1.161,1.963.27,1.606,1.15,4.153,1.4a19.758,19.758,0,0,1,5-.338c1.512.116,2.239.681,4.158,1.036a49.566,49.566,0,0,0,5.6.8,17.861,17.861,0,0,1,3.591-.106c2.183.242,4.669,1.317,6.949,1.376,1.835.426-.449-1.273,2.242-.412,1.519.263.178.786.5,1.16,3.186.983,4.86.408,7.077.751.965.187,2.243.765,3.394,1.041,1.974.481,3.705.464,6.249,1.306.758-.215-1.9-1.173.208-.806,3.4.464,5.35,1.977,8.787,2.891,1.588.449,3.294.375,4.963.8,2.9.8,6.486,2.828,7.876,3.33,2.824,1.024,6.121,1.884,8.74,2.991,1.544.612,3.053,1.477,4.541,2.025.653.243,2.334.5,2.811.662,3.459,1.33,8.675,4.1,13.575,6.179,1.381.625,2.66.933,3.99,1.569a126.4,126.4,0,0,1,14.976,8.152c.855.57,1.281,1.136,2.242,1.769,1.094.765,1.454.635,2.506,1.344a47.168,47.168,0,0,1,3.839,3.178c1.832,1.436,4.15,2.653,5.209,3.645,2.7,2.374,4.939,5.36,8.975,6.834-.654-.607-1.011-1.044-.762-1.316,1.51.412,2.046,1.917,3.506,2.392.675-.81-.975-2.536.57-3.007a19.25,19.25,0,0,1,3.907,1.974c.99-.324-2.466-2.409-1.475-2.737a39.007,39.007,0,0,0,5.686,4.409c.714-.292-.183-1.943,3.353.507.565-.478-1.957-2.7-.184-2.016,2.2,2.5,2.676,1.879,4.731,3.433,5.941,4.372,11.054,9.96,16,14.826,1.6,1.726,3.154,3.142,4.519,4.712.639.734.751,1.293,1.2,1.847.872,1.12,2.407,2.646,3.333,3.814a41.5,41.5,0,0,0,5.216,6,36.21,36.21,0,0,0,3.351,2.886c.727.513.97.927,1.412.736.712-.308-.575-1.867-.4-2.455.3-.215,1.4,1.463,1.728,1.425-2.072-2.817.413-1.368.41-2.171-.017-.519-1.314-2.975-1.43-3.566-.09-.456.378-.329.007-.957-1.236-2.043-3.98-5.008-6.035-7.515-.623-.731-.774-1.335-1.23-1.886-2.209-2.7-3.539-3.7-3.506-4.864.606-.157,2.013,1.181,2.489.768-1.529-2.686-2.64-5.078-5.8-7.958-.685-3.347,4.516,1.2,6.935,4.893,1.248.171,3.906,2.957,6.041,4.778,1.619,1.137-.259-1.89,1.99.3a49.8,49.8,0,0,0,6.346,7.62,75.783,75.783,0,0,1,4.673,6.008c1.141,1.43,2.476,2.515,3.63,3.937.646.8,1.464,2.188,2.181,3.121.844.995,1.525,1.81,1.972,2.334.738,1.036,1.258,2.173,2.02,3.224,1.847,2.579,5.231,7.038,7.453,10.563.608.832,1.566,2.136,1.811,2.462.811,1.363.928,2.267,1.67,3.418.4.645,1.3,1.292,1.992,2.364.59,1.026,1.14,2.513,1.684,3.4,1.911,3.181,3.974,5.934,5.6,9.057.392-2.607-3.835-7.4-5.6-10.78-.806-1.545-.77-2.354-1.381-3.593-1.291-2.7-3.157-5.574-4.367-8.065-.8-1.237,0,1.546-1.538-.85-2.812-4.478-3.457-5.1-6.526-9.422l.7-.476c-1.638-2.729-2.086-2.191-3.45-4.135.027-1.473-2.181-3.386-3.926-5.674-1.859-2.514-5.193-7.01-5.946-8.028-1.48-2.426-2.469-2.711-4.205-4.513-1.52-1.575-2.237-2.716-3.541-4.06,1.189-.122-.608-1.623-1.505-2.78-.149-.192-.512-1.042-.756-1.4-.824-1.22-1.465-2.262-2.215-3.216-.993-1.264-2.291-2.269-3.222-3.359-.633-.764-.854-1.262-1.363-1.923a9.689,9.689,0,0,1-1.4-1.9c-.16-.319.845.36.869.24.015-.075-.833-1.128-.832-1.367-.013-.648.732-.59.328-1.422s-2.177-2.225-3.556-4.224c-.724-1.054-.669-2.063-1.28-3.224-.277-.535-1.789-1.833-2.107-2.382-.195-.331.9.355.892.208-.064-.659-1.732-1.322-2.413-2.064-.206-.224.93.283.892.208-.107-.11-1.5-1.529-1.671-1.7-.264-.361-.842-.843-1.071-1.192-.115-.174-.075-.869-.19-.991a19.3,19.3,0,0,0-2.566-1.919c-.546-.507-.158-.8-1.559-1.854a24.3,24.3,0,0,1-2.794-1.642,11.851,11.851,0,0,0-.995-1.307c-.906-.82-2.25-1.625-3.156-2.45-1.318-1.2-.994-1.385-2.27-2.291-.056-.038-.741-.073-.891-.156-.676-.424-1.919-1.589-2.582-1.891-.82-.375-.811.5-2.589-.544-2.8-1.639-1.1-.828-2.334-.872a8.292,8.292,0,0,1-1.427-.744c-.452.111-.1.735.151,1.129-1.887-1.088-3.145-1.422-5.023-2.5-.474.455.841,2.035-.966,1.37-.884-1.352-4.055-3.04-4.935-3.938-.254-.255-.075-.734-.322-.946-.608-.52-1.975-1.158-2.667-1.689A19.838,19.838,0,0,0,460.9-.848a47.809,47.809,0,0,0-5.329-3.425c-.3-.166-1.135.013-1.7-.249-.72-.339-2.166-1.8-3.327-2.136-1.609-.505-2.388-.159-4.164-.688-.416-.142-1.576-.957-2.08-1.117-1.851-.638-1.035.257-3.207-.7-1.646-.721-3.008-1.936-4.714-2.862-1.026-.548-2.708-1.2-4.313-1.932-2.9-1.274-7.4-3.389-8.524-4.076a6.862,6.862,0,0,0-1.43-.646c-1.88-.993-2.12-1.369-3.453-1.938-1.346-.587-1.717-.449-3.011-.973-2.471-.988-5.852-2.438-7.989-3.384-.98-.455-1.846-1-2.827-1.451-3.6-1.587-6.188-2-8.158-3.028-.039-.018-1.148-.5-2.24-.993-1.1-.443-2.1-.851-2.146-.87-1.326-.369-2.381-.142-4.682-.94-4.134-1.39-6.108-3-8.814-3.787-1.253-.381-2.5-.395-3.912-.741-2.106-.513-4.055-1.275-6.125-1.7-2.18-.523-6.065-.373-7.824-1.4-1.533-.828-6.838-1.13-9.4-1.554a27.062,27.062,0,0,1-3.08-.873c-3.677-.922-4.7-.589-7.1-.83-7.114-.618-9.652-2.042-14.944-2.439-1.962-.171-3.788.388-5.591.255-1.666-.1-3.2-.653-4.738-.873-2.389-.368-7.018-.489-10.345-.731-1.974-.189-3.159-.587-4.794-.65-1.321-.051-2.847.169-4.783.185-1.421.075-3.993-.08-4.791-.009-2.046.192-.375.574-2.371.521-1.856-.035-6.2,1.047-7.89,1.207-.247.028-3.395-.615-3.975.147.218-.3,1.089-.5.716-.9-1.3.142-2.427-.313-4.041-.267-1.259.04-3.868.6-6.338.784-1.979.231-3.241.047-3.921.751-1.869.191-1.579-.52-4.049-.071.188.5,1.612.438-.653.939-2.513-.731-7.1.593-10.3,1.225-4.559.825-9.869.965-15.707,2.825-1.737.859-3.943,2.491-6.687,2.681-.023-.333,1.922-.634,1.374-.974-7.283,1.315-5.568,2.378-9.713,3.542-.783-.186,1.474-.881,1.335-1.045s-2.63.765-2.483.071c2.753-.948,8.323-2.915,9.855-3.185a19.925,19.925,0,0,0,2.387-.362c1.087-.33,1.79-.832,2.993-1.149,1.935-.511,4.057-.969,6.192-1.439,2.152-.394,4.316-.765,6.309-1.248,1.4-.334,2.464-.867,3.853-1.151,2.365-.491,4.688-.616,7.138-1,4.621-.76,11.729-1.793,16.677-2.288.865-.11,2.086-.517,3.154-.7,2.045-.364,4.121-.44,5.589-.714a35.81,35.81,0,0,1,3.969-.83,3.8,3.8,0,0,0,.834.384c.752.023.992-.256,1.6-.278-3-1.2,3.338-1.6,3.087-2.843-3.71.164-5.851-.314-9.787.039-2.041.24-3.482.753-5.637.927-1.364.107-2.587-.054-4.091-.048a24.725,24.725,0,0,0-4.864.476c-1.024.155-1.137-.081-2.446.126-1.913.328-4.716.808-6.418,1.1-2.793.378-10.064,2.076-11.938,2.422-1.326.214-3.5.224-4.877.494-1.022.219-2.882.891-3.888,1.217-2.52.725-6.391,1.757-8.612,2.278-1.477.349-2.746.413-4,.746-1.295.319-2.346,1.026-3.773,1.5-2.762.936-6.427,1.958-10.382,3.062-3.925,1.188-8.078,2.632-11.928,4.059-2.685.952-5.15,2.328-7.375,3.238-3.108,1.183-6.868,2.618-9.784,3.731-2.888,1.264-4.94,2.933-7.738,4.257-2.306,1.144-5.374,2-8.15,3.429-3.082,1.532-6.424,3.287-9.223,4.85-3.933,2.124-6.02,3.463-9.033,5.18-2.236,1.335-4.579,3.033-6.76,4.275-1.228.759-3.033,1.479-4.241,2.295-1.164.788-2.444,2.427-4.3,3.61a6.164,6.164,0,0,0-2.12,1.155c-1.719.612.181-.942-1.3-.41-2.947,1.794-.523,1.643-2.611,3.169-1.786.812-2.888,2.29-3.855,2.847-.935.533-.7-.523-2.325.926-2.5,1.932.885.16-.759,1.615-2.252.884-4.758,3.751-7.634,5.773-1.316.924-2.011.912-3.506,2.055-.724.55-.788.917-1.71,1.676-.943.729-2.592,1.892-3.162,2.447-1.347,1.261-2.038,2.2-3.4,3.362-.878.753-.351-.014-.884.231-1.753.8-3.687,2.814-5.332,4.748-1.578,2-2.9,3.886-3.617,4.338-.455.282,1.045-1.489.821-1.42-1.686,1.713-2.387,4.2-4.349,4.663.816-.87,2.132-2.033,2.1-2.4-3.288,2.489-3.012,3.925-4.962,6.245-1.164,1.444-3.31,3.729-5.324,5.89-1.116,1.209-2.48,2.685-3.76,4.064-1.217,1.439-2.357,2.768-3.142,3.613-1.02,1.1-2.14,1.49-3.184,2.557a73.272,73.272,0,0,0-5.578,6.744c-.671.92-.481,1.307-1.065,2.167a5,5,0,0,0-1.295,1.032c-.2.3-.075.839-.59,1.525a18.576,18.576,0,0,0-2.059,2.438c-.276,1.75-2.564,4.464-5.877,9.417-6.506,9.58-12.5,20.977-16.079,27.275-.337-.085-.617-.423-1.317,1.116-.283,1.124.567-.1.212.985-.243.851-1.825,4.449-2.486,5.819-.491,1.014-.351.142-.727.539-1.325,1.39-3.727,8.007-3.9,8.648-.083.2-1.042,1.5-1.295,2.032-2,4.193-2.1,6.193-3.174,8.953-.361,1.035-1.221,2.328-1.724,3.584-.309.775-.632,2.385-1.113,3.8-.319.934-.576.981-1,2.171-.355,1.005-.307,1.5-.844,3.056-.446,1.424-.719,1.6-1.125,2.962a30.47,30.47,0,0,1-.7,3.1c-.734,2.177-1.392,3.3-1.993,5.19-.382,1.187-.535,2.728-.853,3.866-.361,1.217-1.182,2.5-1.568,3.689-.377,1.136-.618,2.659-.946,3.847-.583,2.12-1.6,4.78-2,6.869-.321,1.471-.113,1.763-.4,3.163-.612,3.238-1.854,7.931-2.43,12.462-.516,3.081-1.036,6.156-1.453,8.622-.441,3.424-.178,5.373-.517,7.136-.326,1.86-1.05,2.728-1.291,4.672a51.624,51.624,0,0,0,0,5.587c-.006.926-.263,1.16-.317,2.372a18.264,18.264,0,0,1,.074,3.191c-.143,1.147-.222.142-.459.776-.5,1.4-.332,6.075-.242,7.973.063,5.532-.588,12.276-.313,16.768.039,1.257.241,2.767.227,3.992-.009,1.123-.266,1.909-.244,3.22-.013,3.09.591,6.311.712,7.981a14.818,14.818,0,0,0,.045,2.409c.19,1.517.512,2.437.645,3.969.134,1.578-.219,3.308-.029,4.851.18,1.724.89,2.5.966,4.737.119,3.153.817,3.993,1.229,6.316.186,1.115-.1,1.812.167,3.23.206,1.172.75,2.663,1.04,3.9,1.378,5.794.81,6.183,1.412,9.576.149.717.66,1.738,1.031,3.073.5,1.847.692,3.661,1.032,4.73.41,1.281.854,1.6,1.248,3.014.852,3.531,2.415,9.182,3.635,13.226a21.971,21.971,0,0,1,1.306,4.676c.826,3.922,2.1,8.008,3.807,10.673.422,1.877.111,2.589.672,4.073,1.671,4.412,6.125,9.335,5.607,11.744-.886-1.628-2.186-5.939-2.674-5.044q1.525,3.459,2.935,6.633,1.584,3.087,3.036,5.9c1.966,3.727,3.487,7.192,4.889,10.212-.3.516-1.7-3.289-1.765-1.844.917,2.53,4.329,7.641,4.654,9.55,1.747.356,2.978,5.475,4.541,6.84-.709-2.576,2.4,4.061,3.868,5.324-.561.042-1.608-.906-1.083.654a88.17,88.17,0,0,0,5.988,7.875c.679.721.523-.326,1.947,1.662,1.085,1.757,1.076,2.094,2.5,4.258,1.559,2.489,4.441,5.227,4.238,6.06-.492.254-2.234-2.361-2.725-2.112a80.877,80.877,0,0,0,5.61,8.178c.936,1.123,1.65.987,2.715,2.084,1.144,1.285,5.255,5.893,5.5,6.173.1.119-1.6-.947-1.575-.858.472,1.45,1.682,1.437,2.335,2.367.246.347-.292.8-.108,1.159.317.632,1.583,1.922,2.017,2.635,1.6,1.952,3.291,1.733,3.969,3.142-.219.179-1.148-.921-1.466-.918A81.637,81.637,0,0,0,82.6,449.9c1.425.327-2.549-2.712-1.115-2.372,2.811,2.452,1.3,2.279,3.746,4.45.789,1.238-1.481-.266,1.214,2.309,1.347,1.368,1.1.209,2.267,1.28-.035.831,1.618,1.543,2.417,2.279,1,.933,1.926,2.163,2.885,3.009a12.577,12.577,0,0,1,1.5.832,11.159,11.159,0,0,1,2.377,2.344c-.4.262-2.762-2.22-3.878-3.171.308,2.281,5.965,5.861,9.018,8.676,1.518,1.351,2.444,2.914,4.074,4.236,1.146.936,1.655,1.071,2.775,1.893,3.631,2.646,4.353,3.158,6.883,4.8.028,1.521,5.742,4.587,8.6,6.686.5.368,1.667,1.615,2.5,2.264,1.61,1.287,3.458,2.278,4.889,3.262.539.386,1.9,1.616,2.61,2.152,4.209,3.206,5.8,3.546,6.066,4.575.141.726,4.314,2.53,5.1,2.981,1.387.778,1.5,1.128,2.821,1.851a25.224,25.224,0,0,1,2.309,1.075c1.027.621,1.326,1.156,2.731,2.031a6.279,6.279,0,0,1,1.579.629c3.18,1.747,8,4.392,11.86,6.506.939.317-.436-1.338,3.434.69,2.023,1.579-2.09-.546-2,.237a60.308,60.308,0,0,1,8.317,4.222c.939.473,1.182.231,2.407.856,1,.5,1.784,1.223,2.934,1.744,4.016,1.834,9.533,4.313,13.273,5.711,2.471.806,5.136,1.189,7.447,1.91,2.624.816,4.972,1.754,7.4,2.65,2.46.83,4.984,1.668,7.917,2.417l-.294,1c2.985,1.1,2.762.35,4.26.588.513,1.588,4.26,1.744,8.091,2.723.17.061,1.825.6,2.438.81a42.232,42.232,0,0,0,7.474,1.748c2.127.913-2.34.106-.218,1.018,3.358.456,6.515,1.345,10.092,1.965,1.612.256,3.03.353,5.088.71,2.518.472,5.05,1.478,7.509,1.948,1.654.312,4.175.373,5.975.652,4.547.521,10.1,1.733,16.166,2.423,5.155.328,10.688.676,15.457.977,4.118.205,8.135.853,12.06.9,1.392.018,2.827-.361,4.3-.477,7.507-.546,11.428.546,17.289.154,1.416-.128,2.875-.257,4.3-.388a19.365,19.365,0,0,1,2.625.182c1.683-.146,3.433-.752,5.115-.893a25.8,25.8,0,0,0,4.393.25c1.425-.094,3.638-.731,5.1-.916,3.1-.408,6.735-.334,8.663-.685.863-.126.979-.4,1.663-.52,1.216-.2,5.667-.916,7.7-1.241,2.513-.351,5.277-.454,7.763-1.009,2.069-.437,4.395-1.128,5.891-1.411,1.307-.249,2.366-.179,3.481-.41a33.725,33.725,0,0,0,3.3-1.044c.4-.068,2.494-.412,3.443-.567.228-.037,1.227-.2,1.727-.283-.067.012,1.474.035.957.153,1.036-.241,2.068-.827,4.1-1.413,1.774-.517,3.147-.669,4.23-1.032,1.685-.577,3.11-1.562,4.779-2.06,3.611-1.1,6.3-1.041,8.643-1.668,4.484-1.141,9.734-3.829,16.138-6.36,5.792-2.447,12.129-5.017,17.488-7.553,3.165-1.676,6.98-4.12,9.738-5.588,9.83-5.2,23.7-12.263,27.186-16.679-.464.561-.528-.623-.5-.685.43-.979,1-1.242.935-1.637-.039-.2-.967-.025-1.334-.381-.971-.927.7-1.389-2.408-.434-3.161.974-2.581.947-7.093,3.171-2.078,1.06-3.329,1.325-3.821,1.891-.313.353-1,.338-.846.255-1.07.588-2.879,1.828-4.36,2.588-1.067.547-2.309.924-3.134,1.365a26.909,26.909,0,0,1-2.8,1.9c-1.76.969-3.723,1.411-5.523,2.262-1.358.629-3.175,1.753-4.475,2.362-3.53,1.675-7.068,2.734-10.2,4.146a26.411,26.411,0,0,1-2.964,1.608c-1.936.781-4.19,1.227-7.247,2.426-1.935.7-4.511,1.985-7.02,2.868-1.676.585-2.922.747-4.071,1.2-2.072.79-3.462,1.735-4.612,2.058-.8.218-2.326.145-3.5.333a82.668,82.668,0,0,1-7.887,2.957c-.989.324-2.515.46-3.321.7-1.537.405-1.71.781-3.162,1.161-1.921.5-1.561-.11-3.43.347-2.68,1.692-4.545,1.52-7.272,2.124-.914.246-3.68,1.306-3.317.657,2.046-.317,4.3-.737,3.95-1.5a41.787,41.787,0,0,0-7.931,2.886c-.559-.552-3.547.734-5.844.968-1.853.189-1.208-.47-3.477-.033-3.877.589-8.032,2.355-10.739,2.047-.427-.43,3.781-.592,2.346-1.083-2.092.365-2.538,1.05-4.83,1.55a46.217,46.217,0,0,1-5.054.385c-1.321.137-2.923.648-4.133.792-.2.026-1.98-.107-2.558-.064-1.2.083-3.105.538-3.363.251.173-.454,3.069-.623,3.231-1.079-4.452.882-10.411.916-11.659,1.323a6.543,6.543,0,0,1-1.645.356c-5.306.907-5.072.158-10.073.361-1.608.068-3.1.415-4.175.388-2.121-.048-3.931-1.094-6.729-.348.843-.03,1.06.326.011.419-1.8-.122-2.906-.832-5.058-.99-3.076-.237-6.047.281-9.2.16-2.174-.079-2.444-.728-5-.978-.407-.005-3.32-.011-4.168-.012-.8-.013-2.564.44-3.341-.171-.324-.6,3.124-.029,3.367-.454-2.544-.289-5.561-.5-8.3-.723-2.729-.328-5.186-.652-6.607-1-1.865.12,1,.611-.888.538a91.458,91.458,0,0,1-9.881-1.527,4.779,4.779,0,0,1-1.673-.034c-1.221-.249-1.79-.646-3.247-.9-3.157-.572-6.838-.76-9.849-1.578-1.308-.324-.61-.483-2.375-.88-3.661-.866-8.577-1.161-11.3-2.722.071-.266,1.456.151,1.705-.016a65.97,65.97,0,0,0-13.513-3.929,24.632,24.632,0,0,1-2.555-.078c-1.1-.293-3.276-1.148-4.709-1.6-1.916-.6-3.747-.889-4.7-1.594-.062-.9,3.562.378,4.323-.034-4.74-1.472-4.4-.618-6.646-.866-3.99-.856-5.237-2.454-7.533-3.458-2.3-1.026-5.087-1.481-6.848-2.845,3.158.7,8.967,3.006,13.275,4.385-.025.333-.327.657,1.371,1.123,1.656.905,1.264-.174,2.561.1,2.038.4,7.654,3,13.268,4.445,2.163.525,3.286.546,4.858.97,1.388.377,2.732,1.026,3.9,1.379a51.659,51.659,0,0,0,6.4,1.633c1.825.263,2.1-.378,4.177.181,2.139.353.478.92,3.118,1.24,2.986-.458,6.423,1.508,11.4,1.877-.08.26-1.084.133-.9.5,3.873.3,7.693.6,10.721.829,3.123.293,2.373.63,4.061.828a18.13,18.13,0,0,1,3.308.123c1.507.266,2.232.82,4.064,1.022,0,0,3.6.235,3.3.221,2.813.074,6.15-.495,9.116-.353.548.023,2.1.444,3.284.581a84.626,84.626,0,0,0,10.743.063c.391.4-2.542.887.832.841,3.841.169,1.134-.794,2.466-.824,2.749.706,6.387-.077,9.915-.165,1.258-.039,1.693.278,3.331.274a7.578,7.578,0,0,1,1.64-.28c1.136-.044,1.841.079,2.495.03,2.07-.2,4-.641,5.741-.724.889-.042,1.953.237,2.516.191,4.126-.283,6.907-1.21,10.652-1.44,1.525-.08,2.429.225,4.193.048,4.383-.355,8.812-1.492,13.822-2.558.831-.179,1,.011,1.675-.106,1.03-.18,1.076-.431,2.4-.667,5.087-.941,13.516-2.928,17.737-3.962a18.883,18.883,0,0,1,3.1-1.122c1.332-.3.715.2,2.5-.3,1.859-.511,3.391-1.417,5.41-2.025.889-.282,2.519-.325,4.084-.813,3.5-1.045,8.258-3.016,10.9-3.784,1.182-.347,1.975-.237,3.258-.71,1.428-.557,2.882-1.577,4.428-2.236a14.366,14.366,0,0,1,3.982-1.155c1.074-.374,2.659-1.327,3.735-1.737,0,0,2.263-.725,3.112-1.1,3.814-1.513,4.119-1.747,4.1-.965,4.087-2.618,8.916-5.105,14.4-7.943.825-.41.384-.12.829-.2,1.571-.278,5.128-2.614,7.374-3.655,2.681-1.327,4.9-1.64,7.54-3.439.079-.468-1.349.168-.342-.533,2.606-1.884,6.648-3.516,9.23-5.385,1.26-.862,2.527-2.363,3.742-3.24.509-.312,4.016-2.481,5.589-3.457,3.282-2.089,7.4-5.434,10.585-7.737,1.021-.766,2.579-1.38,3.54-2.147.968-.744,2.082-1.97,3.036-2.749.915-.75,2.375-1.645,3.314-2.432,1.147-.968,1.273-1.349,2.388-2.235,1.259-.988,2.924-1.913,4.018-2.882.741-.635,1.081-1.274,2.289-2.355,1.285-1.066,2.636-2.19,3.787-3.148,1.745-1.607,3.145-3.1,4.634-4.615,1.7-1.653,3.693-3.13,5.512-4.914,1.389-1.367,2.671-2.782,3.945-4.188,1.216-1.46,2.438-2.9,3.772-4.255.752-.763.9-.711,1.8-1.683.673-.717,1.66-2.244,2.575-3.176.3-.3,1.418-.95,1.969-1.546,1.517-1.809,2.952-4.656,4.15-6.083,2.038-1.125,2.348-2.223,4.461-4.8,2.679-3.446,4.555-6.093,6.33-8.506,3.09-4.071,6.791-8.715,9.74-13.091,2.083-3.057,2.784-4.492,4.3-6.92,1.735-2.822,3.018-5.507,4.8-8.517,2.5-4.748,5.192-9.4,7.628-14.239,2.281-4.9,4.792-9.757,6.631-14.958-.873.072-2.562,5.324-3.435,4.708.751-1.757,2.352-6.845,3.468-8.184,1.377-1.854.476.826.888,1.227a93.307,93.307,0,0,0,4.65-11.27c.407-1.026,1.163-1.991,1.486-2.919a5.636,5.636,0,0,1-.138-.9c.783-3.495,2.706-7.554,3.335-10.008,1.1-3.847,2.551-8.9,3.8-13.266.454-1.568,1.1-2.332,1.789-4.586a25.465,25.465,0,0,1,.561-3.2c.5-1.834,1.191-2.729,1.353-3.868.175-1.094.432-4.222-.063-4.162-.993,1.656-.592,5.346-1.546,5.474.757-4.4,1.586-8.225,2.207-11.134.37-1.866.513-3.779.665-4.815.238-1.269.967-2.817,1.218-3.916a81.724,81.724,0,0,0,1.519-11.264c.294-5.36,1.778-13.631,1.117-16.208-.231-1.1-.631-2.352-.719-3.291-.338-3.838.381-5.42.54-8.09.046-2.068-.311-3.952-.248-5.678,0,0,.833-.929.2-1.62a3.163,3.163,0,0,1-.421,1.617c.058-3.336.392-7.209,1.049-4.061.17-2.912-1.108-3.776-1.174-5.664,0,.136.734-4.624,1.1-3.274.326,2.587-.2,2.521-.2,4.067,1.11-.6.5-6.546.045-10.586-.157-1.338-.676-2.688-.9-4.025-.377-1.966-.222-3.07-.639-4.024-1-.667.576,5.334-.362,4.908-.068-5.4-1.953-13.159-1.46-16.973a11.254,11.254,0,0,0,.862,3.169c-.84-4.487-.749-8.748-1.8-10.424-.338,1.815,1.276,4.93.468,5.676-.329-1.228-.669-2.505-1.061-3.954-.31-1.162-.748-4.25-1.275-3.905-.152,3.009,1.1,5.873,1.7,7.942-.467,2.05.361,6.332.79,9.678.378,2.8.574,5.683.855,8.041.151,1.681.449,1.195.629,3.205.187,2.163-.282,2.067-.193,4.053.145,3.866.728,7.27.674,11.294.025,6.43,0,11.277-.438,17.752-.187,4.31-.593,9.324-.817,12.87-.055,1.322.18,2.723.052,4.061-.158,1.67-.688,3.239-.878,4.777-.4,2.448-.921,5.591-1.127,7.97-.152,1.771.1,2.342-.152,4.061a48.525,48.525,0,0,1-1.221,4.7c-1.2,4.851-1.816,10.9-2.9,13.377a12.5,12.5,0,0,0-1.163,3.855c-.343,1.5-.651,1.669-.982,3.08-.639,2.868-1.406,6.6-2.294,9.377-.459,1.541-1.054,2.721-1.353,3.79-.28.979-.205,2.056-.514,3.206-.344,1.211-.891,2.312-1.41,3.778-1.177,3.509-2.356,8.157-3.078,10.009-.446,1.111-1.372,2.385-2,3.558-1.279,2.509-1.929,4.615-2.94,6.627.244-1.96-.684.063-1.2,1.238-1.758,4.04-.992,4.176-2.088,6.972-.421,1.091-1.561,2.81-2.24,4.3-.453.986-.377,1.745-.975,3.1-.392.867-1.722,3.257-2.687,4.965-1.035,1.939-2.511,4.939-3.392,6.415-.784,1.318-1.481,1.92-2.269,3.363-1.432,2.519-2.815,5.434-4.112,7.845-.926,1.7-2.347,4.426-3.119,5.658a8.859,8.859,0,0,0-.812.454c-1.874,1.555-4.726,7.142-7.134,10.764-1.458,2.1-4.778,6.506-7.877,10.617a103.563,103.563,0,0,1-7.166,8.4c-2.17,1.9-2.474,3.26-3.963,5.111a170,170,0,0,1-13.542,13.95c-2.737,2.575-5.638,5.508-8.241,7.794-2.236,2.017-4.385,4.343-6.46,6.147-1.681,1.48-3.409,2.611-5.183,3.936-2.978,2.313-5.632,4.8-7.526,6.164-1.5,1.1-2.792,1.269-4.245,2.5-1.436,2.352-5.035,4.34-8.877,7.071-1.25.921-1.978,1.647-3.22,2.472-2.307,1.5-4.867,2.864-6.9,4.319-1.123.8-1.488,1.269-2.6,1.969-.655.45-2.668,1.133-3,1.352-.273.183.281.151-.583.594-1.592.81-3.048.919-4.416,2.129-1.315.945,1.1.808-1.547,2.136a3.353,3.353,0,0,1-1.626.471c-1,.165-.076-.208-1.625.47-2.76,1.238-5.484,3.2-9.2,5.188-1.135.591-3.029,1.167-4.52,1.9-1.2.61-2.121,1.343-3.556,1.987-3.136,1.453-7.332,2.919-11.26,4.758-2.114.995-3.937,1.909-5.934,2.7-1.624.616-3.027.84-4.7,1.446-5.2,2.058-13.375,4.6-16.864,6.129-1.138.475-.478.688-2.176,1.2-2.038.677-.885-.582-3.342.333-2.311.622-2.255,1.159-4.571,1.78-3.76-.012-7.312,1.585-11.221,2.407-2.854.678-6.368,1.512-9.8,2.326-3.451.738-6.844,1.348-9.38,1.835-1.363.258-3.2.358-4.867.7-1.3.3-3.027.71-4.007.828-2.421.266-4.828.145-7.391.4-4.073.5-8.825,1.136-13.827,1.474-2.407.144-4.335.048-6.552.127-2.5.068-4.657.382-7.343.527-2.593.137-5.035-.023-5.726.024-1.648.106-2.722.449-4.083.437-4.344-.095-7.68-.739-10.637-.686-1.046.047-2.925.314-4.092.243-2.142-.156-4.084-.687-6.517-.965-4.5-.4-10.353-1.191-15.418-1.724-.923-.1-3.022-.049-4.09-.21-1.429-.255-2.43-.771-3.981-1.005-4.127-.664-8.3-.745-12.93-1.815-1.217-.274-2.638-.725-3.971-.982-2.019-.386-4.323-.434-6.494-.84a64.245,64.245,0,0,1-6.311-1.689c-1.293-.425-3.981-1.509-4.5-2.166,4.444,1.052,9.391,2.478,12.667,2.943,12.093,2.394,27.964,5.028,38.606,5.611,1.076.095,2.4-.161,3.276-.165.808.009.6.231.8.251.726.076.759-.168.828-.164,4.274.153,6.139.06,7.326-.442,2.4-.255,5.851.313,7.28.017-.573-.929.035-1.539-1.587-2.51,4.481.107,6.97.8,8.819-.372.838.316,1.749-.05,2.4.01,1.69.157,1.322.514,3.228.565,1.435.043,1.8-.326,3.188-.339,1.871-.019,4.042.705,6.449.352,1.573-.736-3.213-.509-.858-.794,3.048.663,5.815.124,8.031-.111,1.045-.094,1.1.136,2.422-.006,1.373-.152,1.869-.426,3.166-.494,3.587-.2,5.323.425,8.085-.038,1.536-.238,3.3-1.1,5.463-1.389,1.314-.18,2.737.079,4.044-.144a5.188,5.188,0,0,1,3.129-.71c1.845.246,4.674-.707,7.127-1.128.991-.147,3.567-.538,6-.905,2.412-.481,4.66-.923,5.068-1.007,1.521-.4,2.249-.973,3.8-1.339a10.821,10.821,0,0,0,2.446-.152c1.11-.258,1.333-.613,3.067-.957,1.827-.434,3.531-.576,5.5-1.158,1.33-.39,2.531-1.119,3.719-1.522a64.775,64.775,0,0,1,9.363-2.3c2.176-.931,5.089-2.82,5.976-2.3.3.176-1.416.706-1.368.919,3.252-1.076,6.523-2.137,6.55-3.006.4.306,1.974-.233,3.206-.616,1.1-.343,4.6-1.562,6.021-2.2s1.871-1.227,3.524-1.884c1.849-.8,3.615-1.277,5.989-2.282,4.433-1.892,9.4-4.532,12.922-6.277,1.2-.561,2.529-.874,3.74-1.5.9-.461.859-.71,2.009-1.3a20.1,20.1,0,0,0,2.226-.936c.877-.488,1.7-1.424,2.561-1.925,1.2-.681,2.706-.718,3.653-1.675.293-1.174-4.2,2.517-3.3.727,5.144-3.246,7.728-3.676,10.934-6.5,1.781-.839-.29,1.133,1.138.263.406-.755,3.639-2.922,5.735-4.3,3.018-1.957,6.844-4.216,9.4-6,.483.4-4.34,2.884-2.817,2.867,2.818-1.555,5.41-4.155,8.339-6.15,1.955-1.319,4.213-1.733,5.331-3.556,1.5-1.538-1.963.885-2.4.859.287-.962,2.963-2.5,4.787-4.183,1.079-1,.954-1.414,2.177-2.33a23.213,23.213,0,0,0,2.262-1.038c1.415-.857,3.008-2.88,2.735-1.723-3.966,3.1-7.881,5.374-7.442,7.223,3.956-3.555,8.34-6.946,12.613-10.76,2.155-1.882,4.407-3.739,6.577-5.749,2.12-2.05,4.252-4.161,6.353-6.357.872-1.826-2.841,1.56-3.083.381l3.92-3.927c.3.29-1.328,1.718-.492,1.7,9.423-10.885,19.437-19.453,25.039-29.6.185.855,1.623-1.512,1.817-.67-.8,1.165-2.534,3.08-1.54,2.809a67.338,67.338,0,0,0,5.8-7.583c1.238-1.991,1.939-3.9,2.534-4.976s1.566-2.231,2.182-3.3c.2-.34.609-1.594.949-2.206.5-.852,1.244-1.782,1.683-2.671.906-1.758.655-1.923,1.253-2.936a58.671,58.671,0,0,1,4.6-6.481c.93-1.955-1.477.948.055-1.77,1.022-.749,1.314-1.392,2.41-3.183.507-.829.8-.692,1.124-1.2a12.791,12.791,0,0,0,.914-2.192c.947-1.827,3.267-4.753,3.861-6.033.875-1.815,1.774-4.672,2.634-6.621.322-.736.589-.76.865-1.349a9.57,9.57,0,0,1,.8-2.236c.6-1.112,1.253-1.7,1.686-2.712.423-.944-.1-.828.2-1.629.045-.116,1.708-1.9,1.893-3.493-.1-1.146-1.706,1.813-.993-.395,1.325-2.916,2.728-4.874,3.565-7.082.814-2.359.859-3.818,1.439-5.345.129-.343.523.57.873-.54-.052.172-.664-1.744.181-2.441.835-1.1.236.157.808.274,1.754-3.651,2.134-6.145,3.173-9.765.914-3.14,2.17-6.32,3.057-9.143.826-2.841,1.433-5.289,1.317-6.854-.194.585-.373,1.517-.582,1.485,1.044-2.328.958-4.693,1.477-6.951.444-1.992.965-2.463,1.364-4.553.311-1.681-.127-1.931.33-3.957.432-.094.3.966.694.938.416-2.169.285-3.32.625-5.511.218-1.252.635-2.322.847-3.862.69-5.3,1.215-11.533,1.684-16.519.256-2.15.788-4.15,1.013-6.254a3.529,3.529,0,0,1-.357-.828c-.026-.505.183-1.79.2-2.359.078-2.04.6-4.8.742-7.085.094-1.615-.076-3.441.02-5.54.112-2.18.254-4.457.239-6.329-.031-1.162-.392-2.84-.458-3.967-.043-.785.221-.949.205-1.582.011-4.528-.79-9.861-1.1-15-.194-3.809-.48-7.933-.914-11.833-.385-3.082-1.018-5.585-1.526-8.594-.232-1.521-.259-3.2-.529-4.721-.226-1.233-.739-2.4-1.05-3.848-1.686-7.127-3.03-16.538-5.342-23.965-.331-1.14-1.018-2.4-1.435-3.724-.552-2.029-1.5-6.584-2.4-5.91,1.206,4.505,2.283,7.776,3.815,12.894,1.081,3.516,1.868,7.471,2.624,11.161.8,3.656,1.529,7,2.106,9.644.285,1.261.715,1.812.921,3.062.137.83-.012,2.533.077,3.176.309,2.458,1.172,5.7,1.168,6.22.063,1.007-.285,1.477-.167,2.4a6.57,6.57,0,0,1,.509.739c.138.564.16,1.719.256,2.353.715,4.519,1.325,10.235.395,11.035-.4-3.05-.667-7.545-.953-10.2-.335-2.567-.872-5.014-1.322-7.777-.14-.788.068-.939-.033-1.579-.752-4.839-2.123-13.349-3.532-18.572-.777-3.111-1.075-5.65-1.863-8.471-.691-2.426-1.649-4.834-2.435-7.53-.723-2.376-1.157-4.958-1.908-6.829-.474-1.279-1.105-2.4-1.608-3.639-.656-1.6-1.4-5.138-2.06-4.32,1.056,2.871,1.775,6.084,2.879,8.985.579,1.477,1,2.162,1.467,3.673.272.93.185,1.568.6,3.094.754,2.856,1.932,5.71,2.783,9.039,2.593,10.337,4.072,22.821,5.333,30.138.209,1.261.641,1.854.762,3.076.153,1.619-.186,3.466-.053,5.523.168,2.07.522,3.756.7,6.235.228,3.41.582,7.8.592,12.569-.081,4.763.051,9.907-.229,14.806-.078,1.484.16,1.741.078,3.14-.322,4.209-.6,7.869-.9,11.692-.217,3.772-.5,5.25-.8,8.563-.107,1.446-.032,2.737-.249,3.906-.243,1.32-.691,1.754-.873,3.039-.148,1.1.117,1.794-.015,3.152a12.481,12.481,0,0,0-.547,2.289c-.118,1,.088,1.1-.121,2.354-.277,1.646-1.183,3.351-1.632,5.264-.665,2.629-1.1,6.487-1.969,9.943-.326,1.152-1.074,2.816-1.35,3.7-.646,2.06-1.221,4.879-1.3,5.3-.207.962-1.005,2.689-1.367,4.464-.241,1.179.02,2-.27,3.162-.326,1.308-.887,2.167-1.318,3.672-.624,2.086-.859,4.4-1.647,6.838-1.189,3.564-2.834,6.919-4.3,10.9-.507,1.464-.944,3.051-1.52,4.428-.517,1.191-1.536,2.769-2.173,4.18-2.209,5.25-4.737,11.091-7.015,15.655a37.421,37.421,0,0,1-2.1,3.315c-1.151,1.879-2.056,3.975-3.283,6.2-.641,1.165-1.319,1.99-2.015,3.348-.641,1.3-1.07,2.431-1.731,3.489-1.456,2.321-3.872,5.587-4.939,7.056-2.379,3.347-2.141,4.046-3.814,6.8-.353.573-1.784,2.327-2.769,3.787-.863,1.282-2.185,3.235-3.053,4.521-.773,1.128-.881,1.819-1.5,2.765-2.922,4.433-4.358,4.973-6.084,7.172-1.1,1.373-1.981,3.131-3.09,4.518-.9,1.113-2.348,2.275-3.3,3.377-.9,1.034-1.465,2.1-2.308,3.158-.658.855-1.152.91-2.234,2.215-1.618,1.908-4.5,5.142-6.291,6.973-.752.742-1.572,1.262-2.445,2.016-.929.815-1.832,1.928-2.754,2.765-1.232,1.118-2.207,1.637-3.071,2.476.354-.339-1.261,1.524-1.506,1.807a32.666,32.666,0,0,1-5.1,4.853c-.181.124-.129-.391-.3-.306-1.271.652-5.479,5.229-5.069,4.88-1.11.94-2.219,1.432-3.2,2.3-.136.113-1.124,1.432-1.533,1.806-.568.52-.878.436-1.351.834a8.7,8.7,0,0,1-1.066,1.146c-4.274,3.585-7.525,5.577-10.093,7.458-.815.625-2.053,2.065-2.894,2.664a11.706,11.706,0,0,0-2.154,1.06c-1.169.834-1.278,1.29-2.395,2.031-.707.491-2,1-2.834,1.447-3.78,2.087-5.02,3.557-7.718,5.365-.836.548-2.251.983-3.522,1.8-2.964,1.822-1.277,1.494-3.371,2-1.769.384-6.747,4.08-10.964,6.124-2.7,1.293-5.41,2.1-7.251,3.1-1.461.795-2.616,1.851-3.956,2.556-4.07,1.9-10.29,4.762-15.073,6.713-.982.367-2.262.512-3.081.792-2.3.781-6.525,2.49-8.009,3.239-1.053.53-1.57,1.33-2.7,1.7-1.722.6-3.73.76-6.179,1.478-2.285.674-5.072,1.839-6.689,2.322a20.944,20.944,0,0,1-2.4.275,83.824,83.824,0,0,0-9.053,2.651c-4.076,1.272-7.647,1.335-10.081,1.926-3.276.665-6.525,1.887-9.918,2.444-1.6.3-3.687.258-5.5.616a27.57,27.57,0,0,1-3.048.784,12.187,12.187,0,0,1-2.4.026c-.893.115-2.841.691-4.629.878-2.355.233-4.058.583-6.231.868-2.989.551-12.267.8-14.14,1.036-.394.039-.374.335-1.547.351a15.085,15.085,0,0,0-2.378-.209c-3.063-.011-4.94.22-6.3.063-3.184-.389-8.578-.656-11,.1-2.644-1.035-4.894-.426-7.849-.253-4.038.269-4.2-.051-7.843-.47-2.142-.261-4.581-.352-5.475-.5-.191-.034.187-.363.026-.416-1.961-.567-7.03-.086-8.621-.26-1.449-.129-3.225-.684-4.639-.884-1.441-.2-1.765.047-3.145-.1-4.267-.527-9.977-1.822-14.678-2.51-1.444-.237-2.634-.241-3.877-.515-1.194-.28-1.592-.668-3-1.009-1.233-.3-2.6-.461-3.835-.751-.737-.806.327-.5-.557-1.165-1.091-.306-4-.556-3.767-1,.761-.6,4,.482,6.185.835,2.8.436,6.588.829,9.231,1.347,1.675.285,2.534.918,4.517,1.3,4.528.856,5.35.431,7.745.711,1.131.168,3.462.79,4.641.509-1.069-.124-2.929-1.112-1.452-.983,3.608-.087,4.682,1.2,6.866,1.52a6.36,6.36,0,0,0,1.562-.056c1.655.124,3.136.7,3.889-.065-2.556-.074-4.8-.632-3.038-.9,3.269.474,3.963,1.308,6.873,1.725,2.174.287,4.252-.007,6.983.154.1.021,1.638.235,2.327.329,3.134.186,10.385.213,12.435.689-.514-.871,2.065-.964,3.074-1.1.355-.031,3.524-.093,4.656.013.227.02-.168.377.027.422.247.051,1.314-.128,1.554-.068.183.053.649.58.813.593a27.3,27.3,0,0,0,5.437-.234c-.243-.232-.013-1.018.648-1.519,3-.325,2.526.427.848.762,3.336.118,3.305-.862,3.8-.969,1.437-.306,3.2-.884,4.649-.213a8.263,8.263,0,0,0-3.04.692c2.235.331,5.058-.535,7.722-.726,1.693-.17,2.393.056,3.9-.12,1.017-.12.656-.532,1.475-.625.935-.112,2.051.048,3.136-.011a61.593,61.593,0,0,0,10.761-1.574c1.237-.274,2.5-1.032,3.68-1.332,1.952-.388,9.5-2.243,9.778-2.337,1.883-.365,4.61-.153,6.238-.638,2.225-.723,2.748-1.548,4.936-2.408,1.058.392,3.842-.971,4.5-1.1.212-.04,1.177.021,1.618-.034,2.759-.369,5.068-1.559,8.029-2.736,1.36-.274,1.224.474,3.869-.678.6-.768-3.7.427-.3-.78,3.243-1.16-.7,1.409,2.632.412,4.269-1.456,1.275-1.593,1.731-1.932,2.074-1.066,2.539-.185,3.937-.54.982-.237,2.544-1.131,3.585-1.445a11.865,11.865,0,0,0,2.31-.481c.921-.333,2.465-1.2,3.5-1.644,1.683-.729,3.532-1.425,4.972-2.115,1.951-.883,8.058-3.245,9.286-3.843,3.265-1.484,6.712-4.618,10.667-6.169,1.347-.236.075.265.42.731,3.4-1.806.1-.651,2.3-2.164,3.5-2.411,8.571-4.208,11.3-6.567.363.246-.493.836-.2,1.1,2.74-.957,4.736-2.928,7.061-4.672,1.985-1.438,4.917-3.552,5.645-3.992,1.079-.655,1.764-.645,2.811-1.358,1.006-.722,1.788-1.791,2.846-2.611,1.71-1.333,4.219-2.815,6.3-4.388.9-.677.954-1.019,2.339-1.991,1.755-1.37,4.111-2.894,6.212-4.538,1.463-1.143,2.987-2.54,4.156-3.4a36.338,36.338,0,0,0,3.164-2.223c.97-.942,1.438-2.237,2.408-3.044.509.557,6.436-4.476,7.9-6.178.734-.761,1.538-2.357,2.249-3.159.453-.512,1.655-1.271,2.857-2.562a106.5,106.5,0,0,0,7.505-8.663c-.7,1.085-1.067,2.235.65.55,1.99-2.6.031-.806.376-1.684,1.965-2.134,2.917-3.8,4.038-4.585.855-.56.07.337,1.3-.917a4.641,4.641,0,0,0,.8-1.31c1-1.291,3.063-2.859,2.732-3.681.3.687,1.689-1.124,2.609-1.847a27.882,27.882,0,0,1,5.26-8.444c.094-.09.281.255.352.249.837-.131,2.587-3.528,3.589-4.937a28.611,28.611,0,0,0,1.862-2.421c1.025-1.629,1.643-3.289,2.587-4.679.813-1.2,1.966-2.327,2.89-3.591,1.288-1.95,2.923-4.464,4.084-6.445,1.085-1.872,2.084-3.823,3.012-5.794.875-2,1.75-3.97,2.735-5.8,2.416-4.292,4.768-9.3,6.411-12.931a141.264,141.264,0,0,0,7.973-18.876c.668-1.831,1.149-.739,1.818-2.57-.422-2.512,1.452-6.04,2.653-9.533.925-3.034,1.359-4.794,2.171-7.278.518-1.591,1.049-3.56,1.5-5.342.389-1.8.726-3.4.9-4.215.206-.8.691-1.832.753-2.163.363-1.936.208-3.441.636-5.3,1.069-5.191,2.959-10.611,3.271-15.561-.49,1.847-1.265,4.2-1.6,5.1l-.709,1.4c-.386,1.525.2,4.538-1.011,5.193.912-2.813.3-4.176.661-6.79.188-1.341.539-1.644.784-2.922.379-1.807.239-3.038.5-4.5.266-1.591.68-2.938.853-4.444.161-1.446.033-2.4.107-3.789.094-.855.836-4.333.027-3.785-.669,4.331-1.342,8.681-1.834,11.882-.524,3.725-1.35,7.356-1.916,11.052-.551,3.7-1.246,7.394-2.094,11.13-.6,2.685-1.435,7.033-1.815,8.08-.651,2.033-1.7,3.746-2.337,5.588-.76,2.151-1.318,4.62-2.013,7.107-.729,2.47-1.452,4.988-2.28,7.308-.513,1.436-1.04,2.125-1.454,3.473a35.056,35.056,0,0,1-1.257,4.345c-.415.957-1.541,2.263-2.023,3.258-.788,1.6-1.4,4.046-2.392,6.332-1.546,3.319-2.936,5.607-4.017,8.089-.611,1.416-.77,2.17-1.4,3.5-.84,1.593-2.029,2.975-2.844,4.47-.728,1.335-1.692,3.637-2.63,5.419-1.066,2.151-2.4,4.127-3.363,5.884a155.916,155.916,0,0,1-8.545,13.313c-1.227,1.858-1.919,3.357-3.154,5.146-1.924,2.617-4.15,5.057-6.144,7.675-1.307,1.644-1.92,3.1-3.471,4.941-1.912,2.348-4.43,5.166-6.37,7.467-2.331,2.82-4.786,5.3-7,7.849s-4.426,4.96-6.759,7.217c-2.1,2.112-4.589,4.077-6.72,6.131-1.065.955-1.076,1.275-2.085,2.194-1.544,1.387-3.673,3.139-5.191,4.423-2.236,1.886-3.189,2.926-5.138,4.481-1.353,1.108-2.827,1.99-4.244,3.2-1.059.9-1.834,1.807-2.787,2.56-.812.615-1.39.737-2.644,1.569a10.435,10.435,0,0,1-1.7,1.517c-1.3.886-2.769,2-3.663,2.7.465-.358-2,1.472-1.833,1.355-.69.463-1.652.7-2.084,1.007-1.149.869-2.788,2.273-4.241,3.185-1.355.853-2.165,1.141-3.291,1.926-2.907,1.99-5.443,4.107-7.828,6.036-3.586.715-6.723,3.381-12.17,6.352-1.5.788-5.4,2.755-7.51,3.716-1.243.569-2.018.577-2.891,1.044-.451.237-.432.8-1.85,1.383-1.714.723-1.428.187-3.642,1.225-2.552,1.2-5.124,2.573-7.765,3.887a53.889,53.889,0,0,1-8.279,3.117c1.229-1.707-1.309-.819-1.537-1.647a36.525,36.525,0,0,1-5.241,2.091c-1.676.429-3.05.612-3.542.366,3.385-1.257,6.677-2.475,9.912-3.679a68.092,68.092,0,0,0,9.057-3.718c1.28-.67,2.088-1.37,3.228-1.96.864-.443,1.415-.331,2.829-1.078.83-.44,1.056-.967,1.852-1.319a9.411,9.411,0,0,0,1.562-.265c5.776-2.315,5.211-4.127,8.711-5.944.853.133-2.421,2.5.522.914-.351-1.436,1.686-.635,1.442-.518a36.183,36.183,0,0,0,4.389-2.885c3.9-2.686,9.9-5.753,13.952-8.747,3.856-2.749,7.414-5.8,11.11-7.574-.9,2-6.739,4.17-6.133,5.543,1.674-1.548,3.608-2.294,4.358-2.922,1-.832,1.038-1.246,2.155-2.116,1.67-1.294,4.448-2.492,5.288-4.164-1.205.78-2.636,1.847-2.8,1.277,2.109-2.339,4.718-3.265,7.135-5.4.833-.715,1.7-1.871,2.6-2.682,1.679-1.522,4.221-3.247,6.461-5.044.574-.5.5-.742.954-1.154a19.121,19.121,0,0,0,2.753-2.494,86.754,86.754,0,0,1,6.568-6.017c.072-.063.617.183.977-.082a8.256,8.256,0,0,0,1.952-2.251c-.659.625-1.287,1.2-1.357.759,2.508-3.43,7.485-7.542,9.656-10.239.7-.814,1.384-2.1,2.152-3.023.582-.693.881-.606,1.649-1.506,2.538-2.836,5.115-6.183,7.867-9.49a125.3,125.3,0,0,0,7.657-10.2c.6-.867.446-1.21.959-2.017a10.01,10.01,0,0,0,1.487-1.659c.292-.326,1.8-3.809,1.841-2.316,1.818-2.435-.1-1.707,1.719-4.137,1.636-1.442,3.74-5.021,5.517-7.808.666-.979,1.337-1.081,1.878-2.314-.673-.991,2.178-4.2,3.376-6.527.572-1.248.857-2.991,1.493-4.183.412-.786,1.4-1.943,2.091-3.041.674-1.07,1.7-2.709,2.251-3.8.755-1.543,1.067-3.312,1.809-4.816.7-1.444,1.495-2.464,2.252-3.8.5-1.736-1.151.931-.471-1.007,1-1.711,1.7-4.085,2.923-6.7.659-1.365,1.1-1.614,1.778-3.219.411-.963.746-2.316,1.189-3.459,1.35-3.567,3.065-9.027,4.462-12.376a50.009,50.009,0,0,0,1.956-4.745c.31-1.045.382-2.608.638-3.628.219-.914.875-2.076,1.25-3.442.311-1.155.326-2.443.569-3.632.193-.841.814-2.281,1.076-3.487a11.909,11.909,0,0,1,.316-2.18c.325-1.225.668-1.618.906-2.783.281-1.457.2-2.42.418-3.652.228-1.25.85-2.17,1.115-3.495.187-.915,0-2.187.135-2.951.2-1.151.682-2.37.9-3.538,1.188-7,2.157-16.646,2.715-24.644.068-.834.52-2.684.537-3.607,0-1.656-.361-1.386-.3-2.951.055-1.374.272-1.6.339-2.9.061-1.113-.127-2.51-.09-2.924.125-1.349.481-1.438.553-2.9a22.839,22.839,0,0,0-.389-2.933c.017-.61.134-4.554.175-5.831.006-3.081-.055-6.915-.365-11.106-.211-4.2-.462-8.758-1.05-13.267-.458-4.518-1-9-1.792-13.027-.729-4.032-1.3-7.663-2.125-10.424-.342-1.293-1.072-2.926-1.326-4.206a5.269,5.269,0,0,0,.27-.8c.1-1.853-.748-3.464-1.056-5-.41-1.567-1.272-4.841-1.679-6.371-.551-2.086-.969-4.618-1.476-6.419-.2-.743-.939-1.685-1.281-2.692-.3-.849-.08-1.032-.464-2.146a248.677,248.677,0,0,0-8.977-24.036c-.921-1.932-1.973-4.14-2.844-5.974-1.018-1.957-1.955-3.387-3-5.1-1.875-3.2-3.14-6.237-4.326-7.686-.128-.162-.262.258-.38.182s-.71-1.181-.843-1.213c-.383-.094-.334,1.088-.443,1.019-.88-.529-2.02-2.912-2.25-2.131a14.053,14.053,0,0,0,1.307,4.989c.554,1.258,1.626,2.446,2.331,3.7.639,1.156.553,1.55,1.1,2.677.375.795.682.842,1.137,1.872.558,1.238.416,1.569.957,2.731.749,1.615,1.914,3.4,2.71,5.134,1.319,2.69,2.541,6.276,3.776,9.376.964,2.352,2.163,4.5,2.958,6.627.66,2.03,1.118,3.44,1.789,5.493,3.816,9.921,6.468,25.518,8.729,34.195.217.96.692,1.739.877,2.776.608,3.836,1.046,8.554,1.364,12.154.125,1.1.647,2.459.809,3.533.146.993.07,2.654.172,3.6.313,2.333.483,5.419.605,7.875.258,4.416,1.141,9.088,1.145,13.645.02.983-.188,2.476-.186,3.6a100.277,100.277,0,0,1-.268,10.784c-.141,1.3-.482,2.208-.582,3.562-.084,2.414-.176,5.025-.2,5.744-.378,3.275-1.188,4.037-.384,6.46-.238,2.534-1.137,4.074-1.613,6.3-.087.425-.062,2.3-.3,3.573a12.315,12.315,0,0,1-.828,2.772c.247-2.183.6-5.28.94-8.237s.42-5.8.571-7.432c.177-2.026.372-4.3.552-6.442.122-2.152.145-4.183.1-5.691-.045-1.145-.418-1.845-.522-2.887-.041-.774-.094-1.722-.12-2.149-.227-2.7.419-3.553.3-5.7-.115-2.038-.718-4.134-.9-6.411-.118-1.633.094-3.646-.16-5.686-.082-.756-.478-1.764-.594-2.824s-.029-2.541-.2-3.549a36.954,36.954,0,0,0-2.053-6.958c-.744.228-.116,2.225-.624,2.163-.179-.015-.474-3.121-1.078-2.026a64.712,64.712,0,0,0,.5,9.8c.179,2.572.344,5.552.354,7.71.036,1.007.4,1.159.437,2.093.035.8-.213,1.441-.2,2.808,0,2.193.464,4.671.429,7.027-.046,2.334-.291,4.689-.3,7.014-.011,1.367.25,2.747.244,4.246-.175,3.988-.979,8.328-1.16,12.607-.111,1.362-.008,2.778-.165,4.23-.348,2.969-.932,6.094-1.327,9.059-.273,1.652-.239,3.116-.521,4.917-.426,2.563-.9,5.252-1.561,7.918-.7,2.659-1.407,5.32-1.974,7.912-.476,2.49-1.306,5.694-2.123,8.828-.836,3.125-1.5,6.218-2.223,8.293-.393,1.216-.936,1.985-1.147,2.6a15.386,15.386,0,0,1-.536,2.812c-.306.843-.6.836-.908,1.923-.276.959-.189,1.794-.537,2.816a13.143,13.143,0,0,0-.995,1.906c-1.793,4.949-4.766,11.574-6.817,16.341-.484,1.214-.573,2.231-1.116,3.391a55.977,55.977,0,0,1-2.944,4.882c-.83,1.465-1.48,3.175-2.466,5.114-.447.877-.85,1.034-1.517,2.413-.944,1.864-1.432,2.363-2.508,4.294-.512.9-.445,1.211-1.261,2.549-.85,1.378-1.926,2.736-2.723,4.166-.614,1.119-.678,2.09-1.391,3.319-.331.547-.849.952-1.359,1.665-2.049,2.81-4.57,6.8-7.378,10.568-2.691,3.85-5.4,7.666-7.555,10.277-.559.713-.868.593-1.525,1.526-.071.111,0,.635-.119.82-1.391,2.293-3.6,3.82-4.927,5.184-1.051,1.15-1.9,2.648-3.032,3.995a91.564,91.564,0,0,1-6.518,6.641c-2.667,2.6-5.193,5.958-7.858,8.34-.821.739-1.981,1.476-2.812,2.259-1.6,1.558-3.272,3.175-4.931,4.783-1.675,1.58-3.425,3.055-5.092,4.464-.879.732-2.15,1.488-2.369,1.667a20.342,20.342,0,0,1-2.09,1.984c-.624.456-1.542.743-1.962,1.016a20.817,20.817,0,0,0-1.61,1.447c-1.082.831-1.42.751-2.446,1.542-1.841,1.446-3.837,3.023-5.786,4.552-2,1.45-4.023,2.8-5.883,3.9-.707.413-1.855.7-2.643,1.247-.067.064-1.412,1.4-1.565,1.544-.827.659-2.277,1.321-3.058,1.912-.945.739-1.149,1.765-2.657,2.55a28.267,28.267,0,0,0-7.026,3.32c-2.693,1.466-5.643,3.139-8.49,4.6-2.309,1.19-4.805,2.133-7.323,3.192-.991.438-2.054,1.2-3.2,1.711-1.2.536-1.6.475-2.717,1.028-1.712.817-3.219,1.993-5.116,2.741-3.029,1.272-6.165,2.257-9.519,3.618-2.947,1.216-5.012,2.154-7.439,2.9-1.319.387-2.219.323-3.583.8-.746.265-2.386,1.226-3.288,1.594-4.594,1.578-11.183,2.91-14.049,3.856-.727.221-.7.612-1.3.743-.439.1-2.052.139-2.944.274-3.75.542-6.472,1.6-9.225,2.153-1.51.3-3.185.4-5.062.738-2.329.42-4.076.907-5.008.946-.433.021-.47-.643-.875-.684-.582-.04-2.281.342-2.9.246-.251-.036.179-.38-.072-.41a40.552,40.552,0,0,0-5.192-.336c-1.359.009-2.995-.158-3.668-.118-.846.041-2.045.4-2.85.392-1.683-.062-2.158-.315-3.669-.3-1.118.011-2.451.307-3.582.326-1.416.024-1.8-.206-2.909-.156a18.916,18.916,0,0,1-5.047-.072c-.835-.118-1.513-.162-2.177-.324-1.128-.287-.051-.833-.793-1.219a25.609,25.609,0,0,0-5.049-1.035c-.983-.075-1.156.327-3.534.326a27.892,27.892,0,0,0-2.846-.227c-1.516.035-3.139.333-4.98.39-4.556.284-11.351-.27-16.356-.65a13.715,13.715,0,0,1-2.1-.6c-1.2-.218-2.726-.186-4.245-.423-1.408-.225-2.45-.62-3.488-.764-1.495-.227-2.965-.178-4.244-.459-1.566-.32-2.656-.766-4.152-1.035-2.941-.553-5.59-.672-8.414-1.274-2.613-.611-5.021-1.54-7.53-2.1-1.425-.332-3.155-.534-4.164-.823-1.388-.429-2.163-.92-3.347-1.245-3.184-.889-6.175-1.385-8.916-2.183-1.251-.417-2.2-1.022-3.272-1.4-2-.652-5.785-1.9-6.027-1.979-.608-.176-.963-.04-1.42-.2-1.178-.381-2.118-1.062-3.214-1.5-3.086-1.317-5.077-1.661-7.317-2.519-1.39-.528-2.05-1.131-3.158-1.6-1.76-.709-4.432-.743-5.223-2.076,2.369-.272,6.737,2.311,10.656,3.569,2.316.806,4.384,1.191,6.7,2.085a29.538,29.538,0,0,0,3.284,1.237c2.944.8,7.076,1.361,9.6,2.161,1.351.406,2.442,1.029,3.968,1.414,4.621,1.135,9.362,1.862,13.766,2.667,2.614.523,5.03,1.443,7.488,1.861.569.08,2.278-.061,2.841,0,2.279.221,6.2.77,8.3,1.226a21.871,21.871,0,0,0,2.74.726c.786.066,1.37-.429,2.156-.414-.461-.006.584.265.678.279a27.449,27.449,0,0,0,5.6.138c7.141.28,15.1.992,23.006.913,3.4.075,6.354-.39,9.743-.423,1.2-.005,2.3.115,3.488.056,2.339-.075,4.4-.56,6.913-.87,1.009-.107,2.474-.026,3.489-.106,2.291-.23,4.882-.514,7.581-.983,1.3-.2,1.55,0,2.79-.181a25.182,25.182,0,0,1,2.713-.592c1.161-.138,2.382-.1,3.479-.269,2.531-.353,4.486-1.256,6.75-1.616,1.565-.28,3.151-.269,4.866-.491,4.613-.564,9.4-2.013,12.9-2.747,1.281-.306,1.438-.55,2.637-.878,3.373-.931,6.688-1.4,9.444-2.327,1.111-.4,2.194-1.02,3.18-1.408.9-.316,2.462-.44,3.415-.745,1.258-.4,2.513-1.138,3.856-1.561,1.418-.455,3.081-.684,4.734-1.211,6.546-2.356,12.171-4.91,17.964-7.393,1.533-.645,3.919-1.658,5.763-2.437.971-.365,2.3-.864,3.278-1.232.807-.351,1.65-.928,2.46-1.294,1.059-.482,2.318-.813,3.287-1.251,4.534-1.886,9.744-4.9,13.711-6.907a51.4,51.4,0,0,0,10.224-7.176c-.77-1.355-3.4-.579-2.569-2.351,2.226-1.363,4.117-2.607,5.844-3.6.784.233.637.031.645.834,2.989-1.837,6.61-2.826,10.132-6.07a15.273,15.273,0,0,0,1.321-1.636c.62-.67,1.531-1.291,1.994-1.9.939-1.235.016-1.392.216-1.819,1.1-2.165,3.726-3.926,6.269-6.291,1.008-.914,3.2-3.1,3.383-3.35.156-.213.806-3.027.806-3.027.021-1.183-.965-1.035-1.21-1.2s.336-.754.016-.923c-.478-.259-1.532.093-1.06-1.039-1.968,1.546-4.024,1.97-6.425,3.87-.65.5-2.045,2.185-3.775,3.717a30.5,30.5,0,0,0-3.962,3.534c-.9.962-1.367,1.6-2.3,2.431-1.526,1.349-3.164,2.514-4.157,3.327-1.34,1.179-1.96,2.375-3.233,3.432-.322.263-1.987,1.162-2.819,1.82a38.278,38.278,0,0,1-4.929,3.456c-3.177,1.945-5.819,4.16-8.266,5.712-1.224.708-2.373,1.083-3.585,1.866-1.262.816-2.167,1.755-3.245,2.41a22.444,22.444,0,0,1-3.681,1.7c-1.122.584-1.925,1.362-3.367,2.25-2.951,1.808-5.836,3.005-7.753,4.088-.861.459-1.945,1.274-3.473,2.082-.041.017-.837.365-1.773.768s-1.987.9-2.53,1.222c-.9.535-1.268,1.215-2.179,1.711a32.735,32.735,0,0,1-3.193,1.155c-1.928.82-3,1.778-4.868,2.417-1.622.456-1.772-.283-4.093.753-1.845,1.019.3.447-.935,1.293-1.366.487-1.994.328-3.353.732-.753.216-.861.533-1.851.862a13.592,13.592,0,0,0-1.99.468c-1.158.493-1.215.877-2.421,1.292a30.154,30.154,0,0,1-3.352.7c-4.359,1.032-6.521,2.288-8.993,3.065a14.247,14.247,0,0,1-4.055.672c-1.432.311-2.4.983-3.856,1.353-1.318.33-3.181.361-4.728.706-.935.294-5.459,1.292-6.615,1.566-1.51.374-2.747.966-3.932,1.171-.048,0-1.782-.025-2.088-.025-4.686.237-9.321,1.436-14.836,2.107-2.529.192-4.675.108-6.811.4-1.387.191-2.607.65-4.037.791-4.785.2-9.874-.192-15.712.142-1.411.076-2.061.392-3.4.4-.774,0-1.454-.4-2.735-.433-.945-.026-2.712.217-3.415.193-2.325-.182-4.53-.237-6.828-.367l-5.243-.372c-1.674-.185-3.309-.357-4.976-.39-.316.518-.55.851-4.172.424-1.224-.52-1.23-.282-.6-.892-6.014-.961-6.819.067-11.686-.546a7.667,7.667,0,0,0-5.275-1.716,7.313,7.313,0,0,1,2.621.914c-4.1.039-6.212-1.7-8.593-2.5-3.31.308-7.6-1.765-11.387-2.381-.888-.144-1.787-.026-2.774-.238-3.587-.81-6.979-2.334-11.141-3.4a52.336,52.336,0,0,1-5.857-1.914c-1.22-.441-1.507-.27-2.661-.693a13.285,13.285,0,0,0-1.873-.867c-1.811-.515-3.078-.383-4.739-1.029-.9-.335-2.241-1.092-3.1-1.461-1.974-.845-3.858-1.318-5.823-2.078-2.853-1.145-6.171-3.034-7.434-3.526-.8-.33-1.809-.369-2.681-.75-1.384-.585-2.644-1.456-4.237-2.255-.849-.413-2.254-.918-3.154-1.377-1.892-.959-3.317-2.025-5.4-2.976-2.4-1.2-3.824-2.248-5.951-3.374-1.157-.617-2-.757-3.194-1.339A57.127,57.127,0,0,1,167.647,448c-2.39-1.649-4.783-3.152-6.974-4.568-.731-.446-1.635-.672-2.481-1.235-1.017-.67-2.314-1.888-3.246-2.531-2.967-1.949-5.771-3.858-8.451-5.852-.924-.7-1.635-1.511-2.572-2.259-.839-.65-1.849-1.168-2.785-2-1.512-1.3-2.989-2.874-4.534-4.163-2.106-1.648-5.973-4.743-8.882-7.507-1.244-1.16-2.321-2.567-2.831-2.957-1.259-.96-1.207-.267-2.39-1.493-.684-.7-1.211-1.746-2.058-2.752-2.027-2.454-3.956-4.29-5.864-6.277-1.869-2.016-3.857-4.062-6.213-6.719-2.325-2.494-3.9-5.262-6.24-8.087-.986-1.243-2.047-2.594-3.123-3.949-.995-1.411-2-2.833-2.945-4.167-1.893-2.666-3.574-4.951-4.523-6.061-.637-.822-1.517-.9-1.992-1.968.518.064.024-1.01-.552-2.055.174.306-1.889-2.92-1.453-2.3-1.351-1.931-2.063-2.071-3.113-3.712-.82-1.323-.974-2.906-1.81-4.441-.384-.723-1.758-2.826-2.524-4.044-.544-.861-.794-.975-1.534-2.271-.613-1.046-.383-1.437-.895-2.587S76,349.073,75.046,347.28c-.935-1.784-1.944-3.708-2.92-5.734-.884-2.06-1.805-4.2-2.729-6.357-1.957-4.272-3.6-8.725-5.317-12.689-.508-1.166-1.331-2.4-1.845-3.667a16.924,16.924,0,0,1-.442-1.99c-1.39-5.344-3.356-8.228-4.037-12.2-.171-1.03-.035-1.673-.278-2.717-.472-2.054-1.633-5.311-1.771-5.818a9.027,9.027,0,0,0-.3-2c-.367-1.413-1.032-2.964-1.388-4.536-.418-1.845-.654-4.424-1.051-5.978-.717-2.853-1.853-5.022-1.967-7.882.458-.271.543,1.891.952,1.912-.7-3.391-.5-4.871-1.039-8.011-.228-.911-.83-.008-1-1.245-.618-3.572-.46-6.559-.87-10.074-.178-2.442-.889-6.616-.936-8.724,0-1.431.4-3.021.423-4.729,0-1.093-.367-2.1-.447-3.361-.174-2.279-.34-10.227-.14-10.785.169-1.194.934-1.787,1-3.319-.25-.119-.613.083-.618-.709.927-4.122,1.381-12.24,2.338-18.011.167-2.4-1.108.852-.464-2.775.257-1.39.426,1.044.944-.547-.14-2.21.764-3.8,1.062-5.942M167.318,433.039c1.113-.116,3.7,1.682,3.882,2.386C171.34,436.161,168.435,434.9,167.318,433.039Zm-10.375-7.791c-.25.834-4.1-1.774-5.02-3.1C153.261,421.91,155.059,424.3,156.943,425.248Zm-41.658-37.981c1.293,1.743,2.813,3.287,4.207,4.951.113.814-3.077-2.518-3.491-3.04-.743-.989-1.23-2.021-.721-1.912M58.6,262.9a15.483,15.483,0,0,1,.2,3.9C58.273,267.083,57.477,261.777,58.6,262.9Zm10.372-104.3-1.092,3.088C66.92,162.422,68.685,157.425,68.973,158.593ZM61.528,178.3c.4-1.3.825-4.517,1.422-3.708C62.6,176.17,62.365,178.356,61.528,178.3Zm-7.261,45.432c-.8-.481-1.174-2.348-.507-4.669C54.348,219.681,54.455,221,54.268,223.731Zm43.04-128.5L94.52,99.008l-.36-.235L96.954,95l.348.243ZM85.362,111.462l-.556-.327a10.231,10.231,0,0,1,1.928-2.767,8.639,8.639,0,0,1-1.371,3.089m.639-3.53c-.315-1.584,3.824-7.273,5.281-10.282.364.137-.085.941.336,1.037.24.481,1.7-2.563,1.707-1.292C91.049,100.763,88.99,104.409,86,107.927Zm14.689-22.753c.007-.478,1.229-1.6,2.153-2.632.877-.982,2.326-3.248,2.48-2.368-.947,1.405-3.983,5.919-4.627,5M65.06,144.31c-.966.313.755-2.86,1.087-3.224C66.658,140.945,65.614,144.225,65.06,144.31ZM203.182,472.192c-.488.707-4.168-1.012-6.1-1.848-.524-.221-.534-.489-1.187-.763-.976-.4-1.252-.333-2.014-.676-1.766-.735-3.527-2.047-6.295-3.106-.957-1.179,1.88.649,2.692.9.141.044.06-.425.189-.373,1.2.509,2.325,1.417,3.685,2.012,2.774,1.268,6.12,2.284,9.021,3.85M62.489,145.493c.7-4.1,3.049-2.9,0,0ZM44.768,225.125c-.685-2.165-.782-7.693.039-11.664.061-.3.743.354.85.1.162-.4.449-5.963.737-3.348.447,1.07-.311,1.842-.521,3.371-.5,3.59-.594,8.724-1.106,11.551M47.4,201.391c-.485.219-.495-.548-.754-.8-.247,1.787.322,1.633.154,3.478a39.257,39.257,0,0,1-1.11,4.678c-.855.06.016-3.579.051-4.826.113-2.159.823-6.559,1.272-9.523.109-.9.539-2.983-.107-2.818.313-2.138.914-1.667,1.285-3.247.606-1.813.016-2.053.229-3.462.4-1.979,1.507-4.071,1.9-5.9.751-3.549.659-6.519,1.628-10.242.829-3.329,1.923-5.189,3.011-8.444.506-1.4.556-2.646.972-4.03a22,22,0,0,1,1.118-2.531c.375-1.048.19-1.2.488-2.024.457-1.266.845-1.749,1.132-2.523.516-1.348.773-2.763,1.171-3.979.542-1.659,1.179-2.992,1.632-4.555.22-.762.42-2.059.653-2.73.437-1.171,1.181-2.394,1.756-3.765a23.739,23.739,0,0,1,.975-2.6c.8-1.493.9-1.045,1.756-2.24.357-2.145,1.676-4.323,1.879-5.239a18.257,18.257,0,0,1,1.758-3.775c.492,1.272,1.2-.7,2.758-2.468.924-1.055,1.136-.913,1.53-1.525,1.8-2.507,3.1-6.765,5.116-8.187.667.781-1.456,2.9-2.274,4.253-1.145,1.875-2.6,4.508-3.746,6.576-1.152,1.962-1.588,1.915-3.278,5.282-.486.963-.244,1.59-.714,2.713-.6,1.511-1.576,3.224-2.638,5.589-.774,1.795-1.655,3.822-2.476,5.716-.762,1.922-1.433,3.738-2.042,5.04-.462,1-1.295,1.98-1.7,3.021-.707,1.834-.688,3.582-1.2,5.409a7.058,7.058,0,0,0-1.313,2.44c-.594,1.57-.816,2.842-1.393,4.589-.462,1.394-.814,1.624-1.121,2.52-1.346,4.65-4.037,12.9-5.453,20.519-.249,1.22-.22,2.288-.4,3.412-.32,2.964-1.111,6.421-1.608,9.433-.44,2.368-.371,4.475-.883,6.776m-2.754,38.755c-.664.468-.921-3.931-.466-4.791C45.008,234.837,44.493,238.6,44.659,240.154ZM81.247,106.661c-.9.092.129-1.1,1.129-2.534.645-.952,2.508-4.19,2.647-3.214-.857,1.835-2.109,2.865-3.775,5.743m22.928,296.181c1.213,1.867,2.75,2.571,4,3.96.735.816.986,1.664,1.977,2.913a22.063,22.063,0,0,0,2.1,1.876,25.889,25.889,0,0,1,1.628,2.3c.97.984,2.853,2.248,4.345,3.62a21.723,21.723,0,0,0,2.341,2.6c.533.437.776.034,1.837,1.151.7.742.872,1.672,1.589,2.365,1.507,1.453,3.39,2.618,4.89,4.022,1.1.965.849,1.366,1.707,2.29.987,1.056,1.632,1.052,2.278,1.673.43.416.29.762,1.325,1.686a43.117,43.117,0,0,0,4.024,2.878c.957.7,4.864,3.887,7.094,5.768,1.044.88.95,1.209,1.412,1.631,1.213,1.128,1.994,1.141,4.017,2.882A70.142,70.142,0,0,0,159.1,453c.444.273.8.2,1.32.582a2.531,2.531,0,0,0,2.029.789c1.5.55,1,1.244,2.048,2.037,1.022.776,1.971.969,3.1,1.726,1.03.715,1.585,1.334,2.836,2.151,2.223,1.443,5.579,3.038,7.41,4.219,1.325.9,2.8,2.143,4.094,2.876,1.648.919,3.539,1.513,5.178,2.4,1.171.63,1.241.993,2.344,1.666,1.31.813,1.84.583,2.683,1.031.55.274.968.859,1.773,1.252,3.952,1.915,8.088,3.66,12.462,5.374,2.033.847,4.518,2.239,6.494,3.028,1.847.7,4,1.117,6.771,2.354.768.339,1.708.994,2.568,1.326a27.152,27.152,0,0,0,2.779.744c1.369.472,6.124,2.108,8.821,3.044-1.842.5-4.263-.208-7.147-1.224-1.024-.349-1.826-.966-2.619-1.263-2.026-.726-4.069-1.5-6.119-2.107-1.8-.559-3.714-.6-5.657-1.316-.612-.234-2.16-1.278-2.522-1.451-6-2.656-17.832-6.8-25.169-10.7-2.808-1.443-3.91-2.381-6.419-3.262-1.212-.45-1.234-.424-2.087-.691a39.563,39.563,0,0,1-7.734-3.921c-1.328-.854-1.928-1.757-3.374-2.745-1.258-.834-2.541-1.2-3.872-1.961-1.65-.94-3.354-2.371-5.357-3.633-2.145-1.427-4.915-3.268-7.194-4.779-2.727-1.733-4.831-2.761-7.644-5.386-1.2-.865-1.026.186-2.235-.675-3-1.694-2.552-2.358-4.286-3.852-1.114-1.013-3.828-3.55-5.882-5.292-.937-.8-1.935-1.358-2.867-2.183-.981-.82-2.029-2.314-2.9-3.2-1.288-1.262-3.3-2.63-4.99-4.137-4.85-4.2-9.026-9.322-10.739-10.583-.835-.7-1.655-.6-2.6-1.541-2.082-2.768-2.968-5.031-6.583-8.538a25.533,25.533,0,0,1-2.177-1.933c-.776-.908-1.053-1.652-2.045-2.947-1.132-1.58-4.727-5.14-7.152-8.987-.612-.948-1.1-2.281-1.713-3.156-.738-1.041-1.651-1.7-2.419-2.691a24.918,24.918,0,0,1-3.037-4.846c-1.2-2.8-5.122-7.543-7.526-12.151-1.653-3.237-4.925-9.09-7.628-14.52-.149-1.243.27-.059.766-.359-.9-2.078-1.345-1.8-1.59-3.177-.766-.823-1.349-.572-2.369-2.831.26-.541.888,1.092,1.22,1.019-.173-1.259-2.2-4.947-3.031-7.189-.718-1.583-.713.126-.305.891-.841-.718-2.055-4.5-3.046-6.432-.033-.761.455-.917.423-1.678-.2-1.29-.83-1.008-.9-1.173-.356-.859-.31-1.849-.6-2.8-.394-1.278-1.068-2.894-1.5-3.971-.524-1.3-1.08-1.886-1.66-3.176-.519-.98-2.13-5.792-2.42-6.658-.162-.548.018-.746-.228-1.41-.7-1.913-1.425-3.066-1.922-4.6-.983-3.257-1.424-6.835-2.351-10.34-.6-2.138-1.612-5.015-1.628-6.861-.05-2.176-.548-2.126-1.234-4.791-.121-.483-.1-1.672-.379-2.8-.239-1.038-.5-1.206-.614-2.041-.531-3.5-.557-7.059-1.025-10.523-.171-1.055-.586-2.442-.673-3.464-.305-3.5-1.143-11.4-1.209-15.412-.13-2.2-.288-4.8-.439-7.3-.106-2.5-.061-4.911-.06-6.733.028-2.5.35-1.189.627-2.1.185-2.221-.5-4.028-.381-6.314.035-1.144.522-2.351.582-3.484.095-1.913-.239-4.2-.159-6.327.052-1.463.387-.978.643-2.758-.045.3.1-3.541.175-4.2-.015.127.755-4.042,1.175-3.394-.13,1.9-.079,3.362-.307,5.581-.069.678-.5,2.553-.539,3.456-.026,1.76.455,3,.419,4.917-.007.43-.491,1.3-.519,2.07-.053,1.577.226,3.154.214,4.9.017,2.6-.13,5.4.012,8.363.167,2.315.5,4.591.778,6.948.075.869-.051,2.775-.017,3.479.15,6.5,1.638,13.678,2.349,19.347.13,1.021.134,2.292.313,3.463.228,1.38.843,2.5.975,3.375.182,1.214-.033,2.425.119,3.5.182,1.266.716,2.832.939,4.08.26,1.725.235,3.375.382,4.889.634,2.68.542-.629,1.123,1.2.424,4.054,2.157,7.792,3.2,11.4.291,1.023.212,2.407.474,3.466.292,1.225,1.262,3.022,1.777,4.574.163.543.3,2.347.439,2.766.412,1.213,1.223,2.607,1.686,3.863.9,2.583,1.7,5.345,2.787,7.888.56,1.359,1.442,2.825,2.125,4.422.769,1.833,1.31,3.812,2.068,5.175.572,1.09,1.2,1.426,1.716,2.323,1.988,3.305,2.773,6.9,4.91,10.768.506.968,1.365,1.862,1.945,2.938.493.923.842,2.265,1.364,3.2.78,1.388,1.451,2.123,2.313,3.528.949,1.61,1.6,3.185,2.559,4.952.467.866,1.352,1.979,1.9,2.933.69,1.2.421,1.57.659,2.03.518,1.038,1.415,1.4,1.829,2.164.3.519,0,.78.76,1.982,1.892,2.984,4.18,6.32,5.575,7.219a33.526,33.526,0,0,0,4.832,6.832c.8.965,1.75,1.815,2.356,2.6.742,1.02,1.29,2.069,2.36,3.454,1.431,1.828,2.357,2.787,3.448,4.384,1.34,1.96-.59.182,1.12,1.775.243.278,2.666,2.741,3.741,4.157,1.788,1.995.034.3-.032.92M249.977-10.772c1.081-.8,1.784-.537,4.137-.994C254.213-11.2,250.931-10.66,249.977-10.772ZM70.971,117.543c2.039-3.363,3.686-7.729,4.87-7.638C75.078,111.514,71.716,118.258,70.971,117.543ZM272.924-15.592a7.648,7.648,0,0,1,2.743-1.08,17.012,17.012,0,0,1,2.876-.048c2.742-.289,6.461-1.337,8.544-.839.118,1.029-2.89.67-5.657,1-3.165.307-6.471,1.252-8.507.972M87.725,90.245c-.313-1.069,2.783-5.144,4.282-7.259,2.589-3.272,5.812-6.415,7.542-9.238a35.155,35.155,0,0,1,3.106-3.807c.861-.959,1.611-1.4,2.05-1.945.914-1.141,1.33-2.337,2.346-3.556a75.031,75.031,0,0,1,12.585-11.333c2.087-1.443-.192-.794,1.122-1.869,1.495-1.564,1.792-1.129,3.282-2.694-.151,2.161-4.431,5.276-7.016,7.9-2.038,2.094-4.764,4.854-7.434,7.443-.636.594-2.132,2.033-2.06,1.917-.938,1.1-1.625,2.626-2.331,3.533a14,14,0,0,1-2.039,1.942c-.4.44-.555.959-1.246,1.688-1.643,1.716-2.857,3.087-4.189,4.7-.129.161-.52,1.31-.548,1.346-.4.5-.566.353-.609.407-3.224,3.778-6.008,8.427-8.852,10.819M292.074-18.193c3.889-.461,8.462-.856,11.474-.179a50.8,50.8,0,0,1-6.218.538c-2.472.172-4.787.184-5.261-.36m-150.111,53c-1.218-.056,1.484-1.827,3.02-3.018,1.646-1.33,3.717-2.589,5.217-3.658,1.818-1.358,3.431-3.137,5.423-4.61,2.133-1.8,11.728-7.291,12.885-7.57.451-.106,2.366-1.126,2.584-1.222,1.893-1.124,1.586-1.483,2.839-2.206,1.052-.608,2.135-.892,3.264-1.479,3.295-1.811,7.037-3.844,10.15-5.234,2.911-1.327,6.734-3.884,8.065-2.993-4.174,1.569-7.588,3.731-11.57,5.543a45.875,45.875,0,0,0-4.553,2.06c-1.122.635-2.363,1.694-3.573,2.358-.664.364-2.04.557-2.728.958a21.671,21.671,0,0,1-2.2,1.868c-3.283,2.095-7.875,4.48-12.208,7.224-1.625,1.147-2.966,2.409-4.472,3.477-2.7,1.964-5.6,3.565-7.6,5.149-1.039.777-2.235,1.351-2.965,1.931C142.878,33.9,143.2,34.8,141.958,34.8ZM304.985-18.573c4.043-.164,9.374-.358,15.119-.076,1.4-.028,7.853.628,7.845,1.272-1.017.329-2.234-.232-3.583-.356-2.386-.247-5.791-.1-8.615-.31-1.119-.067-2.642-.362-3.58-.4-1.66-.125-5.752,1.414-7.18-.137m24.424.932c-.119-.993,3.6-.005,5.787.155,2.529.256,5.594.386,7.916.714a7.943,7.943,0,0,1,2.084.727c3.666.368,7.247.234,10.734,1.5-1.814.473-5.153-.6-7.164-.977-1.161-.174-1.238-.008-2.172-.115-1.495-.17-1.921-.527-2.82-.622-.441-.048-1.135.435-1.521.408a14.968,14.968,0,0,1-2.819-.627c-1.291-.222-2.1-.1-3.6-.317a58.147,58.147,0,0,0-6.424-.847M39.732,210.109c-.787-.036-.307-6.071.712-5.545A23.34,23.34,0,0,1,39.732,210.109ZM201.2.03c.672-.9,4.4-2.277,7.176-3.258C208.58-2.489,202.126.312,201.2.03Zm-4.728,1.68c1.525-.683,2.578-1.479,3.983-1.6C201.046.659,196.428,2.773,196.473,1.71Zm17.466-6.422c.215-1.159,2.9-1.5,5.275-2.282C219.276-6.326,215.959-5.482,213.939-4.712Zm-4.815,1.449a5.982,5.982,0,0,1,3.312-1.37C212.555-4.11,210.092-3.3,209.124-3.263ZM361.655-13.635c2.512.075,7.256,1.5,11.358,2.338,2.453.526,4.713.55,6.331,1.588.1.38-.761.152-.875.394C372.941-10.551,365.875-12.487,361.655-13.635ZM406.974-.808c.112-.919,2.687.455,4.221,1.226C410.9.864,408.767-.1,406.974-.808ZM568.9,308.6c.692-2.524,1.319-6.15,2.07-7.543C571.519,301.5,569.7,309.5,568.9,308.6ZM210.486,488.348c1.361.673,4.941,1.356,4.013,1.854C213.106,489.611,209.555,488.834,210.486,488.348Zm338.762-125.64c.2.675.682,1.051.666,1.943C548.732,366.711,547.215,365.678,549.248,362.708ZM232.027,495.788c1.1-.3,3.1,1.089,4.189,1.432C235.062,497.537,232.737,496.146,232.027,495.788Zm17.126,4.347c.05.833-3.883-.646-5.16-.6-.413-.318-1.6-.607-1.282-.953C244.627,498.613,246.572,500.077,249.153,500.135Zm14.468,2.722c.105.928-2.753.178-4.423-.345C259.929,502.271,261.528,502.54,263.621,502.857Zm5.826.856c-.006.842-1.95.268-3.706-.121C265.915,503.159,267.639,503.417,269.447,503.713ZM293.6,506.09l2.942.157C297.1,507.079,292.985,506.859,293.6,506.09ZM107.011,54.748a19.571,19.571,0,0,1,3.216-2.926C110.072,52.769,107.285,56.194,107.011,54.748ZM497.83,432.186c.663.328-.644,2.107-2.23,2.882C495.825,434.359,496.08,433.635,497.83,432.186ZM98.089,64.2c3.253-3.314,5.193-7.015,7.589-8.729,1.022-.145-2.616,3.585-3.884,5.252.114-.138-3.369,4.779-3.7,3.472m-7.811,9.454a52.971,52.971,0,0,1,5.71-7.441C96.552,67.129,91.983,72.4,90.278,73.653ZM336.215,505.615l3.669-.33C340.714,506.054,335.6,506.514,336.215,505.615ZM404.2,490.828a37.259,37.259,0,0,1-4.232,1.246C399.772,491.472,404.649,489.8,404.2,490.828Zm61.883-32.377c1.032.231-2.4,2.036-2.9,2.177C462.651,460.479,465.55,458.238,466.081,458.451Zm6.476-4.672c.56.807-2.617,1.991-3.961,3.185C468.046,456.712,471.861,453.773,472.557,453.779Zm12.559-9.812c1.046.135-2.174,2.263-2.658,2.456C481.92,446.324,484.575,443.8,485.116,443.967Zm16.453-15.189c.817-.8,1.866-2.019,2.19-1.9C504.859,426.831,501.037,430.414,501.569,428.778Zm-71.3,50.548c1.116-.5,2.213-1.033,3.276-1.617C433.316,478.433,430.467,480.324,430.268,479.326ZM573.995,297.338c.376-2.422.842-4,1.521-3.355C575.6,295.105,574.753,298.513,573.995,297.338Zm2.268-8.33c-.2,1.692-.311,3.341-1.1,3.439C575.026,291.337,575.628,288.383,576.263,289.008Zm-9.5,36.057c2.2-4.122,3.006-9.815,4.535-13.626.748.491-.086,3.366-.586,5.055-.78,2.585-1.84,4.019-2.471,7.534C567.783,324.21,567.232,325.332,566.766,325.065Zm5.351-17.864c.313-2.009.739-1.729,1.065-3.433.616.032.186,1.85-.227,3.64-.127-1.27-.284,0-.837-.212m6.183-31.678c.769-.531.043,2.237-.083,3.617-.207,2.253-.374,5.91-1.244,5.624-.02-2.847.939-5.182,1.328-9.246M317.536-25.665c-.522-.809.88-.971,3.015-.884C321.921-26.056,319.585-25.632,317.536-25.665ZM553.873,359.378c-1.526,3.744-2.992,8.719-6.18,13.056-.795.135.619-2.139,1.155-3.477A55.436,55.436,0,0,1,553.873,359.378ZM227.588-16.443c-3.122.779-7.9,2.6-9.96,2.7-.844-.2,5.578-2.376,6.884-2.672C225.9-16.726,227.765-17,227.588-16.443ZM522.735,407.93c.456.369-1.769,2.96-2.577,3.5A7.959,7.959,0,0,1,522.735,407.93Zm37.482-63.075c1.039-.308-.737,3.927-1.568,4.814C558.168,349.347,559.5,346.766,560.217,344.855ZM498.169,435.6c-1.629-.984-5.514,5.351,0,0Zm45.646-57.052c.407,1.64-3.316,5.837-4.806,8.089-.777,1.258-.842,2.447-1.464,3.361-.363.546-1.336,1.394-1.96,2.188-.938,1.23-1.58,2.484-2.241,2.859.44-2.159,3.36-5.369,5.082-7.918.4-.606.841-2.041,1.236-2.637C540.882,382.748,542.558,380.346,543.815,378.551ZM353.7-22.405c.168-.507,2.813.048,3.686.507A6.5,6.5,0,0,1,353.7-22.405Zm-103.263.056c-.5-.42,5.545-1.816,5.086-.962A14.944,14.944,0,0,1,250.439-22.35Zm-15.171,3.277c.082-.743,3.6-1.156,5.651-1.784,3.56-1.112,3.23-1.231,6.524-1.355.836-.022,1.7-.32,1.545.133C244.518-20.975,239.182-19.867,235.268-19.072ZM532.735,395.507c.052.64-.679,1.881-1.62,3.283A3.681,3.681,0,0,1,532.735,395.507Zm-54.889,56.738c.775-.592,1.593-1.128,2.324-1.765C481.658,450.737,477.752,453.678,477.846,452.245ZM292.35-27.18c-1.01-.493,1.132-1.706,1.371-2.563,2.49.19,4.871-.511,7.486-.519,1.537-.009,2.607.376,4.505.44,1.3.041,2.647-.189,4.5-.19,1.447.066,3.571.416,4.488.447,1.52.045,2.219-.224,3.769-.22,2.033.008,5.639.3,8.241.572,1.606.125,3.75.14,4.5.237,1.9.257,3.977,1,5.912,1.222,2.039.322,2.9-.106,5.289.147.342.033,1.473.623,2.173.74.956.158,3.045.257,4.493.448,1.6.176,3.339.655,4.441.8,4.677.756,7.7.68,10.965,2.607A79.077,79.077,0,0,1,376.253-20.5c3.817,1.258,7.434,2.735,10.532,4.07-1.507-.479-2.984-.078-4.553-.465-1.247-.306-3.827-1.525-4.9-1.87-2.7-.848-5.01-.913-8.076-1.59-1.46-.314-3.229-1.034-5.035-1.444-5.526-1.039-14.761-3.022-22.078-3.754-3.575-.547-10.211-.646-15.615-1.176a55.647,55.647,0,0,0-5.926-.657c-2.52-.061-4.747.3-7.459.233-1.477-.025-2.824-.42-4.454-.372-5.651.128-11.088-.06-16.332.333M38.412,307.424a34.262,34.262,0,0,1-1.862-7.028C37.268,300.142,39.56,307.507,38.412,307.424ZM40.62,313.6c-.618.764-1.857-3.107-.862-2.773C40.491,312.128,40.006,311.716,40.62,313.6Zm23.557,55.644c-1.03-1.1-.444-.824-1.443-2.554C63.175,365.818,65.174,369.36,64.177,369.245Zm308.241,133.4c-3.852.651-4.156,1.479-7.145,2C366.348,504.057,371.331,501.523,372.418,502.64ZM508.043,425.9c-.028-.86,1.762-1.556,2.518-2.631C510.874,424,508.719,425.854,508.043,425.9Zm14.911-16.893c.663-.041-2.573,4.38-2.761,3.378A10.976,10.976,0,0,1,522.954,409.01ZM109.218,49.825c-1.155.977-3.324,3.82-3.4,2.806C106.977,51.653,109.158,48.8,109.218,49.825ZM570.295,323.156l.617.188a10.162,10.162,0,0,1-1.084,2.705C569.537,325.765,569.787,324.723,570.295,323.156ZM417.34,489.735c.012,1.465-7.138,3.682-12.3,5.242-1.172.375-1.114.616-2.037.933-.12.038-1.357.259-2.181.534-2.869.935-5.552,2.22-7.769,2.59-.558.105-.929-.34-2.279.228l-.2-.6a15.842,15.842,0,0,1,3.567-1.042c1.545-.362,2.9-.377,4.428-.841,1.788-.557,5.476-2.241,9.054-3.365C410.4,492.432,413.906,491.148,417.34,489.735Zm6.994-2.556c-.987.866-4.612,2.35-4.929,1.723C420.969,488.179,424.222,486.151,424.334,487.179ZM566.227,338.652a23.878,23.878,0,0,1-1.889,6.31C563.533,344.225,564.806,340.46,566.227,338.652ZM432.893,482.745c1.136-.491,2.206-1.106,3.309-1.672C437.257,481.506,432.659,483.864,432.893,482.745ZM545.107,380.981c1.192-2.449,1.592-1.8,2.422-2.823C547.549,379.089,545.253,382.161,545.107,380.981ZM29.4,204.507c-.593.145-.556-1.092-.226-2.972C29.765,201.4,29.728,202.633,29.4,204.507ZM496,440.725c2.656-2.363,3.622-1.942,6.591-4.84,1.032.569-2.217,2.551-3.524,3.779-1.832,1.719-3.414,3.765-4.931,4.465a19.376,19.376,0,0,1,3.541-3.786c.194-1.1-1.882,1.491-1.681.376m-4.507,4.885c3.147-2.507.166,1.633-1.3,1.881C489.629,447.287,492.879,445.435,491.486,445.6ZM35.666,310.388c-.268-1.371-1.42-4.22-.531-3.658C35.728,308.428,36.522,310.272,35.666,310.388Zm440.676,148.23c.907.315-4.211,3.748-3.709,2.471A11.2,11.2,0,0,1,476.342,458.618ZM24.853,229.054c.188-1,.365-1.92.551-2.912C26.325,227.152,25.67,231.626,24.853,229.054Zm444.5,235.083-5.585,3.7C462.836,467.649,469.491,463.233,469.354,464.137ZM50.6,125.087c-.853,1.918-1.676,3.635-2.145,3.066C48.653,126.886,50.136,124.169,50.6,125.087ZM31.865,176.736c.394-1.539.793-5.388,1.813-5.6C32.916,173.717,33,176.921,31.865,176.736Zm16.363-47.084c-.531,1.105-1.038,2.22-1.48,3.363C45.653,133.776,48.043,128.349,48.228,129.652ZM433.972,484.793a25.346,25.346,0,0,1,2.774-1.152c0,.386-.89,1.073-2.475,1.713l-.293-.56Zm10.6-5.507,2.651-1.391C448.159,478.316,444.455,480.268,444.569,479.286Zm-23.417,11.628c.737-.246.409.1.174.384-.323.4-.866.9-3.306,1.788.144-.049-.473-.185-.786.09-.087.081-3.5,2.045-4.177,1.688-.382-.968,7.264-2.85,8.09-3.951M247.369,511.876a21.942,21.942,0,0,1,4.491,1.088C251.551,513.583,246.856,512.474,247.369,511.876Zm35.672,6c-1.1.368-5.349-.456-7.69-.559C276.571,516.859,280.741,517.517,283.041,517.872Zm11.536.573c-.987.84-4.5.357-6.945.051C287.946,517.826,292.079,518.4,294.577,518.445Zm23.113,1.31c3.038-2.238-8.617.09,0,0ZM331.5,518.4l.056.62a13.578,13.578,0,0,1-3.858.1A23.564,23.564,0,0,1,331.5,518.4Zm28.257-3.357c-.269,1.106-4.505,1.668-7.488,1.846C353.774,515.783,356.751,515.9,359.759,515.046Zm-101.375.878c-1.422-.368-4.636-.613-3.727-1.146C255.8,514.679,258.646,515.348,258.384,515.924Zm114.285-3.018c-.192.861-4.835,1.392-7.447,1.958C365.508,514.095,370.8,513.086,372.669,512.906Zm5.237-1.254c.127.562-3.411,1.329-4.436,1.276A11.063,11.063,0,0,1,377.906,511.652Zm22.155-6.283a2.486,2.486,0,0,1,2.318-.365c1.371-.351,3.647-1.932,3.773-.865-1.125.306-2.523,1-3.629,1.264-.185.04.025-.412-.145-.394-.807.09-2.765,1.112-2.318.365m-130.3,13.109c-2.883-.338-4.486-.821-4.487-1.5C267.626,516.768,269.892,517.788,269.756,518.483Zm179-33.538c1.756-.87,3.485-1.824,3.693-1.287C450.577,484.8,448.766,485.656,448.755,484.945ZM52.289,104.325c-1.172-.125,1.3-3.015,2.323-4.759,1.395-2.365,2.758-5.575,3.849-5.634-1.841,4.315-3.595,6.175-6.167,10.393M482.4,463.883c.274.473-1.982,2.084-2.94,2.441C479.2,465.844,481.437,464.238,482.4,463.883Zm27.915-22.5c6.2-6.909-3,.36,0,0ZM45.428,116.935c-.7-.549,1.245-2.813,1.888-4.124.824-1.695,1.591-4.376,2.641-5.448C50.23,109.236,47.285,113.909,45.428,116.935ZM20.42,187.271c.294-2.257-.589.624-.842-.162a34.371,34.371,0,0,0,2.483-7.8c.946-3.426,1.962-7.539,3.049-11.946.966-3.682,2.348-7.195,2.956-9.388.171-.6.272-2.464.451-3.026.488-1.525,1.178-2.092,1.779-3.406.039-.112.855-2.429,1.259-3.565,1.037-2.766,3.234-8.644,4.507-12.044.542-1.576.653-3.672,2.184-6.468.31-.572.536-.26.966-1.235.818-1.692,1.057-3,1.717-4.205.72-1.321,1.136-1.939,2-3.258.467-.712,1.625-3.125,1.867-2.467-.413,2.076-1.627,3.557-2.56,5.47a27.316,27.316,0,0,0-1.08,2.82,8.352,8.352,0,0,1-1.035,1.205c-.678,1.481-.24,1.57-.486,2.249-.32.939-2.709,5.44-3.255,6.828-.515,1.316-.732,2.854-1.294,4.343.13-.374-1.225,3.3-1.009,2.84-.308.64-.607.423-.906,1.283-.746,2.16-1.066,4.437-1.85,6.542-.529,1.355-1.275,2.015-1.771,3.392-.09.232-.391,2.024-.662,2.958-.335,1.17-.6,1.195-.854,2.106a14.159,14.159,0,0,1-.226,1.5,139.7,139.7,0,0,0-3.819,14.59,11.384,11.384,0,0,0-.124,2.291c-.205,1.244-.62,1.54-.819,2.91a10.186,10.186,0,0,1-.008,2.3c.021-.1-.462,0-.563.656a15.785,15.785,0,0,0-.22,2.262c-.127,2.124-.645,2.554-1.215,5.14-.41,2.061-.312,3.5-.67,6-.4,3.2-1.608,7.278-1.864,11.162-.158,1.722-.024,3.093-.209,4.523-.171,1.34-.68,3.043-.843,4.472-.368,3.856-.075,7.263-.548,11.316a21.632,21.632,0,0,1-.525,2.257c-.036.388.142,1.408.175,2.274.032,2.292-.226,4.082-.179,5.295.065,1.788.512,2.332.672,3.786.121,1.092-.052,2.624.045,3.779.167,1.653.574,2.871.639,3.759.34,3.594-.111,7.989.391,12.08.231,2.1,1.092,4.856,1.024,7.5a7.213,7.213,0,0,1-.345.8c.106,1.4.527,2.466.671,3.734.112,1.267-.242,2.028-.166,3.074.357,4.878,1.556,10.131,2.964,16.437a19.745,19.745,0,0,1,.261,2.271,21.994,21.994,0,0,1,.682,2.185c.2,1.144.137,2.668.433,3.795.288,1.22.522,1.205.794,2.161.37,1.289.212,1.621.571,2.991.444,1.689,1.107,3.36,1.573,5.1a28.259,28.259,0,0,0,.625,2.986c.523,1.512.825,1.272,1.341,2.793a16.1,16.1,0,0,0,.727,2.96c-.758.4-1.015-2.076-1.579-3.519-.415-1.1-1.207-2.4-1.549-3.534-1.081-3.646-1.688-7.3-2.729-11.115-.56-1.676-1.795-7.358-2.257-8.092-.87-1.526-.387-.761-1.159-4.448-.6-2.59-1.245-5.341-1.566-7.478-.312-2.105-.868-5.9-1.448-9.818-.409-3.941-.858-8-1.223-10.6-.194-1.445.01-2.283-.087-3.047-.241-1.767-.949-3.005-1.117-4.523-.283-2.557.152-5.295-.431-7.622.424,0,.389,2.069.945,1.5-.181-1.453-.261-3.271-.8-3.032.869-3.024-.31-11.136.3-17.525.049-.609,0-1.743.1-2.285a4.765,4.765,0,0,1,.457-.74,22.613,22.613,0,0,1-.16-6.108c.839-1.167.25,1.009.624-2.242.132-1.15.622-2.315.705-2.985.158-1.3-.054-1.656.069-3.047.153-1.723.439-3.68.724-5.548.378-1.854.737-3.614.93-4.954.673-4.824.739-10.569,2.4-13.426M95.159,46.754c.333-1.5,5.195-7.046,7.09-7.972.12.863-3.09,3.519-4.558,5.135C96.449,45.3,96.167,46.5,95.159,46.754ZM81.081,62.671c-1.259-.908,1.978-3.564,4.12-6.438C86.971,56.345,83.285,59.758,81.081,62.671ZM59.232,92.632c-1.267-.1,1.85-3.834,3.218-6.013.526-.84.843-2.056,1.321-2.766.825-1.2,1.784-2.14,2.906-3.536,2.053-2.538,4.066-5.673,5.851-7.948.77-.983.929-1.133,1.244-.97a13.624,13.624,0,0,1-.724,1.341,5.664,5.664,0,0,1-1.245.975c-.612.843-1.214,2.267-1.9,3.293-3.278,4.626-7.8,10.861-10.668,15.618M197.09,499.4c-1.282-.241-4.144-1.023-5.113-1.851A13.1,13.1,0,0,1,197.09,499.4Zm8.666,3.433c.778,1.023-4.512-1.222-4.407-1.524C200.575,500.283,205.861,502.523,205.756,502.829Zm37.081,11.636c-1.844-.355-1.561-.766-3.732-1.12.092,1.205,5.878,1.443,5.732,2.892-2.372-.052-2.389-1.18-2.9-1.346-1.485-.485-2.87-.325-3.841-.721a3.778,3.778,0,0,1-2.021-1.563c-2.177-.538-4.978-1.093-5.969-1.764,1.149-.1,3.843.846,6.072,1.364C238.75,512.819,243.694,513.265,242.837,514.465ZM521.16,429.646c.355.416-1.523,2.438-2.4,2.963C518.419,432.19,520.289,430.177,521.16,429.646Zm4.417-5.211c.832-.736,2.435-3.069,2.683-2.706.792.354-2.475,3.212-3.052,4.385C525.172,425.659,526.668,424.22,525.577,424.435Zm5.388-6.361.5.394-1.924,2.352C529.723,420.111,529.284,419.84,530.965,418.074Zm12.465-16.215c1.079-1.4,2-2.907,2.994-4.366C547.374,397.707,544.145,403.353,543.43,401.859ZM90.788,51c-.173.61-4.571,5.856-4.749,4.94C88.012,53.506,88.9,53.255,90.788,51ZM564.3,367.684c2.466-3.4,3.426-7.241,5.6-10.727.683-.033-1.017,2.963-1.851,4.969-1.127,2.816-2.453,6-3.75,5.753m23.9-65.814c.44,1.448-1.623,8.826-2.074,10.379l-.623-.158c.228-2.01,1.892-7.4,2.692-10.222m-35.782,87.76c.325.831-3.685,6.438-4.845,7.7-.564-.547,1.329-2.358,1.92-3.278,1-1.576,1.606-3.322,2.932-4.426m10.144-17.735c.647.512-2.946,6.261-3.782,8.277l-.56-.307C559.175,378.535,560.856,373.953,562.56,371.885Zm10.363-21.855c-.067-1.066,1.977-5.454,2.406-4.742A11.109,11.109,0,0,1,572.923,350.03Zm9.284-25.543c.98.486-.842,4.42-1.654,6.608-.89,2.656-1.313,5.464-2.512,7.13-.354,1.24-.638,1.286-.911,1.282.87-3.633,3.826-11.516,5.082-15.019m2.8-8.629c.034,1.913-.723,3.1-1.532,6.638a2.907,2.907,0,0,0-.845,1.327C582.094,322.913,584.275,316.642,585.009,315.859ZM221.769,508.84c.234-.411,3.2.845,4.55,1.115C226.144,510.5,222.649,509.394,221.769,508.84ZM162.621,484.9c-2.709-1.557-5.118-2.934-7.25-4.165-2.086-1.3-3.844-2.518-5.367-3.579.078-.8,2.057,1.1,3.406,1.908C156.455,480.9,162.823,483.617,162.621,484.9Zm19.247,10.367c-1.435-.725-5.063-2.017-4.05-2.378C179.074,493.2,182.354,494.749,181.868,495.265ZM42.017,356.66a14.642,14.642,0,0,1,1.673,4.3C42.675,360.725,41.123,356.546,42.017,356.66Zm7.154,15.314a68.437,68.437,0,0,1-4.645-8.856c.446.179,1.812,2.249,2.939,4.353,1.146,2.092,2.206,4.157,1.705,4.507M193.385,500.165c-.087.586-.379,1.12-2.586.05C189.5,499.128,191.209,499.31,193.385,500.165Zm5.814,2.311c-.07,1.027-2.8-.2-3.794-1.056C195.691,501.042,197.407,501.735,199.2,502.476ZM39.708,352.644c-.785.9-3.408-5.261-3.981-7.508C37.153,345.037,37.939,348.92,39.708,352.644ZM85.42,425.87c-3.023-3.574-5.741-6.008-8.591-10.088a77.824,77.824,0,0,0-7.669-9.816c-.752-.841-.5-.738-1.07-1.15-1.573-1.211-7.674-10.109-8.307-13.112-3.125-3.626-5.4-8.3-7.938-13.287,1.828,1.722,3.636,5.542,5.583,8.387,1.5,2.127,3.569,5.054,5.8,8.221.951,1.309,1.008,1.82,1.614,2.641,1.529,2.134,3.54,4.934,5.63,7.844,2.178,2.849,4.435,5.809,6.243,8.416a54.629,54.629,0,0,0,4.092,5.672,6.951,6.951,0,0,0,1.188,1.044c.083.1,4.189,4.879,3.435,5.235m130.489,83.31c2.291.9,5.544,1.553,6.678,2.284C222.325,511.931,215.6,510.1,215.918,509.187ZM30.888,332.18c-.5,1.705-3-4.585-1.782-4.263C29.65,329.642,30.225,329.931,30.888,332.18Zm59.126,96.928c1.081,1.1.833,1.576,2.229,3.23,2.883,3.467,8.63,8.159,5.019,7.047.142-.382-1.695-2.006-2.012-2.4-1.078-1.318-.966-1.525-1.86-2.54-1.731-1.962-3.867-3.7-5.247-5.771C88.187,427.751,89.489,429.131,90.014,429.108ZM230.666,514.7c-2.641-.872-7.378-1.8-6.622-2.585C226.149,512.524,232.011,513.808,230.666,514.7Zm-87.41-40.083c2.17,1.385,4.724,2.89,4.281,3.455C145.61,477.122,142.225,475.167,143.256,474.612Zm26.31,17.128c-3.349-1.787-6.686-4.374-10.043-6.2-2.767-1.538-4.656-1.934-7.136-3.408-.632-1.612,3.667.837,6.772,2.48,2.033,1.113,5.636,3.342,6.709,4.055a17.605,17.605,0,0,1,2.492,1.992c-.778-.606,2.358.94,1.2,1.084m1.3-.745a18.494,18.494,0,0,0,5.592,2.843c.157.652,2.51,1.772,1.541,2.184-1.856-.379-1.738-1.245-3.318-2.156-1.375-.6-1.548-.118-3.7-1.417C171.776,492.144,170.614,491.417,170.862,490.994Zm75.966,27.138c3.06.552,4.06,1.833-.176.813Zm-59.412-18.07c-.86-.624-2.558-1.376-3.414-2C184.869,497.605,187.981,499.583,187.416,500.062ZM250.529,519.7c-.025-1.114,6.09.561,6.189,1.206C256.488,521.165,252.9,519.965,250.529,519.7ZM109.444,450.471c-1.183-1.1-4.254-3.429-3.191-3.457C107.38,447.671,110.044,450.135,109.444,450.471Zm20.347,16c-.013.908-2.643-1.1-3.362-2.071A5.442,5.442,0,0,1,129.791,466.471Zm60.8-488.9c-.011-.523,3.141-1.4,3.626-1.462C194.148-23.145,191.254-22.246,190.593-22.428ZM114.488,454.238c1.247,1.228,2.873,2.653,4.468,4.041,1.647,1.32,3.255,2.621,4.369,3.713-.781.09-3.23-1.56-5.347-3.392-2.064-1.9-3.836-3.927-3.491-4.357M208,508c2.041.781,4.188,2.1,2.638,2.012C207.826,509.176,206.208,507.9,208,508Zm86.28,17.732c-1.667.6-10.543.114-10.211-1.068,2.635-.363,4.131.613,6.27.862C291.98,525.7,292.934,525.211,294.281,525.736ZM165.861-10.855c-.8.373-.486.015-.1-.182.52-1.05-2.315,1.032-1.8-.012,2.263-1.173,3.857-1.723,4.556-1.439C167.433-11.9,165.834-11.194,165.861-10.855Zm57.7,524.559c-.42.294-3.477-1.006-2.522.126-2-.528-3.241-1.031-2.847-1.487C221.411,513.6,221.892,512.686,223.563,513.7ZM275.74-43.5c2.033-1.939,6.929.133,0,0Zm39.071,569.842.029.834a31.3,31.3,0,0,1-3.969-.435C310.979,526.289,312.848,526.306,314.811,526.342Zm16.655.237c-1.494.086-4.744.6-3.981-.14C329.4,526.262,331.5,525.712,331.466,526.579Zm9.417-1.275c-.2.8-5.538,1.255-6.3.573A28.5,28.5,0,0,1,340.883,525.3ZM45.7,101.664c-.8-.517,1.178-2.592,1.751-3.453.472-.711,1.107-2.06,1.585-2.665a6,6,0,0,1,.77-.457c.615-.989,1.432-2.785,2.189-4.1,1.822-3.247,4-5.9,6.073-8.986.22.472-1.027,3.034-1.412,3.684-1.216,2.016-3.254,4.376-4.9,6.96-.319.487-.181.833-.6,1.433-.106.15-.731.4-.763.453-.729,1.153-.591,1.582-1.389,2.757-1.124,1.7-2.381,2.987-3.3,4.367M243.259,519.711c2.671,1.091,10.935,2.2,12.4,2.68-.921,1.02-9.156-1.368-12.627-1.665Zm44.647,6.729c.814,1.191-3.488.626-5.579.142C282.793,526.011,286.157,526.645,287.906,526.44ZM211.86,511.316c.209,1.136-4.639-.175-7.043-1.546C205.026,508.855,209.49,510.781,211.86,511.316Zm25.138,7.3,3.851.931C241.417,520.558,236.038,519.247,237,518.621Zm64.368,8.7c-.007.374-.951.426-1.6.58-1.8.466-1.407.5-5.571.128,1.209-.612,3.042-.967,7.176-.707M31.926,130.184c-.191-.591.46-2.441,1.287-4.386.885-1.918,2.011-3.911,2.55-4.895C36.3,122.278,33.166,127.423,31.926,130.184ZM281.5,526.923l-3.172-.319C277.786,525.744,282.188,526.184,281.5,526.923Zm24.625.629c2.845.133,7.3.631,5.584,1.28-2.461-.065-4.5-.232-6.381-.448-.335-.438.552-.549.8-.827M177.985-19.768c2.119-1.156,2.257-.648,4.376-1.8C182.763-21.115,178.222-19.22,177.985-19.768ZM147.724-3.143c-3.441,1.74-.56-1.463,1.57-1.908C149.793-4.7,146.759-3.356,147.724-3.143ZM36.291,120.287c-.466-.293.757-2.818,1.441-3.589C38.2,117,36.974,119.516,36.291,120.287ZM218.508,513.959c3.331.908,5.479,1.768,5.865,2.586-1.574.111-1.9-.626-3-1.095C220.339,515.009,216.973,514.353,218.508,513.959Zm174.5,2.117c.615.88-3.358,1.33-5.252,1.75C388.2,517.084,391.593,516.464,393.009,516.076Zm-74.969,11.8c-4.077,1.881,5.706-.475,8.761.044a4.023,4.023,0,0,1-2.36.518c.381.473,3.561.409,1.669.975-3.98.407-5.62-.474-8.03-.5-1.582-.005-3.762.733-5.575.123A34.949,34.949,0,0,1,318.04,527.88Zm-53.918-3.065c.393.6-.431.693-2.459.269,3.587,1.544,13.183,1.492,14.9,3.231-3.389.246-5.879-.939-8.694-1.476-1.617-.284-3.284-.165-6.364-.721.16.033-.321-.4-.761-.322-.774.191-5.662-1.316-9.454-1.7-1.075-.964,2.694.4,2.474-.157.348-.5-4.423-.657-3.015-1.219,4.154.738,8,1.538,9.3,2.344,1.239-.127,1.349-.745,4.075-.241m154.452-17c1.38-.739,1.773-.326,2.356-.5,1.045-.308,3.141-1.822,3.11-.8-2.83,1.193-4.7,1.661-5.461,1.3M96.4,34.071c.973-.8.835-1.095,1.579-1.74a8.519,8.519,0,0,1,1.458-.754c.689-.588,2.99-3.716,3.628-3-1.071,1.3-6.379,6.586-6.666,5.5M82.792,48.1l3.146-3.476C86.454,45.041,83.079,49.194,82.792,48.1ZM209.18-33.266c.857-.648,3.238-1.193,5.254-1.812C216.508-34.171,208.992-32.185,209.18-33.266ZM78.413,53.594c-1.5,1.657-2.7,3.28-3.025,2.569C76.031,54.618,77.944,53.134,78.413,53.594ZM68.028,66.245c-1.516.935-2.094,2.764-3.581,4.137.1-.432.2-.854-.059-1C65.9,67.561,67.331,65.952,68.028,66.245ZM197.1-29.3c1.924-.644,3.872-1.3,3.978-.714C199.955-29.249,196.751-28.33,197.1-29.3ZM63.52,71.635l-2.309,3.137C59.963,75.366,63.686,70.295,63.52,71.635ZM337.2,527.947a27.167,27.167,0,0,1-7.91,1.124C329.636,528.315,334.453,528.3,337.2,527.947Zm-59.01.113c6.065-.315,2.778,2.092,0,0Zm87.476-3.7c.7.6-2.6,1.256-3.83,1.145C361.86,525.033,363.717,524.688,365.664,524.357Zm17.115-3.756c1.214-.033,1.417.471,2.608.449a116.862,116.862,0,0,1-11.7,2.591c-.482-.692,3.416-1.115,5.328-1.7s2.233-.971,3.767-1.335m89.628-38.957c1.435-.093-3.834,3.768-3.844,2.766A25.8,25.8,0,0,1,472.412,481.645ZM284.539,528.9c2.6.233,3.834.491,3.942,1.117C285.465,530.039,284.6,529.482,284.539,528.9ZM9.114,208.1c-.848-1.235.324-4.14.82-5.388C10.45,204.463,9.611,206.525,9.114,208.1Zm-.22,7.025c-.948-.115-.173-5.965.435-7C9.9,209.521,9.211,212.514,8.894,215.12ZM396.266,518.4c-3.3.858-7.83,2.547-10.05,2.667-.363-.59,4.284-1.948,5.194-2.122C392.94,518.65,396.983,517.564,396.266,518.4Zm26.067-9.832c1.583-1.6,4.3-1.7,6.719-2.492-.184.613-1.8,1.246-2.77,1.58-.19.065-.075-.6-.259-.574-1.412.212-3.238,2.219-3.685,1.492m21.821-9.542c-1.654.719-5.431,2.973-5.2,2.015C439.962,500.264,444.442,497.987,444.159,499.028ZM171.4-18.8c-1.673.783-3.371,1.53-4.986,2.419l-.2-.368c1.62-.893,3.313-1.641,4.992-2.423ZM12.682,186.6a16.319,16.319,0,0,1-.948,3.779c-.787.2-1.162-.435-.464-3.25.223.327.072,1.41.334,1.651.447.388.554-3.505,1.077-2.175M7.1,252.521c.095-2.386.114-4.689.306-7.05C8.055,248.118,8.178,252.172,7.1,252.521ZM397.6,517.35c2.287-.845,2.876-.574,4.65-1.2-.571.7-2.781,1.322-5.214,2.013.351-.277.7-.56.565-.822m104.28-55.585c-1.215.877-3.493,3.229-3.332,2.178C499.941,462.62,501.4,461.048,501.877,461.76Zm5.4-4.614c-1.912,1.713-2.5,2.889-3.244,2.3C504.5,458.843,506.938,456.607,507.279,457.146ZM7.919,223.636l-.137,3.117C6.928,227.334,7.115,222.973,7.919,223.636Zm-.3,7.014c-.123,3.025-.251,4.889-.923,5.445C6.2,234.116,6.829,230.739,7.615,230.65ZM516.848,447.785,519.627,445C520.793,445.044,516.915,448.928,516.848,447.785ZM8.19,260.3l-.854.054c.032-1.628-.564-5.128-.1-5.487C7.919,254.967,7.987,257.923,8.19,260.3Zm-.126,11.011c-.641-2.567.263-2.607.216-3.954-.057-1.459-.978-3.152-.5-4.684.824-.67.524,2.877.712,4.665.236,1.922,1.222,7.72.674,9.378.04,1.013.006-.321-.169-1.909C8.9,273.206,8.646,271.349,8.064,271.308ZM148.8,486.285c-.87.292-6.89-3.8-8.249-4.978C141.447,481.031,147.432,485.105,148.8,486.285Zm102.807,40.408c-.663,1.145-6.235-.824-8.793-1.31-4.914-1.169-12.886-2.821-19.616-4.85-1.611-.443-3.574-1.291-5.368-1.787-1.838-.485-3.564-.629-4.757-1.07-1.422-.5-2.964-1.39-4.446-1.964-6.825-2.537-14.6-5.337-21.855-8.4-2.886-1.375-5.834-2.789-8.731-4.166-2.659-1.146-5.733-2.492-8.061-3.711-1.719-.913-3.12-1.964-4.83-2.922a141.252,141.252,0,0,1-12.545-7.229l.329-.532c2.752.978,2.859,1.8,4.774,2.958,4.715,2.987,9.547,5.034,14.19,7.533,3.562,2.008,7.681,3.655,11.636,5.472,1.792.849,3.53,1.667,5.228,2.472,1.736.729,3.417,1.431,5.055,2.114,1.832.728,2.865.871,4.571,1.588,2.082.894,4.442,2.166,6.644,2.923,1.518.554,2.935.791,4.635,1.378,1.364.47,2.658,1.151,3.741,1.5,1.784.619,3.749.827,5.507,1.29,1.374.364,1.576.691,3.032,1.1,1.183.335,1.469.2,2.376.484,2.344.692,4.482,1.789,6.869,2.349,5.621,1.465,13.622,3.05,20.419,4.78m177.708-20.052c.5-.684,5.13-2.676,4.531-1.611A14.95,14.95,0,0,1,429.321,506.647ZM449.377,497l.419.736c-3.386,1.282-6.344,3.891-7.378,3.092A56.2,56.2,0,0,0,449.377,497ZM14.449,306.1c-.721-2.121-.273-2.029-.752-3.866C14.271,302.187,15.409,306.657,14.449,306.1Zm478,165.361c-2.4,1.555-2.8,2.657-4.479,3.3,2.713-3.143-1.344,1.038-1.927.107,1.777-1.819,5.7-4,6.407-3.415m61.374-65.427c-.193,2.21-4.957,6.408-6.152,9.137-.177-.1-.707.678-1.107,1.138.163-1.534,5.578-8.3,7.258-10.27m19.76-31.188c-.043,1.339-2.19,4.181-2.764,4.762C570.441,378.506,572.928,375,573.587,374.848Zm-5.807,10.258c-.347-.3,1.614-2.914,2.115-4.212C570.43,381.19,568.595,384.4,567.78,385.106Zm11.8-23.051c-1.06.752,1.322-2.453,2.179-4.184,1.01-2.241,1.548-3.958,2.382-5.808C584.5,354.229,581.282,359.674,579.578,362.055Zm7.915-17.117c-.885,2.417-1.727,5.676-2.756,5.669C585.652,348.2,586.48,344.955,587.493,344.938Zm13.783-53.066a15.474,15.474,0,0,0,1.458-6.913C604.613,284.248,601.735,296.489,601.276,291.872ZM5.773,251.781c-.436.192-1.421-4.715-.479-4.705A23.127,23.127,0,0,1,5.773,251.781Zm-.08,2.368c.4.629.464,5.67-.113,5.526C5.147,256.427,5.85,256.586,5.693,254.149Zm595.269,47.259c-.645,1.742-1.256,6.605-2.152,5.97.731-2.819.3-3.7,1.22-4.557C600.325,302.532,600.6,300.955,600.962,301.408Zm5.077-49.251c.642.063.384,5.618-.418,4.7A10.97,10.97,0,0,1,606.039,252.157ZM8.506,280.769a51.693,51.693,0,0,1,.784,6.262C8.752,286.036,7.4,280.5,8.506,280.769ZM509.76,457.48c1.3-1,3.855-3.951,3.826-2.89C512.286,455.6,509.731,458.541,509.76,457.48Zm41.9-46.269c3.975-4.723,5.306-7.2,9.021-12.014.3,1.265-1.978,3.221-2.875,4.724-1.232,2.066-1.85,4.6-4.445,7.507-.846.327-.6-.347-1.7-.216m46.423-99.979c1.04-.626-.521,2.949-.919,4.633-.483,2.161-.626,4.282-1.656,6.066C595.365,319.794,597.6,313.034,598.083,311.233Zm8-72.452c.577-.221.648,5.557.261,6.3C605.533,245.588,605.907,239.573,606.084,238.781Zm-.108-12.6c.1,2.472.475,5.777.19,7.093C605.516,233.147,604.984,225.338,605.976,226.181ZM45.965,388.875c-.768-.631-.961-.524-.74.416,1.561,2.661,2.64,3.9,3.879,6.112.582,1.04.8,2,1.364,2.944,1.787,3.108,4.256,5.788,6.881,9.947,1.751,2.44.714-.422,1.631.843,1.073,1.343.639,1.421.405,1.671.953,1.459.979.8,1.752,1.726a16.251,16.251,0,0,1,1.32,2.029c1.528,2.035,2.034,2.133,3.488,4.45a13.694,13.694,0,0,1,1.16,2.152A40.594,40.594,0,0,0,70,425.54c1.506,1.958,3.242,4.1,4.419,5.332,2.126,2.235,2.636,2.126,4.9,4.348-.146.585,1.862,2.134,2.461,3.225.1.176-.448.091-.315.279.87,1.183,2.292,2.394,3.22,3.661.219.295.069.634.251.874a32.124,32.124,0,0,0,6.172,6.5c1.091.836,1.934,1.149,3.405,2.355-.744.2.141,1.31,1.046,2.426,1.226,1.359,2.872,2.366,4.327,3.757,1.652,1.508,2.22,2.8,3.778,4.347,1.254,1.245,3.509,2.9,5.613,4.794,1.187,1.128,2.44,2.4,3.58,3.4,1.931,1.633,3.9,2.94,5.194,4.033.824.694,1.833,1.956,2.34,2.341.213.272,5.968,3.081,6.153,4.145.207,1.093.527.654,2.575,2.061.992.686,2.979,2.867,3.5,2.2,2.293,1.545.919,1.359,2.269,2.5,1.039.852,2.148.995,3.609,2.043.459.327.427.982,1.859,1.675,2.459,1.335.342-.336,1.856.186a27.49,27.49,0,0,0,3.268,2.557c1.364.814,4.834,1.694,5.122,2.7.4,1.383.239.143,2.764,1.814.724.475,1.6,1.977,3.08,2.95,2.094.812,10.447,4.833,11.6,6.479,2.089,1.072,5.035,2.682,5.414,2.166,2.026,1.143-1.343,0,.394,1.091,3.917,1.637,5.892,2.009,10.709,4.6,3.3,1.615,6.675,4.454,9.211,3.889,1.175,1.083,3.841,1.83,6.08,2.771a31.923,31.923,0,0,0,2.937,1.677c.977.4,2.222.687,3.169,1.094,1.866.745,5.035,2.526,8.553,3.463,1.621.471,3.443.535,4.944,1.019,1.878.607,1.487.87,3.092,1.339.644.188,2.646.32,2.308,1.1,1.772.789,2.5.416,4.113.86,1.667.434,1.79.829,3.164,1.2,2.94.8,4.111.739,6.532,1.582.325.113,1.4.276,1.637.391.131.069-.254.355-.088.409,1.784.515,5.288,1.282,6.561,1.516,1.465.262,3.4.21,5.034.553,1.917.391,2.066.921,4.022,1.388a22.229,22.229,0,0,0,3.37.292c1.789.255,3.021.845,4.106,1.025,1.8.241,5.742.77,9.194,1.235,1.351.192,2.007.529,3.315.749,1.374.239,3.26.2,5.045.5.809.139,1.378.506,2.485.658,1.873.315,4.8.516,6.737.651,1.294.077,1.573-.158,2.548-.073,1.277.109,2.1.443,3.363.592,3.016.422,7.273.312,11,.468,1.945.095,4.092.382,5.936.446,2.039.109,4.647-.151,6.78-.163,1.494-.008,2.782.255,4.263.234,1.729-.032,4.748-.359,7.632-.369.922-.02,2.44.17,3.416.119,5.872-.317,12.163-1.345,17.015-.975a25.751,25.751,0,0,1-5.594.952c-2.008.059-4.228.126-6.276.193-1.426.073-3.574.39-5.085.457a15.777,15.777,0,0,1-2.574-.192c-1.263.007-1.263.32-1.678.355-.026-.005-.921-.063-1.923-.122s-2.1-.115-2.362-.107c-.789.027-1.828.335-3.383.352-1.679.021-3.743-.2-5.966-.171-5.212-.022-14.01.219-17.834-.478-.49-.1,1.43-.146,1.7-.153-3.214-.218-6.076-.027-9.329-.232-1.233-.09-2.234-.68-3.357-.8a22.942,22.942,0,0,0-2.553.068c-2.206-.159-10.013-1.408-13.454-1.719a19.518,19.518,0,0,1-2.559-.059c-.44-.079-1.324-.588-1.622-.654-.759-.17-1.758-.2-2.512-.366-1.124-.251-2.436-.742-3.294-.9-.465-.09-2.116-.1-3.377-.288-3.3-.429-7.483-1.626-10.748-2.328-2.138-.463-4.694-.828-6.627-1.295-1.336-.293-2.719-1.013-4.021-1.341-2.175-.569-4.577-.9-6.6-1.389-2.459-.5-10.344-2.834-11.281-3.478-1.665-1.047-.573-.346-3.984-1.385-1.471-.446-2.479-1.162-3.1-1.346-1.377-.406-1,.025-3.328-.653.237.074-.234-.329-.732-.467-.162-.048-.123.183-.864-.077-1.383-.485-2.225-1.115-3.839-1.757-2.03-.81-4.312-1.567-6.332-2.218-1.991-.74-3.73-1.37-4.71-1.825-2.481-1.152-4.206-2.644-6.617-3.745-1.769-.772-3.655-1.313-5.467-2.115-5.033-2.219-10.6-5.4-15.614-8.048a13.253,13.253,0,0,0-3.919-1.523,104.858,104.858,0,0,0-10.467-6.784,125.527,125.527,0,0,1-13.307-8.65c-.677-1.31,2.452,1.4,2.45.807-.478-.868-4.352-2.851-6.182-4.166-1.609.1,4.633,2.814,3.029,2.913-1.777-1.263-1.8-.591-3.622-2.056-.727-.6-.012-.653-1.03-1.423-3.344-2.577-7.831-5.341-11.541-8.1-1.135-.882-1.887-1.879-3.025-2.85-1.1-.943-2.509-1.881-3.925-3.045-1.545-1.268-2.789-2.641-4.3-3.87-2.808-2.468-5.892-4.9-8.787-7.494-2.409-2.084-4.544-4.8-6.881-7.1-1.2-1.188-4.421-3.927-6.567-6.223-.572-.669-1.243-1.852-1.966-2.65-2.386-2.643-5.016-5.246-7.583-7.821-2.484-2.636-4.826-5.311-6.826-7.874-.792-1.036-.669-1.615-1.113-2.252-2.029-2.762-4.758-5.75-7.176-8.893-1.55-2.113-1.994-3.2-4.633-6.7-.574-.788-2.166-2.7-2.055-2.527-.987-1.477-1.176-2.364-2-3.557-.72-1.048-1.748-2.111-2.519-3.2-1.309-1.766-2.352-4.1-3.653-6.326-.525-.9-1.24-1.841-1.738-2.739-1.416-2.637-3.254-6.073-5.726-10.685-.708-1.264-1.036-1.367-1.771-2.709s-.931-2.117-1.4-2.91c-1.878-3.106-2.983-4.061-3.423-6.4-.211-1.068-1.41-3.062-2.692-5.854-1.312-2.855-2.224-5.566-3.543-8.969-.691-1.692-1.716-3.349-2.45-5.066-1.177-2.78-2.03-5.438-2.986-8.3-.845-2.385-2.086-5.194-2.833-7.5-.722-2.2-.984-4.121-1.53-6.231-.8-2.865-2.513-8.546-3.2-10.707A12.772,12.772,0,0,1,13.369,317c-.263-1.158-.122-1.743-.406-3.191-.28-1.39-1.637-5.207-1.635-6.165.006-.582.389-.826.218-1.673-.345-1.648-1.051-3.031-1.306-4.6-.273-1.607.326-3.729-1.015-7.892,1.455.526,1.454,7.315,2.685,7.545.736,2.524,1,5.311,1.49,6.958.5,1.606.685,1.139,1.221,2.961.88,2.632-.341.935-.215,2.5.063.851.836,2.847,1.023,3.827a15.4,15.4,0,0,0,.566,3.963c.5,1.84.8-.681,1.343,2.1,1.053,3.073-.3.533-.579,1l1.46,4.551c1.11,2.268-.937-4.538.534-1.828.791,2.255,1.608,4.561,2.287,6.761.3,1.066-.181.994-.045,1.694.148.774.541,1.766.641,2.3.4,2.186,2.319,10.157,4.939,13.466,0,0-.559-2.524.079-.889a13.623,13.623,0,0,0,1.079,3c.316.476.262-.207.715.573.223.4,1.065,1.935,1.153,2.109.757,1.55.312,1.683.567,2.349a15.525,15.525,0,0,0,1.743,2.719c.675,1.372.469,1.8,1.036,3.023.574,1.237,1.162,1.408,1.815,2.682.665,1.291.131,1.172,1.4,3.742,2.063,4.357,5.623,9.113,6.182,13,1.213,1.893,2.288,3.492,3.623,5.316M156.753,493.327c1.673,1.268,5.557,3.227,6.047,4.087C162.414,497.413,155.289,493.606,156.753,493.327ZM575.827,372.441c1.013-1.834,1.87-4.085,2.593-4.869C578.642,368.325,576.461,373.44,575.827,372.441ZM207.233,517.213c-1.7-.741-6.129-1.713-5.226-2.242C203.332,515.106,208.242,516.664,207.233,517.213ZM25.808,348.975c-1.227-2.666-2.213-5.413-3.255-8.145.24-1.018.883,1.2,1.248,2.092C24.4,344.6,26.578,349.1,25.808,348.975ZM119.281,469.45l1.274.989c-.23.047.127.348.509.661l-.265.326c-.525-.451-.658-.4-.774-.335l-1.279-.995c.23-.047-.127-.349-.509-.661l.265-.326c.519.455.652.409.774.335m94.683,50.74a33.2,33.2,0,0,1-3.713-1.716C211.33,518.257,215.136,519.544,213.959,520.184Zm-87.068-44.731c.042,1.134-4.509-2.08-5.073-2.706C122.758,472.741,124.7,474.09,126.891,475.453Zm104.291,49.681c-.986.148-4.74-1.232-6.29-1.715-2.287-.654-7.6-1.9-7.69-2.688a36,36,0,0,1,6.3,1.634,19.812,19.812,0,0,1,2.226,1.084c.392.184,5.752.4,5.448,1.684m-91.023-40.367c1,.637.08.552.335.959,0,0,1.109,1.116,1.258,1.042-.479.22-3.56-1.991-4.6-1.927-1.9-1.417-.589-.745-.207-1.12-1.556-1.1-1.886-.8-2.939-1.484-2.008-1.363-2.617-2.8-6.532-4.842a10.059,10.059,0,0,1,3.159,1.2c1.378.848,1.01,1.179,2.407,2.2C134.053,481.6,138.054,483.588,140.154,484.766ZM50.5,396.433l-2.58-4.061C48.284,392.346,51.46,396.352,50.5,396.433Zm94.9,92.152c1.83,1.082,2.917,1.933,2.415,2.263C145.987,489.767,144.336,488.732,145.4,488.585Zm8.988,5.562c.025.879-2.422-.651-4.569-1.885C150.133,491.706,152.569,493.234,154.39,494.147Zm6.055,4.155c-1.169-.3-3.8-1.919-3.333-2.371C158.336,496.248,161.3,497.961,160.445,498.3Zm8.178,3.72c1.318.639,1.41,1.006,2.815,1.668.036.746-1.858-.2-3.927-1.3-.1-.542.761-.23,1.117-.371m6.467,3.449c.945-.135,2.732,1.551,5.2,2.352C179.782,509.281,175.891,506.358,175.1,505.472Zm25.619,10.6c1.918.568,1.936,1.348,2.8,1.847.787.457,2.993.876,2.177,1.194-3.715-1.445-5.283-1.385-7.705-2.775.61-.308,3.1.748,2.732-.265M72.782,428.019c-5.356-5.211-.217-2.512,0,0ZM181.7,508.688c1.988.885,3.955,1.817,5.965,2.649C187.215,512.021,181.222,509.429,181.7,508.688Zm11.276,4.763,3.04,1.2C196.635,515.676,191.4,513.869,192.977,513.451ZM243.6,529.375c4.685,1.5-3.331.961-5.768-.484C239.55,528.945,242.544,529.743,243.6,529.375Zm4.749,1.349a18.571,18.571,0,0,1,3.979.989C252.468,532.293,246.738,531.364,248.35,530.724Zm-68.015-21.049c-1.171-.13-3.507-.492-4.757-1.465C175.707,507.5,178.815,508.495,180.335,509.675Zm5.235,2.359c.322,1.211-5.149-1.019-3.736-1.684A10.577,10.577,0,0,1,185.57,512.034Zm2.875,1.638c-.453-.118-.854-.705-.6-.69a4.026,4.026,0,0,1,1.36.991c1.807.717,6.23,1.953,7.637,3.031-.221,1.08-5-1.113-8.73-2.567-.866-.859,2.279.064.329-.771m-75.422-44.307c-1.965-.234-4.827-4.092-8.314-6.657C106.348,462.647,110.539,467.338,113.019,469.359Zm177.513,67.649a18.856,18.856,0,0,1,3.283.378c-.216.351-1.434.4-3.313.245Zm18.073,1.182c-1.132.285-4.968.174-4.935-.439C305.005,537.419,308.826,537.527,308.605,538.19Zm19.69-1.147c3.051.018,4.843.2,7.447.254C334.09,538.422,327.439,538.216,328.3,537.043Zm24.571-1.891a20.462,20.462,0,0,0,5.779-.383c-.176,1.307-5.2.875-8.906,1.661.947-.432,3.218-.723,3.132-1.277M164.243,503.31c1.943.922,3.117,1.667,2.643,2.044C164.933,504.429,163.17,503.544,164.243,503.31Zm217.106,27.537a21.624,21.624,0,0,1-4.7,1.555c-.464-.064-.913-.129-.949-.423C377.375,531.093,379.7,531.037,381.349,530.847Zm1.492-.789a28.449,28.449,0,0,1,4.909-.753C387.126,529.917,382.007,530.986,382.841,530.058Zm23.739-6.522c2.357-.821,5.058-1.879,4.872-1.021C409.428,523.466,406.234,524.756,406.58,523.536Zm56.488-23.848c3.448-3.695,6.609-2.374,0,0Zm9.619-6.185c3.363-2.224,3.786-1.669,4.854-1.561C474.138,494.544,473.2,494.1,472.687,493.5Zm-28.566,15.815c.874.454-.754,1.382-3.339,2.479C439.965,511.328,441.953,510.343,444.121,509.318Zm44.467-25.8a24.931,24.931,0,0,1,4.068-2.736C493.229,481.05,487.954,485.206,488.588,483.518Zm30.186-23.6c.493-.945,5.275-5.389,5.091-4.12A21.373,21.373,0,0,1,518.774,459.917Zm9.233-9.163c1.489-1.456,2.989-2.941,3.345-2.452-1.056,1.018-1.025,1.394-2.149,2.456C528.624,451.072,528.231,451.049,528.007,450.754Zm9.084-8.247a16.284,16.284,0,0,1-3.6,3.342C533.67,444.808,537.01,440.986,537.091,442.507Zm35.632-47.3c-.066.455-.13.9.141,1.018-3.011,4.711-5.255,8.9-7.435,9.718.259-1.27.848-1,1.522-1.913,1.9-2.449,3.969-6.432,5.773-8.828m32.339-77.3c.844-2.717.948-.728,1.034.269-.739,1.994-1.68,5.816-2.531,6.017C604.278,321.092,605.693,318.944,605.063,317.9Zm3.209-12.522c1.071.063-1.186,9.025-2.038,8.649C606.858,310.576,607.322,309.671,608.272,305.382ZM207.807,525.556c-1.277.1-2.843-.585-4.808-1.428C203.215,523.6,206.886,524.941,207.807,525.556ZM359.7,545.375c.548-.5,4.7-.843,6.671-1.367.626.4-1.122.474-.8.363C364.348,544.751,362.1,546,359.7,545.375Z" transform="translate(-0.518 52.873)" fill="#131313" fill-rule="evenodd"/>
</svg>
