<svg xmlns="http://www.w3.org/2000/svg" width="538" height="538" viewBox="0 0 538 538">
  <path id="teaser_innerswoosh" d="M496.422,270.082c.156,2.19.441,4.869.5,7.272.009.742-.147,1.258-.161,2.43.037,2.725-.23,5.893-.276,8.77-.06,2.845-.11,5.386-.147,7a36.242,36.242,0,0,0,.381,4.307c.01.586.023,1.526.033,1.84.165,2.449-.469,3.362-.813,5.427-.556,3.035-.487,7.245-1.355,11.51-.157.886-.565,2.107-.735,2.965-.4,2.209-.671,4.87-1.291,7.2-.271,1.1-.5,1.282-.735,2.333-.142.646-.156,1.559-.229,1.822-.409,1.388-.685,1.18-.915,2.287a14.776,14.776,0,0,1-.1,1.867,14.467,14.467,0,0,1-1.694,4.589c-.129.235-.451.336-.529.479-.188.374-.317,1.324-.5,1.757-.275.673-.629.959-.849,1.642a23.323,23.323,0,0,0-.795,4.21c1.066-1.582,1.075-3.463,1.479-5.271.367.3.68-1.632,1.038-1.6-.138,2.628-1.7,5.455-2.549,8.144-.478,1.577-.372,2.522-1.006,4.168-.175-.064-.368.392-.547.452-1.166-.129.62-4.358-.422-4.644.491-.59.96-.23,1.483-2.056-.1-1.808.731-2.532,1.121-4.1.2-.765.023-.848.312-1.8a17.139,17.139,0,0,0,.676-1.692c.652-2.744.941-5.935,1.469-8.374.336-1.365,1.13-2.144,1.185-3.445.225-1.517-1.1,1.983-.592-.756a25.634,25.634,0,0,1,1.98-4.519c-.565-1.171.413-4.6.643-6.659.105-.959-.088-1.42.068-2.439.441-3.481.979-7.1,1.585-10.716a102.418,102.418,0,0,0,.873-10.851c-.965-1.028-.473,4.561-1.3,4.127a44.868,44.868,0,0,0,.721-7.779c-.037-1.162-.712-.507-.473-2.425.717.018,1.626-4.662.772-5.981-.276.36-.083,2.845-.464,2.993-.542.1-1.025.046-.864-1.817.427.392.946,1.226.951-1.185-.266-2.407-.873,1.766-.937-.01l-.032-2.988h.749c.215-1.494-.327-2.568-.414-4.191-.041-.747.184-2.172.156-3-.151-2.352-.79-5.52-1.042-8.333-.12-1.784-.184-3.583-.395-4.763-.207-1.2-1.521-2.191-.561-3.542.414.337.414,2.758.873,2.91.023-3.071-1.2-7.387-1.282-10.689-.454-1.1-.62,1.139-1.111-1.042-.335-2.559-.951-4.588-1.493-6.991-1.116-4.367-1.658-9.462-2.953-12.736-.446-1.245-.933-1.554-1.277-2.735-.409-1.378-.28-2.633-.657-4.117-.262-.955-.863-1.72-1.222-2.73-.684-1.9-1.033-4.09-1.92-5.6.046.909.62,2.578-.023,2.49-.459-1.605-1.336-3.818-.854-4.067.267-.77,1.5,2.421.712-.24a6.546,6.546,0,0,0-.767-1.614c-.4-.821-.354-1.116-.606-1.669a40.047,40.047,0,0,1-3.147-7.032c-2.218-.489-3.674-9.029-5.64-10.394.666-.507-.528-2.979-1.869-5.626-.6-.17.427,2.675-.758,1.029a15.491,15.491,0,0,1-1.176-3.348c.335-.157.9,1.342,1.176.728-.717-1.295-2-4.68-2.485-4.016-.74.507,1.833,2.619.891,2.85-1.952-1.448-2.7-5.607-3.3-6.9-.574-1.148-1.474-2.374-2.443-4.016-1.107-1.881-1.558-3.246-2.609-3.91-.671-1.213-.014-1.278-1.052-2.818-.731.71-2.219-3.122-3.192-4.238-.285-.35-.74-.124-1.13-.654-.657-.886-1.309-2.26-2.154-3.505-.625-.918-.882-.964-1.47-1.831-1.424-1.973-.754-1.42-1.906-2.245-1.176-.821-2.435-3.1-3.684-4.556-.322.346-.666.627-1.24.23-.809-2.826-2.922-4.1-4.644-6-1.534-1.6-4.111-4.533-4.676-5.2-.477-.665.845.1-.381-1.232-2.31-2.453-5.13-4.408-7.064-6.963-.652-.138.8,1.651-.533.535a78.036,78.036,0,0,0-10.932-9.5c.29-.9-2.168-3.034-4.189-4.916-.643-.083.933,1.591-.477.581-2.177-1.678-4.9-3.1-6.233-4.219-.625-.516-.8-1.134-1.58-1.738-.813-.627-1.787-.872-2.559-1.388-.679-.443-1.584-1.365-2.236-1.831-1.369-.973-2.476-1.489-3.386-2.2-.79-.636-1.391-1.337-2.181-1.922-1.415-1.056-3.289-2.384-4.763-3.279-1.162-.673-2.269-.6-3.808-1.5-.772-.457-.4-.779-1.814-1.471-.731.475-1.218-.1-1.778-.369-1.552-.715-5.126-2.813-5.594-2.956-.832-.383-2.164-1.342-2.986-1.734-.73-.346-1.552-.424-2.218-.715-.552-.235-.717-.581-1.447-.954-1.824-1.047-6.173-2.712-8.419-3.7-.666-.277-2.885-.881-2.761-.839-.519-.194-.574-.461-.992-.609-2.967-.982-6.541-1.951-9.278-3.034a12.845,12.845,0,0,0-2.1-.9c-.17-.041-.951.046-1.212-.009-.63-.143-1.571-.636-2.164-.733-.693-.111-1.185.037-1.8-.018-1.929-.184-2.522-.595-4.956-1.347-2.1-.6-4.58-1.314-6.031-1.725-.032-.383.726-.226.74-.567-1.475-.65-1.907-.148-3.413-.507-1.217-.309-1.387-.761-2.692-1.015a20.434,20.434,0,0,0-2.31-.157c-.648-.074-3.2-1.037-2.857-.29a40.792,40.792,0,0,1,6.017,1.8c.689.29,2.788.83,2.081,1.061a22.4,22.4,0,0,1-2.719-.825,26.074,26.074,0,0,0-4.387-1.222,3.336,3.336,0,0,0-1.066-.447,10.177,10.177,0,0,1-3.325-.835c-.873.069-1.006.539-1.846.622-2.357-1-4.079-.6-5.613-.853-.933-.1-1.387-.47-2.219-.484-1.4-.023-1.86.572-3.472.291-2.31-.457-2.811-1.582-.368-1.568,2.789.756,5.43,1.208,7.363.853a36.712,36.712,0,0,0-8.465-1.194c-2.071.046-1.392.443-3.514.692-.4.055-2.03-.009-2.278,0-.22,0-1.442.29-1.7-.143.3-.337,4.028-.194,2.352-.742-2.457-.143-2.944.369-4.589.355-3.137-.111-6.875-.47-10.187-.549-.767-.014-1.456.286-2.274.281a33.677,33.677,0,0,0-3.389-.189c-1.557.1-3.431.171-3.386.788.4.5,2.494.212,3.386.341.156.023.326.374.56.369,1.621-.023,1.631-.613,3.385-.535,2.021,1.121,4.258.415,6.747.452a33.532,33.532,0,0,1,3.358.387c3.674.383,7.873.148,11.8.807.992.143,1.681.452,2.77.563,1.428.152,2.673.041,3.968.148,1.415.2,2.922.609,4.437.83,2.325.364,4.6.083,6.812.544.593.12,1.162.447,2.159.705l6.678,1.688c2.384.715,4.837,1.393,7.005,1.891,1.474.346,2.576.35,3.9.789,3.569,1.176,7.781,2.273,10.757,3.578.781.314,1.741.922,2.568,1.217,1.13.4,2.15.3,3.381.715.519.147,2.011.991,3.059,1.512,2.664,1.268,4.933,2.02,6.283,2.628.735.337.859.595,1.975,1.144,1.428.682,2.861,1.088,4.207,1.734,1.773.876,3.33,1.9,4.956,2.785.8.443,1.7.613,2.641,1.088,2.729,1.407,5.971,3.541,8.305,4.943,1,.558,1.621.636,2.6,1.223a66.255,66.255,0,0,1,5.58,3.942c2.747,2.029,6.486,4.072,8.052,5.4.62.489,1.479,1.462,2.118,1.928.578.419.758.037,1.69.622l1.8,1.421c.983.8,1.511,1.434,2.521,2.328,2.724,2.338,5.852,4.427,7.666,6.013,2.219,2.08,3.11,3.293,4.107,4a32.218,32.218,0,0,1,4.85,4.879c1.038,1.106,2.682,2.3,3.794,3.527.56.623.56.9,1.433,1.808a55.282,55.282,0,0,1,3.877,4.251c.5.66,1.139,1.974,1.566,2.449a14.785,14.785,0,0,1,1.92,1.4c.983.862,1.979,2.4,2.627,3.071.616.669,1.052.848,1.69,1.614a81.755,81.755,0,0,1,5.921,7.844c.666.987.739,1.508,1.47,2.49,1.162,1.6,2.6,2.813,3.656,4.519.9,1.369,1.4,2.661,2.241,4.053.754,1.25,1.548,2.486,2.357,3.712l2.25,3.768a81.16,81.16,0,0,1,4.263,7.442q-.958.034.321,2.421c1.011,1.25-.037-2.246,1.263.028.859,3.02,1.791,4.15,2.954,6.3,1.286,2.361,2.535,5.511,3.715,7.886.441.843.836,1.222,1.172,2.038.395,1.033.464,2,.813,2.808.3.692.845,1.291,1.143,2.061.322.826.092,1.356.446,2.31.413,1.089,1.235,1.259,1.272,2.647.368,2.094-.335,2.214.473,4.732,1.025,1.494-.115-1.485.556-1.388.9,2.725,1.7,5.639,2.421,8.4.266.922.785,1.761,1.084,2.734.5,1.739,1,3.9,1.382,5.677.56,2.254,1.337,3.891,1.713,5.616.175.821.322,2.67.51,3.482.331,1.526.887,2.333,1.176,3.965.216,1.2.078,2.855.262,4.109.078.664.666,1.748.776,2.859.133,1.065.009,2.306.115,2.942a15.706,15.706,0,0,0,.556,1.711,48.166,48.166,0,0,1,1.111,8.761c.055,1.074-.147,1.356-.05,2.366.078.811.441,1.89.546,2.919.12.945.023,2.024.092,2.951.092,1.171.349,1.867.395,2.942.147,2.352.248,8.1.129,8.863-.019.479-.248.839-.234,1.18.073,1.762.463,2.214.427,3.569-.042,1.056-.478,2.463-.538,3.523-.05,1.222.216,2.006.253,3.579.06,3.043-.087,6.017-1.309,6.414-.12,1.669-.639,3.624-.712,5.266a9.838,9.838,0,0,0,.427,2.453c.4,2.61-.79,8.31-1.272,11.833-.115.733-.395.774-.515,1.71-.05.351.281.549.092,1.236a6.261,6.261,0,0,0-.5.5c-.859,2.154-.607,5.008-.933,6.5-.34,1.651-1.428,2.688-1.415,3.933.014.909-1.028,1.753-.468,2.338.216-.691.441-1.342.689-1.042-.216,1.743-.119,2.813-.781,4.118a9.477,9.477,0,0,0-.808,2.873c-.225.728-.505.7-.749,1.637s-.046,1.2-.409,2.379c-.34,1.1-1.143,2.624-1.506,3.9a16.711,16.711,0,0,1-.391,1.762c-.427,1.222-1.075,2.093-1.456,3.274-.574,1.725-.05,2.739-1.391,4.588-.533-.009,1.377-3.053.349-2.435-1,1.707-.79,2.14-1.732,4.446.8-.157.119,1.342-.018,1.936a12.229,12.229,0,0,1-.951,3.5c-.409.908-1.084,1.867-1.4,2.656-.561,1.462-.85,3.274-1.53,4.584-.638,1.309-1.419,2-1.966,3.038-.455.854-1.474,3.1-1.727,3.828-.353,1.033-.082,1.286-.643,2.379-1.759,3.4-4.12,6.7-5.411,10.076-.532.373-.9.11-1.607,1.12-.092,1.919-1.819,4.921-3.776,7.586-.5.655-1.832,2.218-2.246,2.831-.055.083-.56,1.374-.739,1.693a53.3,53.3,0,0,1-4.511,6.409c-1.281,1.752-1.552,3.523-3.357,4.27.514-.936,2.007-2.545,1.424-2.725-1.19,1.6-2.43,3.145-3.657,4.616a47.163,47.163,0,0,0-3.5,4.3c-.7,1.014-.772,1.655-1.557,2.651a19.255,19.255,0,0,1-1.727,1.688c-2.66,2.536-2.9,3.4-4.341,5.035-.468.535-.748.494-1.387,1.176-1.382,1.554-3.5,3.606-4.184,4.362-.211.236.252.4-.055.821-.928,1.268-2.843,2.38-2.4,2.767-.859.281-1.705.627-3.482,2.472.184.659,1.874-1.043,1.079.3a136.9,136.9,0,0,1-11.482,10c-1.153.963-2.678,2.232-3.285,2.739a9.186,9.186,0,0,0-1.189.442c-1.746,1.513-1.452,2.131-2.995,3.141-.914.083-3.867,2.743-4.345,2.292-.051.724-1.424,1.821-3.174,3.052-1.764,1.208-4,2.389-5.626,3.546-1.663,1.158-2.779,2.287-3.872,3.048-.616.443-1.14.383-2.224,1.042-.886.535-1.607,1.236-2.5,1.794a21.067,21.067,0,0,1-2.237,1.01c-.679.392-1.759,1.37-2.508,1.8-1.984,1.153-4.124,1.932-6.04,2.979-2.328,1.208-3.862,2.458-5.929,3.232-1,.369-2.049.443-2.977.844.345.332,1.53.236-.2,1.1-1.677.388-2.085-.285-4.878,1.043-1.438.774,1.594.285-.781,1.355-5.121,1.305-9.039,3.8-13.256,4.925-.927.258-.679-.3-1.341-.175-.753.143-1.543.705-2.88,1.088-2.439.7-1.166-.134-3.036.553-2.007.752-1.883,1.236-4.542,2.006-.937.189-.529-.345-1.332-.244-.216.069-4,1.222-4.116,1.254-1.713.678-.73,1.476-2.783,1.628-2.549.775-.942-.724-3.179-.12-.937.683.832.5-.413,1.042-1.874.249-1.713.683-3.592.936l-.142-.742c-2.4.742-3.8.622-7.28,1.254,2.108,1.075-3.565.982-4.69,2.061-1.727.116-1.575-.728-3.8-.488a16.811,16.811,0,0,1-4.222,1.2c-1.313.171-2.034-.2-3.738-.166a41.752,41.752,0,0,0-4.929.3,15.225,15.225,0,0,1-3.054.742c-1.911.18-4.226-.323-6.187.037-1.645-.046.606,1.047-1.847.77-1.345.041-.289-.664-.633-.936-2.9-.3-4.231.516-6.187.613-.859.009-2.054-.272-3.087-.309a48.355,48.355,0,0,1-5.576-.027c-.611.327,1.828.7-.037.751-2.99.2-4.924-.784-8.024-.973-1.438-.111-2.884.263-4.386.189-2.619-.184-6.045-1.332-7.322-1.526-2.6-.4-5.567-.563-8-1.07-1.429-.263-2.871-.756-4.24-.973-.6-.1-2.085-.023-2.521-.078-3.192-.554-8.139-2.062-12.7-3.021-1.29-.3-2.439-.345-3.688-.668A107.6,107.6,0,0,1,195.1,497.79c-.831-.35-1.295-.774-2.227-1.162-1.07-.479-1.355-.3-2.379-.738a40.621,40.621,0,0,1-3.84-2.121c-1.819-.94-4.015-1.6-5.094-2.287-2.728-1.614-5.163-3.855-8.874-4.431.666.419,1.047.742.882,1.028-1.364-.092-2.085-1.328-3.417-1.485-.437.839,1.276,2.071.036,2.767a16.4,16.4,0,0,1-3.688-1.042c-.79.465,2.531,1.687,1.741,2.158a33.65,33.65,0,0,0-5.636-2.878c-.56.388.5,1.688-2.958.157-.4.526,2.145,2.034.51,1.752-2.315-1.816-2.618-1.18-4.648-2.185-5.847-2.8-11.2-6.825-16.278-10.242-1.668-1.24-3.248-2.213-4.69-3.357-.675-.535-.868-1.01-1.346-1.42-.941-.835-2.521-1.909-3.518-2.776a36.345,36.345,0,0,0-5.512-4.376A31.357,31.357,0,0,0,120.8,463.2c-.712-.323-.992-.645-1.337-.4-.556.4.818,1.549.767,2.1-.216.245-1.456-1.042-1.727-.95,2.265,2.122-.115,1.287.028,2,.105.457,1.644,2.4,1.846,2.9.156.387-.266.359.161.848a78.377,78.377,0,0,0,6.476,5.566c.662.535.9,1.042,1.383,1.448,2.361,1.992,3.674,2.642,3.849,3.675-.492.249-1.929-.682-2.265-.231,1.778,2.1,3.147,4.021,6.357,6,1.172,2.84-4.074-.249-6.788-3.081-1.1.074-3.859-1.913-6-3.14-1.584-.715.552,1.628-1.754.1a43.853,43.853,0,0,0-6.761-5.6,66.755,66.755,0,0,1-5.048-4.477c-1.226-1.061-2.558-1.78-3.794-2.832-.694-.594-1.635-1.673-2.411-2.37-.9-.728-1.622-1.328-2.1-1.711-.813-.783-1.456-1.7-2.292-2.49-2.03-1.95-5.7-5.289-8.222-8.009-.666-.628-1.713-1.61-1.98-1.854-.932-1.061-1.19-1.84-2.025-2.725-.459-.5-1.341-.909-2.118-1.734-.684-.8-1.415-2.02-2.035-2.707-2.191-2.472-4.437-4.538-6.375-7.009.119,2.379,4.575,5.865,6.678,8.535.96,1.222,1.07,1.946,1.81,2.933,1.576,2.158,3.674,4.367,5.144,6.354.9.95-.271-1.369,1.465.475,3.188,3.459,3.849,3.9,7.23,7.166l-.519.549c1.879,2.121,2.168,1.563,3.675,3.039.234,1.309,2.457,2.605,4.349,4.316,2.03,1.891,5.668,5.271,6.49,6.036,1.691,1.881,2.586,1.955,4.387,3.237,1.575,1.121,2.388,2,3.739,2.956-1,.323.8,1.328,1.772,2.19.161.143.621.83.892,1.1.918.932,1.648,1.739,2.457,2.449,1.07.941,2.356,1.6,3.344,2.393.675.563.95.964,1.5,1.457a8.56,8.56,0,0,1,1.529,1.43c.193.254-.785-.166-.785-.055,0,.069.909.848.951,1.06.124.572-.524.655-.033,1.319s2.251,1.577,3.78,3.1c.8.8.933,1.706,1.659,2.624.33.424,1.851,1.3,2.218,1.729.225.258-.831-.152-.8-.023.17.572,1.713.857,2.425,1.392.216.162-.845-.083-.8-.023.11.079,1.548,1.084,1.727,1.208.289.272.868.6,1.125.863.129.133.216.756.335.844a16.608,16.608,0,0,0,2.531,1.235c.556.351.276.683,1.658,1.361a20.71,20.71,0,0,1,2.678.95,10.294,10.294,0,0,0,1.08.977c.918.563,2.209,1.033,3.128,1.6,1.336.821,1.093,1.047,2.342,1.619.055.023.648-.069.79-.023.652.253,1.92,1.06,2.54,1.208.767.184.606-.59,2.31.014,2.683.945,1.084.535,2.15.35a7.029,7.029,0,0,1,1.35.4c.368-.179-.046-.668-.326-.973,1.805.623,2.94.692,4.736,1.31.326-.489-1.075-1.651.588-1.388.992,1.038,4,1.96,4.91,2.6.262.18.193.637.441.78.611.35,1.892.668,2.576,1.014a17.178,17.178,0,0,0,1.8,1.111,40.948,40.948,0,0,0,5.158,2.071c.289.092.969-.217,1.5-.088.675.171,2.168,1.2,3.22,1.291,1.465.157,2.071-.29,3.683-.143.382.051,1.516.563,1.975.614,1.7.23.841-.415,2.867.037,1.534.341,2.912,1.171,4.533,1.683.974.3,2.526.571,4.028.931,2.706.6,6.922,1.665,8.006,2.071a5.782,5.782,0,0,0,1.337.313c1.782.54,2.053.83,3.293,1.093s1.548.088,2.747.318c2.287.429,5.433,1.1,7.427,1.554.918.226,1.754.554,2.673.775,3.353.756,5.645.655,7.51,1.208.036.009,1.07.24,2.089.475,1.02.194,1.948.374,1.989.383,1.2.087,2.063-.3,4.171-.014,3.78.484,5.75,1.554,8.2,1.761,1.139.111,2.2-.1,3.477-.05,1.893.073,3.693.4,5.54.4,1.956.069,5.254-.766,6.94-.171,1.456.457,6.049-.235,8.318-.323a23.1,23.1,0,0,1,2.788.217c3.307.152,4.125-.327,6.224-.549,6.2-.737,8.616.065,13.214-.539,1.709-.2,3.174-1.028,4.74-1.236,1.442-.217,2.852,0,4.207-.083,2.109-.106,6.091-.835,8.98-1.222,1.722-.189,2.806-.051,4.217-.29,1.139-.194,2.406-.664,4.06-1.029,1.2-.322,3.431-.65,4.1-.857,1.717-.54.22-.577,1.938-.89,1.594-.3,5.121-2.048,6.54-2.495.207-.069,3.014-.069,3.376-.849-.133.309-.845.637-.454.927,1.084-.359,2.131-.161,3.5-.493,1.07-.263,3.206-1.227,5.287-1.84,1.653-.563,2.765-.627,3.224-1.374,1.567-.507,1.443.175,3.477-.669-.248-.41-1.456-.1.4-.95,2.279.194,5.971-1.807,8.6-2.946,3.757-1.554,8.277-2.638,12.948-5.34,1.337-1.075,2.94-2.919,5.255-3.583.078.29-1.534.908-1.006,1.111,6-2.481,4.35-3.112,7.693-4.892.7.023-1.107,1.046-.96,1.166s2.118-1.152,2.113-.511c-2.191,1.337-6.614,4.085-7.877,4.6a16.979,16.979,0,0,0-1.98.751c-.872.489-1.387,1.061-2.36,1.559-1.567.8-3.3,1.591-5.048,2.393-1.773.738-3.56,1.457-5.181,2.246-1.139.548-1.957,1.212-3.1,1.715-1.938.862-3.9,1.393-5.934,2.177-3.822,1.508-9.724,3.707-13.872,5.04-.721.253-1.7.834-2.576,1.194-1.686.692-3.45,1.134-4.658,1.642a30.735,30.735,0,0,1-3.252,1.452,3.226,3.226,0,0,0-.781-.189c-.647.115-.8.406-1.318.535,2.779.517-2.577,2.02-2.145,3.076,3.146-.816,5.062-.78,8.369-1.8,1.7-.581,2.848-1.3,4.662-1.84,1.148-.341,2.223-.42,3.509-.7a21.114,21.114,0,0,0,4.079-1.3c.849-.323.987-.134,2.071-.553l5.3-2.135c2.324-.839,8.249-3.657,9.792-4.3,1.1-.429,2.954-.831,4.088-1.319.836-.378,2.31-1.31,3.114-1.78,2.03-1.1,5.163-2.712,6.973-3.574,1.2-.576,2.278-.862,3.293-1.383,1.052-.517,1.828-1.333,2.967-2.006,2.2-1.328,5.158-2.9,8.35-4.588,3.151-1.762,6.454-3.791,9.5-5.751,2.131-1.328,4-2.992,5.746-4.2,2.453-1.609,5.42-3.559,7.721-5.072,2.251-1.642,3.716-3.491,5.879-5.169,1.773-1.43,4.249-2.744,6.376-4.51,2.37-1.914,4.923-4.072,7.045-5.962,2.995-2.592,4.548-4.155,6.826-6.221,1.681-1.586,3.389-3.514,5.038-5.008.919-.894,2.338-1.858,3.229-2.8.859-.908,1.668-2.591,3.05-3.975a5.41,5.41,0,0,0,1.612-1.406c1.365-.853.01.867,1.181.129,2.209-2.121.161-1.549,1.681-3.279,1.387-1.042,2.071-2.55,2.8-3.218.707-.641.689.336,1.828-1.241,1.8-2.162-.786.019.367-1.568,1.773-1.189,3.418-4.182,5.526-6.492.964-1.056,1.561-1.171,2.641-2.453.523-.618.514-.955,1.171-1.794.68-.816,1.888-2.144,2.278-2.739.933-1.361,1.36-2.32,2.324-3.592.62-.826.3-.051.717-.365a16.781,16.781,0,0,0,3.734-5.169,27.718,27.718,0,0,1,2.338-4.5c.34-.332-.634,1.508-.455,1.406,1.144-1.821,1.309-4.154,2.908-4.915-.547.918-1.47,2.186-1.374,2.508,2.38-2.8,1.893-4.021,3.156-6.428.744-1.489,2.182-3.9,3.527-6.179.745-1.273,1.654-2.826,2.508-4.279.79-1.494,1.534-2.877,2.058-3.767.68-1.162,1.571-1.707,2.278-2.841a67.156,67.156,0,0,0,3.6-6.981c.413-.937.183-1.245.532-2.112a4.468,4.468,0,0,0,.928-1.149c.12-.3-.082-.756.239-1.457a16.924,16.924,0,0,0,1.337-2.531c-.069-1.6,1.414-4.418,3.385-9.4,3.895-9.66,7.032-20.838,9-27.063.3.014.6.263.932-1.227.046-1.047-.468.189-.354-.834.06-.8.786-4.27,1.112-5.6.243-.987.276-.189.528-.609.891-1.471,1.792-7.765,1.828-8.365.037-.189.63-1.521.754-2.033.983-4.077.716-5.866,1.152-8.5.129-.983.639-2.283.85-3.486.129-.743.124-2.228.29-3.565.11-.885.321-.973.473-2.1.128-.954,0-1.388.188-2.859.133-1.342.335-1.549.445-2.826.083-1.038-.128-1.3.06-2.869.248-2.061.616-3.172.8-4.957.12-1.12-.018-2.513.055-3.578.1-1.144.575-2.43.7-3.551.124-1.074.064-2.467.137-3.578.129-1.983.538-4.524.515-6.447.018-1.36-.211-1.581-.211-2.872-.042-2.979.2-7.36-.1-11.478-.1-2.822-.188-5.639-.262-7.9-.22-3.113-.785-4.791-.8-6.414-.046-1.706.422-2.606.289-4.372a48.422,48.422,0,0,0-.978-4.948c-.157-.82.023-1.074-.143-2.158a17.083,17.083,0,0,1-.62-2.813c-.078-1.042.166-.165.257-.77.18-1.332-.776-5.441-1.185-7.106-1.019-4.887-1.639-10.979-2.659-14.908-.253-1.106-.689-2.407-.891-3.495-.189-1-.106-1.739-.354-2.9-.528-2.739-1.607-5.483-2-6.94a13.911,13.911,0,0,0-.46-2.126c-.427-1.309-.863-2.066-1.245-3.4-.39-1.374-.39-2.97-.822-4.3-.454-1.495-1.2-2.057-1.653-4.022-.652-2.771-1.4-3.389-2.154-5.372-.354-.954-.23-1.623-.708-2.831-.381-1-1.107-2.223-1.571-3.265-2.191-4.883-1.773-5.33-2.879-8.226-.253-.609-.869-1.42-1.42-2.536-.753-1.545-1.231-3.118-1.708-4-.575-1.061-1.011-1.263-1.594-2.444-1.346-2.974-3.67-7.7-5.42-11.058a20.123,20.123,0,0,1-1.934-3.906,31.152,31.152,0,0,0-5.121-8.766c-.689-1.586-.547-2.273-1.286-3.486-2.2-3.606-6.872-7.161-6.849-9.388,1.043,1.282,2.908,4.865,3.17,3.984q-1.91-2.787-3.67-5.344-1.895-2.45-3.629-4.681c-2.333-2.946-4.239-5.741-5.966-8.162.17-.512,2.03,2.606,1.832,1.314-1.226-2.075-5.038-5.985-5.649-7.617-1.557,0-3.505-4.312-5.08-5.239,1.056,2.153-2.761-3.163-4.24-4.016.473-.138,1.534.512.813-.775a77.784,77.784,0,0,0-6.5-5.893c-.707-.517-.39.383-1.957-1.121-1.235-1.36-1.286-1.66-2.879-3.32-1.769-1.923-4.713-3.827-4.685-4.6.376-.314,2.324,1.688,2.7,1.379a71.6,71.6,0,0,0-6.228-6.23c-1-.825-1.585-.576-2.687-1.356-1.2-.931-5.526-4.27-5.787-4.473-.106-.088,1.538.549,1.5.475-.657-1.2-1.69-.968-2.411-1.674-.271-.263.11-.761-.111-1.047-.381-.5-1.69-1.416-2.186-1.969-1.713-1.439-3.119-.941-3.945-2.066.156-.2,1.143.609,1.414.549a71.685,71.685,0,0,0-8.626-6.866c-1.277-.032,2.655,1.941,1.369,1.9-2.834-1.665-1.506-1.785-3.982-3.265-.891-.955,1.314-.032-1.442-1.826-1.392-.968-.979.014-2.164-.724-.115-.742-1.653-1.074-2.466-1.582-1.02-.645-2.026-1.568-2.995-2.144a10.6,10.6,0,0,1-1.428-.466,9.727,9.727,0,0,1-2.444-1.646c.294-.3,2.751,1.466,3.872,2.107-.661-1.964-6.127-4.113-9.232-6.055-1.534-.922-2.6-2.14-4.226-3.016-1.144-.623-1.6-.65-2.7-1.176-3.569-1.688-4.276-2.01-6.729-3.011-.29-1.342-5.714-3.025-8.53-4.367-.5-.235-1.708-1.13-2.535-1.554-1.6-.848-3.358-1.393-4.754-2.006-.528-.244-1.906-1.088-2.609-1.434-4.161-2.08-5.58-2.094-5.989-2.956-.248-.618-4.134-1.462-4.883-1.72-1.323-.438-1.479-.729-2.737-1.13a21.444,21.444,0,0,1-2.164-.535c-.987-.364-1.336-.784-2.691-1.305a5.346,5.346,0,0,1-1.461-.272c-3.027-.973-7.615-2.444-11.285-3.62-.859-.111.606,1.107-3.059.009-2.007-1.033,1.883.106,1.672-.572a51.18,51.18,0,0,1-7.854-2.236c-.887-.249-1.052.009-2.21-.323-.946-.258-1.741-.761-2.815-1.014-3.758-.9-8.911-2.1-12.356-2.661-2.255-.267-4.6-.125-6.706-.346-2.388-.249-4.561-.655-6.8-1.01-2.25-.291-4.556-.576-7.2-.71l.078-.936c-2.747-.433-2.425.189-3.748.249-.717-1.314-3.95-.775-7.4-.95-.156-.023-1.667-.2-2.227-.277a35.721,35.721,0,0,0-6.7-.2C273.2.516,277.16.424,275.185,0c-2.954.2-5.811-.014-8.98.083-1.424.065-2.655.235-4.478.291-2.237.037-4.58-.4-6.766-.369-1.47.023-3.638.424-5.227.5-3.982.36-8.947.291-14.257.775-4.469.641-9.264,1.333-13.4,1.928-3.56.563-7.11.715-10.477,1.383-1.194.235-2.356.83-3.6,1.2-6.33,1.84-9.876,1.582-14.823,2.988-1.189.369-2.416.747-3.614,1.121a16.346,16.346,0,0,1-2.279.314c-1.414.433-2.806,1.287-4.221,1.715a21.851,21.851,0,0,0-3.8.572c-1.2.341-2.985,1.305-4.207,1.734-2.586.922-5.705,1.512-7.294,2.172-.716.267-.767.535-1.332.761-1.006.4-4.69,1.835-6.371,2.49-2.089.765-4.437,1.356-6.467,2.3-1.7.761-3.564,1.794-4.795,2.315-1.075.456-1.993.586-2.907.991a29.335,29.335,0,0,0-2.646,1.522c-.335.134-2.062.816-2.848,1.125-.188.074-1.015.4-1.428.563.055-.023-1.268.235-.845.037-.846.4-1.626,1.107-3.261,1.992-1.429.779-2.577,1.162-3.441,1.678-1.341.816-2.388,1.946-3.729,2.688-2.9,1.628-5.214,2.061-7.106,3.039-3.638,1.822-7.661,5.151-12.7,8.549-4.529,3.214-9.5,6.636-13.646,9.85-2.416,2.057-5.255,4.911-7.358,6.709C79.38,69.39,68.746,78.156,66.533,82.7c.3-.581.56.456.547.516-.2.945-.643,1.282-.514,1.619.069.175.831-.152,1.208.1.992.646-.354,1.356,2.136-.051,2.535-1.434,2.044-1.305,5.516-4.09,1.594-1.314,2.618-1.775,2.94-2.366.207-.369.795-.48.68-.378.813-.715,2.145-2.14,3.28-3.08.818-.678,1.814-1.236,2.443-1.775A23.922,23.922,0,0,1,86.834,71c1.337-1.176,2.94-1.923,4.331-3,1.052-.8,2.411-2.126,3.417-2.9,2.728-2.121,5.571-3.7,8.006-5.515a23.07,23.07,0,0,1,2.255-1.96c1.52-1.042,3.371-1.845,5.778-3.458,1.534-.968,3.514-2.573,5.507-3.809,1.332-.821,2.37-1.19,3.275-1.794,1.635-1.074,2.659-2.163,3.587-2.656.643-.337,1.966-.549,2.935-.927a71.823,71.823,0,0,1,6.233-4.044c.79-.466,2.072-.862,2.719-1.222,1.245-.636,1.328-1,2.5-1.6,1.557-.789,1.355-.184,2.875-.927,2-1.983,3.624-2.167,5.851-3.2.74-.383,2.922-1.822,2.724-1.181-1.7.65-3.55,1.429-3.119,2.038A36.346,36.346,0,0,0,152,30.863c.574.387,2.907-1.291,4.832-1.914,1.552-.5,1.116.2,2.981-.6,3.215-1.222,6.462-3.537,8.832-3.754.441.3-3.132,1.208-1.819,1.384,1.728-.7,1.989-1.388,3.863-2.246a39.573,39.573,0,0,1,4.258-1.254c1.107-.36,2.389-1.1,3.4-1.448.17-.06,1.713-.263,2.2-.406,1.015-.291,2.563-1.038,2.834-.83-.069.433-2.517,1.107-2.577,1.54,3.657-1.586,8.75-2.693,9.747-3.279a5.615,5.615,0,0,1,1.346-.613c4.382-1.762,4.313-1.056,8.557-2.14,1.364-.35,2.577-.927,3.5-1.1,1.824-.341,3.555.258,5.82-.908-.717.18-.965-.1-.083-.369,1.562-.217,2.632.212,4.5-.037,2.674-.346,5.126-1.342,7.841-1.8,1.874-.323,2.218.2,4.446-.037.349-.069,2.843-.59,3.569-.742.689-.134,2.117-.853,2.889-.452.381.47-2.669.59-2.8,1.01,2.228-.2,4.846-.563,7.225-.858a57.293,57.293,0,0,1,5.829-.309c1.575-.443-.965-.36.666-.636a77.191,77.191,0,0,1,8.722-.433c.377-.023.349-.272,1.438-.272s1.644.249,2.935.207c2.8-.065,5.985-.563,8.7-.383,1.176.051.606.318,2.186.35,3.284.106,7.542-.521,10.146.369-.013.249-1.272.129-1.456.323a55.7,55.7,0,0,0,12.25,1.037,21.181,21.181,0,0,1,2.2-.392c1,.06,3,.424,4.309.563,1.745.189,3.362.111,4.3.563.211.788-3.114.309-3.693.811,4.313.447,3.877-.249,5.838-.433,3.564.037,4.91,1.227,7.05,1.7,2.145.493,4.612.392,6.357,1.282-2.825-.051-8.2-1.042-12.126-1.485-.036-.3.166-.641-1.368-.747-1.576-.5-1.052.383-2.21.373-1.814.014-7.073-1.273-12.13-1.54-1.943-.074-2.908.111-4.327.018-1.254-.083-2.517-.415-3.578-.516a43.573,43.573,0,0,0-5.76-.29c-1.607.1-1.731.715-3.6.595-1.893.074-.57-.729-2.885-.535-2.475.945-5.76-.175-10.082.4.023-.244.9-.313.68-.609-3.367.433-6.688.862-9.319,1.2-2.724.3-2.141-.129-3.62,0a15.413,15.413,0,0,1-2.852.489,34.923,34.923,0,0,0-3.656-.171s-3.124.443-2.866.4c-2.421.443-5.177,1.549-7.74,1.96-.473.078-1.874-.014-2.912.078a71.614,71.614,0,0,0-9.2,1.886c-.4-.286,2.021-1.245-.859-.595-3.317.544-.832.908-1.966,1.176-2.476-.129-5.452,1.222-8.456,1.937-1.07.263-1.5.06-2.9.36a6.541,6.541,0,0,1-1.355.544c-.965.244-1.59.263-2.141.424-1.736.553-3.311,1.291-4.786,1.679-.753.2-1.713.143-2.186.286-3.482,1-5.7,2.319-8.865,3.2-1.291.346-2.117.24-3.6.715a96.526,96.526,0,0,0-11.382,4.763c-.68.309-.854.171-1.415.4-.85.346-.845.576-1.933,1.024-4.189,1.752-11.056,5.036-14.487,6.714a16.445,16.445,0,0,1-2.458,1.554c-1.088.5-.647-.051-2.089.715-1.5.789-2.655,1.868-4.277,2.771-.712.41-2.1.742-3.353,1.457-2.815,1.559-6.54,4.164-8.667,5.321-.951.521-1.649.567-2.664,1.217-1.125.752-2.191,1.918-3.4,2.781a12.414,12.414,0,0,1-3.206,1.743c-.854.526-2.044,1.655-2.893,2.213,0,0-1.81,1.051-2.472,1.535-3,2.029-3.219,2.292-3.339,1.6-3.04,3.057-6.738,6.133-10.936,9.638-.634.512-.308.175-.675.323-1.3.53-3.932,3.242-5.673,4.57-2.062,1.66-3.9,2.338-5.852,4.408.014.429,1.125-.392.386.41-1.9,2.14-5.075,4.316-6.959,6.437-.928.991-1.75,2.55-2.636,3.546-.381.369-3,2.924-4.18,4.072-2.444,2.444-5.388,6.152-7.707,8.766-.739.863-1.966,1.688-2.655,2.541-.7.835-1.438,2.121-2.118,2.984-.652.83-1.745,1.886-2.411,2.753-.813,1.065-.854,1.424-1.654,2.411-.9,1.1-2.168,2.223-2.935,3.279-.524.7-.7,1.323-1.548,2.5-.914,1.176-1.874,2.416-2.692,3.472-1.212,1.739-2.149,3.316-3.16,4.925-1.162,1.771-2.613,3.44-3.858,5.349-.951,1.462-1.8,2.947-2.646,4.422-.785,1.513-1.58,3.007-2.485,4.45-.51.812-.648.794-1.249,1.817-.45.756-1.029,2.287-1.649,3.279-.2.318-1.047,1.1-1.415,1.724-.983,1.877-1.713,4.658-2.49,6.138-1.548,1.365-1.621,2.393-2.981,5.054-1.69,3.537-2.834,6.221-3.932,8.678-1.934,4.164-4.29,8.946-6.049,13.355-1.249,3.085-1.6,4.482-2.476,6.907-.992,2.813-1.621,5.423-2.623,8.411-1.309,4.658-2.8,9.269-4.042,13.991-1.1,4.749-2.4,9.508-3.064,14.447.735-.222,1.263-5.179,2.117-4.791-.335,1.692-.818,6.488-1.539,7.876-.854,1.89-.551-.646-.974-.927a86.8,86.8,0,0,0-2.012,10.823c-.17.982-.648,1.973-.762,2.854a5.121,5.121,0,0,1,.276.775c-.06,3.237-1,7.179-1.107,9.466-.271,3.607-.629,8.342-.937,12.437-.115,1.471-.533,2.264-.73,4.385a23.967,23.967,0,0,1,.078,2.938c-.11,1.715-.542,2.633-.482,3.67.041,1,.367,3.818.781,3.676.56-1.647-.427-4.842.367-5.128.119,4.03.078,7.571.055,10.26.009,1.72.22,3.44.271,4.385.018,1.167-.335,2.67-.358,3.689a76.409,76.409,0,0,0,.666,10.251c.684,4.8.859,12.4,1.874,14.558.39.936.951,1.969,1.19,2.785.96,3.338.62,4.869.951,7.263.322,1.84.955,3.444,1.2,4.984,0,0-.551.973.11,1.471a2.953,2.953,0,0,1,.078-1.507c.533,2.965.923,6.455-.188,3.785.363,2.61,1.608,3.145,1.993,4.8-.028-.12.179,4.229-.372,3.1-.73-2.232-.271-2.269-.537-3.638-.845.733.712,5.888,1.81,9.384.367,1.157,1.047,2.259,1.47,3.4.666,1.674.726,2.679,1.249,3.449.969.41-1.424-4.62-.547-4.413,1,4.773,3.968,11.3,4.212,14.77a10.3,10.3,0,0,0-1.291-2.652c1.5,3.823,2.168,7.614,3.358,8.909-.028-1.669-1.952-4.136-1.392-4.943.5,1.029,1.01,2.1,1.6,3.311.469.973,1.382,3.629,1.773,3.228-.4-2.693-1.966-5-2.839-6.728.041-1.9-1.415-5.543-2.365-8.429-.813-2.417-1.484-4.93-2.136-6.968-.423-1.462-.593-.977-1.1-2.725-.537-1.882-.12-1.882-.542-3.625-.8-3.4-1.892-6.308-2.549-9.882-1.144-5.69-1.97-9.988-2.724-15.8-.593-3.851-1.121-8.365-1.548-11.547-.184-1.18-.629-2.379-.753-3.587-.156-1.508.023-2.993-.083-4.39-.083-2.241-.188-5.119-.427-7.263-.179-1.6-.491-2.057-.579-3.625-.083-1.194.142-2.693.225-4.38.184-4.515-.349-9.984.142-12.372a11.674,11.674,0,0,0,.322-3.625c.032-1.388.266-1.6.3-2.9.046-2.656.051-6.1.326-8.72.124-1.448.427-2.6.5-3.6.069-.918-.184-1.858-.119-2.933.083-1.134.358-2.209.547-3.6.4-3.32.593-7.65.886-9.421.188-1.065.758-2.361,1.093-3.514.657-2.453.845-4.436,1.36-6.4.133,1.78.574-.18.813-1.315.8-3.9.119-3.878.57-6.552.17-1.042.845-2.772,1.167-4.21.216-.955.018-1.614.294-2.919.184-.839.9-3.2,1.433-4.883.547-1.9,1.286-4.828,1.782-6.295.441-1.309.932-1.969,1.355-3.389.785-2.49,1.461-5.322,2.15-7.692.5-1.669,1.236-4.344,1.681-5.575a7.9,7.9,0,0,0,.615-.548c1.332-1.716,2.8-7.18,4.226-10.823.882-2.121,2.953-6.626,4.887-10.827a94.79,94.79,0,0,1,4.667-8.734c1.525-2.075,1.548-3.334,2.5-5.243a154.322,154.322,0,0,1,9.154-14.8c1.892-2.776,3.863-5.9,5.691-8.393,1.562-2.19,2.995-4.639,4.455-6.612,1.18-1.614,2.462-2.928,3.748-4.422,2.145-2.587,3.982-5.267,5.365-6.821,1.089-1.24,2.168-1.627,3.2-2.978.818-2.343,3.55-4.755,6.362-7.867.909-1.042,1.405-1.817,2.324-2.771,1.713-1.743,3.665-3.417,5.149-5.072.822-.908,1.052-1.393,1.879-2.213.482-.516,2.085-1.485,2.329-1.738.2-.212-.266-.083.4-.632,1.222-1.005,2.448-1.365,3.408-2.684.96-1.074-1.084-.517.951-2.172a2.891,2.891,0,0,1,1.309-.71c.827-.327.1.171,1.309-.71,2.145-1.6,4.134-3.827,6.968-6.258.868-.729,2.388-1.582,3.536-2.5.919-.756,1.58-1.572,2.7-2.4,2.429-1.854,5.764-3.91,8.805-6.248,1.635-1.264,3.036-2.4,4.606-3.463,1.282-.839,2.444-1.291,3.771-2.13C127.9,53.73,134.456,50,137.175,48.017c.891-.627.289-.7,1.653-1.453,1.626-.968.859.355,2.8-.9,1.87-.968,1.727-1.434,3.6-2.4,3.22-.669,5.98-2.725,9.182-4.159l7.983-3.832c2.824-1.277,5.622-2.43,7.707-3.32,1.121-.475,2.673-.895,4.042-1.5,1.056-.5,2.466-1.176,3.284-1.457,2.026-.673,4.106-1,6.256-1.688,3.4-1.176,7.353-2.6,11.575-3.8,2.034-.563,3.7-.826,5.585-1.3,2.126-.512,3.918-1.18,6.191-1.794,2.2-.59,4.313-.89,4.9-1.056,1.391-.392,2.25-.89,3.417-1.125,3.734-.7,6.7-.733,9.223-1.314.886-.231,2.448-.807,3.459-.955,1.86-.249,3.614-.129,5.746-.323,3.917-.457,9.066-.816,13.494-1.259.809-.074,2.6-.5,3.537-.553,1.268-.032,2.214.244,3.582.171,3.647-.157,7.23-.839,11.382-.729,1.089.023,2.384.166,3.569.152,1.8-.023,3.776-.4,5.7-.429a54.316,54.316,0,0,1,5.7.355c1.181.143,3.67.618,4.226,1.107-3.987-.129-8.47-.5-11.354-.318-10.767.064-24.808.6-34.017,2.006a28.11,28.11,0,0,0-2.774.738c-.694.138-.551-.1-.726-.078-.634.065-.62.286-.68.3-3.683.636-5.263,1.056-6.191,1.715-2.012.659-5.062.779-6.233,1.3.652.719.239,1.37,1.8,1.937-3.854.715-6.1.549-7.482,1.923-.772-.129-1.489.36-2.054.424-1.474.166-1.221-.217-2.861.083-1.236.221-1.484.613-2.669.876-1.6.355-3.582.106-5.58.853-1.218.936,2.838-.129.872.549a20.087,20.087,0,0,0-6.853,1.549c-.877.272-.964.078-2.071.443-1.148.383-1.525.715-2.623,1.01-3.036.821-4.63.586-6.912,1.494-1.273.489-2.632,1.568-4.433,2.218-1.093.4-2.356.424-3.435.858a4.458,4.458,0,0,1-2.554,1.194c-1.622.115-3.877,1.471-5.9,2.287-.823.309-2.958,1.12-4.979,1.886-1.98.862-3.826,1.66-4.162,1.808-1.231.632-1.754,1.268-3.013,1.872a9.157,9.157,0,0,0-2.067.576,28.119,28.119,0,0,1-2.457,1.4c-1.488.715-2.921,1.148-4.506,2.02-1.07.586-1.97,1.448-2.917,2.02a55.717,55.717,0,0,1-7.61,3.73c-1.7,1.217-3.863,3.417-4.713,3.117-.285-.1,1.089-.881,1.011-1.061-2.6,1.54-5.209,3.071-5.08,3.846-.4-.2-1.649.563-2.637,1.125-.882.5-3.661,2.213-4.768,3.039s-1.387,1.425-2.687,2.306c-1.442,1.042-2.87,1.785-4.726,3.1-3.463,2.476-7.257,5.713-9.962,7.895-.933.715-2.012,1.231-2.94,2-.694.572-.611.784-1.493,1.513a17.528,17.528,0,0,0-1.741,1.231c-.666.59-1.2,1.568-1.856,2.167-.91.821-2.191,1.125-2.834,2.144-.046,1.093,3.151-2.988,2.7-1.24-3.835,3.8-5.971,4.653-8.222,7.733-1.378,1.065.051-1.056-1.02-.028-.216.742-2.6,3.246-4.157,4.846-2.242,2.278-5.121,4.97-7,7.013-.482-.263,3.211-3.338,1.911-3.048-2.14,1.886-3.9,4.658-6.063,6.954-1.442,1.522-3.3,2.3-3.941,4.113-1.011,1.633,1.525-1.139,1.9-1.194-.078.9-2.1,2.753-3.367,4.57-.749,1.079-.57,1.425-1.456,2.457a20.428,20.428,0,0,0-1.755,1.329c-1.061,1.014-2.071,3.094-2.039,2.019,2.852-3.463,5.806-6.183,5.108-7.742-2.765,3.864-5.925,7.659-8.915,11.809-1.516,2.057-3.119,4.109-4.625,6.281-1.456,2.2-2.912,4.454-4.327,6.778-.427,1.776,2.159-1.9,2.572-.894l-2.669,4.187c-.308-.2.836-1.762.124-1.6-6.164,11.344-13.237,20.742-16.26,30.744-.308-.724-1.125,1.632-1.438.922.478-1.176,1.631-3.186.827-2.767a61.666,61.666,0,0,0-3.642,7.766c-.712,1.987-.978,3.808-1.3,4.864s-.951,2.26-1.291,3.321c-.11.336-.243,1.521-.427,2.125-.276.844-.753,1.8-.974,2.67-.469,1.72-.225,1.822-.56,2.827a54.083,54.083,0,0,1-2.8,6.571c-.455,1.9,1.1-1.107.262,1.577-.744.849-.882,1.471-1.507,3.256-.289.825-.56.756-.753,1.263a12.048,12.048,0,0,0-.4,2.107c-.491,1.79-1.966,4.8-2.251,6.041-.432,1.766-.7,4.459-1.1,6.341-.147.71-.372.779-.505,1.351a8.874,8.874,0,0,1-.3,2.126c-.317,1.092-.776,1.729-.969,2.706-.2.913.234.715.11,1.481a7.949,7.949,0,0,0-1.011,3.435c.289,1,1.144-1.914.919.171-.625,2.822-1.484,4.809-1.814,6.917-.285,2.236-.069,3.536-.3,4.994-.05.327-.547-.411-.652.636.014-.162.873,1.425.271,2.195-.524,1.12-.23-.1-.74-.1-.864,3.551-.753,5.829-1.01,9.223-.234,2.946-.753,5.99-1.02,8.65a21.792,21.792,0,0,0,.069,6.308c.064-.553.055-1.411.239-1.42-.487,2.25,0,4.33-.051,6.424-.032,1.844-.4,2.356-.372,4.279.028,1.545.446,1.688.409,3.564-.354.162-.423-.8-.758-.705.023,2,.335,2.993.427,4.994.032,1.148-.138,2.172-.051,3.574.335,4.823.974,10.435,1.442,14.935.156,1.951.051,3.819.225,5.723a3.181,3.181,0,0,1,.45.669c.11.442.156,1.618.239,2.126.289,1.821.322,4.357.6,6.409.2,1.448.666,3.034.951,4.911.285,1.951.56,3.993.9,5.649.23,1.024.831,2.444,1.084,3.431.175.687-.023.88.1,1.438.781,4.012,2.4,8.591,3.564,13.087.831,3.339,1.8,6.94,2.848,10.316.868,2.66,1.847,4.763,2.806,7.336.464,1.305.781,2.79,1.277,4.086.409,1.051,1.052,1.992,1.571,3.218,2.687,6.009,5.48,14.1,8.754,20.262.482.95,1.291,1.942,1.879,3.039.827,1.7,2.43,5.561,3.086,4.8-1.819-3.772-3.312-6.474-5.516-10.73-1.539-2.919-2.9-6.281-4.193-9.412-1.323-3.094-2.531-5.925-3.486-8.162-.464-1.065-.928-1.475-1.323-2.545-.262-.71-.432-2.246-.62-2.8-.694-2.121-2-4.837-2.085-5.3-.23-.881-.014-1.361-.276-2.154a5.885,5.885,0,0,1-.565-.562c-.216-.475-.436-1.494-.629-2.039-1.4-3.873-2.921-8.826-2.264-9.7.877,2.629,1.888,6.562,2.6,8.859.735,2.213,1.621,4.283,2.49,6.649.257.673.106.844.3,1.393,1.488,4.15,4.148,11.44,6.265,15.812,1.208,2.614,1.906,4.809,3.073,7.166,1.015,2.024,2.255,3.984,3.4,6.229,1.033,1.974,1.856,4.183,2.825,5.7.629,1.047,1.364,1.923,2.012,2.933.841,1.3,2.095,4.3,2.517,3.454-1.406-2.352-2.581-5.068-4.033-7.438-.753-1.2-1.236-1.734-1.9-2.988-.4-.775-.432-1.356-1.052-2.633-1.144-2.393-2.65-4.708-3.959-7.5-4.023-8.687-7.468-19.478-9.825-25.73-.4-1.079-.873-1.527-1.19-2.587-.413-1.407-.445-3.1-.919-4.9-.505-1.8-1.1-3.233-1.69-5.395-.79-2.979-1.86-6.806-2.7-11.026-.763-4.233-1.773-8.766-2.389-13.156-.193-1.328-.441-1.512-.616-2.766-.459-3.786-.859-7.079-1.272-10.519-.473-3.38-.487-4.74-.813-7.728-.161-1.3-.45-2.43-.469-3.505-.023-1.213.285-1.678.216-2.85-.064-1-.413-1.567-.537-2.794a11.692,11.692,0,0,0,.069-2.126c-.073-.908-.266-.954-.308-2.107-.05-1.508.427-3.182.478-4.957.11-2.449-.193-5.944-.051-9.163.078-1.079.427-2.688.51-3.518.193-1.942.193-4.542.188-4.925.009-.89.39-2.564.39-4.2,0-1.088-.367-1.771-.321-2.85.05-1.217.381-2.079.487-3.49.17-1.96-.032-4.049.216-6.355.4-3.37,1.217-6.64,1.778-10.43.179-1.388.276-2.873.528-4.2.234-1.148.831-2.729,1.13-4.094.974-5.05,2.117-10.68,3.27-15.135a34.476,34.476,0,0,1,1.217-3.315c.657-1.872,1.066-3.892,1.727-6.087.345-1.148.781-2,1.139-3.329.321-1.268.491-2.347.873-3.4.841-2.32,2.338-5.649,2.995-7.143,1.451-3.394,1.125-3.97,2.076-6.714.2-.572,1.121-2.384,1.709-3.855.514-1.291,1.3-3.26,1.823-4.556.464-1.139.436-1.771.8-2.721,1.727-4.454,2.862-5.192,3.955-7.452.7-1.415,1.148-3.131,1.856-4.56.574-1.148,1.612-2.439,2.237-3.588.592-1.079.887-2.125,1.424-3.214.413-.876.827-1.014,1.525-2.365,1.052-1.983,2.953-5.368,4.166-7.314.514-.793,1.125-1.4,1.741-2.227.652-.89,1.231-2.038,1.874-2.947.859-1.212,1.6-1.849,2.2-2.748-.244.364.813-1.577.974-1.872a29.536,29.536,0,0,1,3.518-5.22c.133-.143.179.323.308.217a32.318,32.318,0,0,0,3.486-5.239c.785-1.033,1.649-1.669,2.333-2.614.1-.125.712-1.471,1-1.877.395-.563.675-.544,1.01-.982a7.846,7.846,0,0,1,.712-1.208c3.032-3.948,5.466-6.3,7.335-8.43.588-.7,1.4-2.2,2.012-2.882a10.263,10.263,0,0,0,1.658-1.328c.854-.95.868-1.374,1.695-2.232.519-.562,1.539-1.245,2.173-1.793,2.871-2.532,3.675-4.058,5.668-6.147.62-.636,1.755-1.277,2.7-2.227,2.218-2.149.831-1.554,2.535-2.379,1.447-.659,5.062-4.833,8.314-7.406,2.085-1.632,4.262-2.841,5.663-4.058,1.112-.968,1.915-2.112,2.94-2.979,3.15-2.416,7.973-6.078,11.726-8.669.776-.5,1.846-.862,2.5-1.259,1.829-1.107,5.149-3.385,6.288-4.316.809-.659,1.112-1.462,2.012-2,1.369-.839,3.059-1.347,5.03-2.426,1.837-1.01,4.019-2.545,5.319-3.265a17.646,17.646,0,0,1,2.007-.678,72.088,72.088,0,0,0,7.284-3.984c3.266-1.863,6.311-2.564,8.291-3.528,2.687-1.181,5.255-2.85,8.061-3.957,1.318-.553,3.11-.894,4.6-1.54a23.712,23.712,0,0,1,2.471-1.245,10.329,10.329,0,0,1,2.049-.457c.744-.263,2.31-1.125,3.808-1.614,1.975-.632,3.371-1.25,5.181-1.9,2.462-1.028,10.357-2.928,11.919-3.472.331-.106.262-.364,1.263-.59a12.77,12.77,0,0,0,2.072-.244c2.622-.544,4.188-1.088,5.378-1.194,2.793-.231,7.455-.968,9.4-2.08,2.443.438,4.262-.507,6.761-1.194,3.408-.968,3.6-.715,6.793-1,1.879-.157,3.982-.516,4.772-.549.17,0-.1.355.051.374,1.777.148,6.03-1.194,7.422-1.328,1.263-.147,2.88.023,4.125-.055,1.268-.083,1.5-.36,2.71-.475,3.743-.3,8.855-.189,13-.429,1.277-.051,2.3-.263,3.408-.244,1.071.032,1.479.3,2.747.35,1.107.042,2.3-.06,3.413-.028.771.581-.193.5.68.932.987.074,3.523-.231,3.4.207-.547.669-3.505.3-5.439.378-2.471.12-5.782.456-8.134.475-1.484.051-2.329-.355-4.093-.332-4.023.06-4.652.586-6.752.77-1,.055-3.1-.074-4.06.387.937-.083,2.7.456,1.415.609-3.073.729-4.217-.217-6.141-.106a5.425,5.425,0,0,0-1.328.332c-1.437.189-2.806-.055-3.316.761,2.2-.4,4.221-.309,2.756.244-2.88.171-3.619-.443-6.182-.286-1.911.138-3.638.775-6,1.125-.091,0-1.442.088-2.048.129-2.715.4-8.925,1.688-10.762,1.637.593.678-1.6,1.227-2.439,1.526-.3.092-3,.719-3.987.83-.2.023.079-.364-.1-.369-.22,0-1.1.351-1.318.341-.166-.014-.657-.4-.8-.378a23.107,23.107,0,0,0-4.612,1.19c.248.161.188.9-.289,1.462-2.508.83-2.237.078-.859-.521-2.876.5-2.678,1.36-3.082,1.545-1.176.53-2.582,1.36-3.941,1.028a7.094,7.094,0,0,0,2.48-1.162c-1.97.111-4.235,1.388-6.481,2.038-1.419.457-2.057.383-3.321.812-.849.291-.468.59-1.152.821-.781.267-1.764.327-2.683.576a52.566,52.566,0,0,0-8.933,3.338c-1.011.466-1.957,1.365-2.917,1.845-1.6.7-7.735,3.7-7.96,3.837-1.548.664-3.918.968-5.227,1.692-1.778,1.042-2.081,1.868-3.8,3.025-.974-.157-3.119,1.554-3.661,1.789-.174.074-1.01.194-1.378.323-2.3.825-4.065,2.3-6.393,3.873-1.117.489-1.13-.2-3.193,1.3-.381.789,3.092-1.047.391.636-2.572,1.614.353-1.374-2.324.111-3.4,2.061-.813,1.642-1.144,2.024-1.589,1.319-2.14.622-3.275,1.19-.8.387-1.98,1.462-2.816,1.928a10.126,10.126,0,0,0-1.892.844c-.73.461-1.9,1.5-2.71,2.089-1.313.95-2.774,1.9-3.886,2.771-1.515,1.134-6.329,4.33-7.275,5.082-2.536,1.9-4.938,5.3-8.052,7.392-1.111.452-.11-.221-.487-.572-2.59,2.213.028.595-1.594,2.333-2.572,2.767-6.6,5.275-8.52,7.858-.354-.152.276-.83-.023-1.015-2.177,1.342-3.541,3.449-5.227,5.413-1.447,1.633-3.587,4.035-4.134,4.556-.808.775-1.4.89-2.168,1.711-.735.821-1.217,1.909-1.98,2.827-1.231,1.489-3.119,3.255-4.63,5.026-.648.761-.638,1.075-1.654,2.186-1.263,1.531-3.013,3.306-4.524,5.141-1.052,1.278-2.113,2.79-2.963,3.763a32.39,32.39,0,0,0-2.319,2.541c-.666,1.01-.841,2.241-1.53,3.131-.533-.4-4.726,5.128-5.677,6.9-.5.807-.9,2.366-1.373,3.205-.3.535-1.194,1.425-2,2.786a97.219,97.219,0,0,0-4.91,9.028c.413-1.088.524-2.172-.652-.369-1.249,2.661.115.72-.028,1.559-1.309,2.246-1.833,3.9-2.655,4.791-.634.65-.119-.286-.951,1.047a4.3,4.3,0,0,0-.455,1.3c-.629,1.323-2.122,3.085-1.695,3.754-.381-.554-1.249,1.3-1.911,2.107a25.737,25.737,0,0,1-3.027,8.429c-.064.1-.285-.175-.345-.157-.694.268-1.6,3.593-2.209,5.022a26.256,26.256,0,0,0-1.171,2.481c-.592,1.628-.831,3.209-1.4,4.611-.487,1.208-1.277,2.417-1.846,3.7-.763,1.96-1.722,4.482-2.37,6.447-.6,1.853-1.116,3.762-1.566,5.676-.4,1.928-.8,3.832-1.327,5.63-1.318,4.238-2.457,9.1-3.229,12.612a131.56,131.56,0,0,0-3.528,18.159c-.253,1.743-.854.863-1.107,2.606.8,2.149-.188,5.612-.606,8.923-.262,2.854-.326,4.491-.588,6.838-.165,1.5-.276,3.343-.354,5-.018,1.665-.028,3.141-.037,3.9-.037.742-.271,1.747-.266,2.052.028,1.78.423,3.085.381,4.809-.009,4.791-.68,9.933-.083,14.374.1-1.725.349-3.948.482-4.805.051-.189.363-1.365.363-1.365.064-1.421-.96-3.984-.041-4.782-.289,2.656.469,3.753.62,6.133.073,1.222-.174,1.554-.161,2.73-.009,1.669.326,2.734.358,4.076.051,1.457-.069,2.725.046,4.09.115,1.31.39,2.131.569,3.376.069.774.041,3.988.638,3.357-.184-3.957-.367-7.932-.505-10.855-.2-3.394-.129-6.76-.289-10.136s-.225-6.774-.152-10.237c.041-2.485,0-6.488.142-7.484.2-1.918.8-3.624,1.024-5.372.276-2.043.322-4.33.482-6.659.193-2.319.372-4.68.675-6.884.188-1.365.519-2.071.638-3.339a32.8,32.8,0,0,1,.317-4.076c.188-.922.923-2.283,1.162-3.251.4-1.559.492-3.837.942-6.041.744-3.218,1.534-5.5,2.026-7.89.276-1.365.28-2.061.588-3.357.441-1.563,1.217-3,1.654-4.473.39-1.314.813-3.527,1.3-5.275.537-2.1,1.337-4.09,1.851-5.819,1.355-4.547,3.142-8.817,4.988-13.336.726-1.868,1.056-3.32,1.8-5.128,1.19-2.665,2.669-5.229,3.918-7.908.831-1.692,1.1-3.09,2.108-5,1.226-2.426,2.889-5.377,4.148-7.766,1.5-2.919,3.169-5.561,4.621-8.217s2.921-5.192,4.524-7.613c1.428-2.25,3.215-4.441,4.68-6.645.744-1.038.7-1.323,1.4-2.319,1.079-1.508,2.6-3.445,3.67-4.856,1.585-2.075,2.218-3.168,3.615-4.9.965-1.227,2.072-2.274,3.073-3.6.749-.991,1.254-1.932,1.938-2.771.588-.692,1.061-.9,1.989-1.868a9.5,9.5,0,0,1,1.19-1.65c.955-1.02,2.021-2.269,2.664-3.053-.335.4,1.456-1.665,1.332-1.531.51-.535,1.291-.922,1.608-1.268.831-.978,1.989-2.518,3.073-3.588,1.01-1,1.654-1.4,2.48-2.3,2.14-2.287,3.941-4.62,5.645-6.76,2.945-1.282,5.163-4.21,9.306-7.825,1.144-.968,4.143-3.417,5.778-4.648.965-.729,1.626-.876,2.292-1.448.345-.29.23-.788,1.341-1.559,1.342-.95,1.19-.424,2.9-1.743,1.975-1.522,3.937-3.2,5.967-4.846a46.88,46.88,0,0,1,6.54-4.256c-.753,1.734,1.263.489,1.6,1.18a31.9,31.9,0,0,1,4.12-2.8,6.2,6.2,0,0,1,2.968-.964c-2.678,1.725-5.283,3.4-7.841,5.049a59.45,59.45,0,0,0-7.1,4.929c-.978.825-1.548,1.591-2.42,2.319-.662.549-1.153.549-2.233,1.466-.634.54-.735,1.047-1.355,1.5a8.075,8.075,0,0,0-1.29.517c-4.538,3.094-3.739,4.6-6.417,6.838-.753.037,1.635-2.651-.606-.715.551,1.208-1.332.867-1.144.719a32.237,32.237,0,0,0-3.252,3.348c-2.871,3.085-7.468,6.885-10.412,10.27-2.82,3.131-5.333,6.474-8.185,8.715.418-1.937,5.039-4.911,4.281-6.018a31.565,31.565,0,0,1-3.22,3.376c-.707.917-.671,1.291-1.474,2.264-1.2,1.448-3.371,3.011-3.8,4.643.9-.908,1.934-2.112,2.173-1.637-1.4,2.454-3.468,3.745-5.163,6.073-.588.784-1.13,1.965-1.755,2.846-1.171,1.65-3.045,3.638-4.648,5.635-.4.544-.3.747-.616,1.194a17.239,17.239,0,0,0-1.92,2.707,78.469,78.469,0,0,1-4.57,6.515c-.05.07-.56-.05-.822.249a7.547,7.547,0,0,0-1.277,2.348c.455-.674.891-1.3,1.029-.918-1.548,3.491-5.089,8.033-6.476,10.813-.459.849-.818,2.112-1.314,3.067-.377.719-.648.7-1.148,1.632-1.676,2.97-3.3,6.4-5.075,9.827-1.823,3.407-3.371,7.018-4.772,10.417-.358.876-.17,1.152-.468,1.959a9.145,9.145,0,0,0-.983,1.739c-.193.341-.873,3.7-1.171,2.384-1.13,2.485.381,1.494-.749,3.975-1.148,1.572-2.324,5.123-3.358,7.913-.4.987-.955,1.2-1.2,2.388.749.757-1.13,4.118-1.75,6.392-.271,1.208-.211,2.8-.547,3.974-.216.771-.859,1.974-1.258,3.072-.39,1.069-.983,2.706-1.263,3.772-.377,1.5-.335,3.126-.707,4.592-.349,1.407-.85,2.454-1.263,3.777-.124,1.628.822-1.033.579.807-.56,1.7-.739,3.924-1.332,6.46-.326,1.328-.657,1.628-.96,3.173-.184.927-.234,2.186-.413,3.279-.533,3.4-1.047,8.549-1.658,11.767-.344,1.748-.689,2.984-.845,4.556-.083.983.129,2.38.087,3.33-.028.848-.386,2-.469,3.274-.064,1.079.147,2.222.147,3.32-.018.779-.3,2.167-.312,3.283a11.077,11.077,0,0,1,.11,1.987c-.064,1.144-.289,1.554-.289,2.629.014,1.342.248,2.181.28,3.311.023,1.148-.349,2.075-.344,3.3,0,.844.381,1.937.4,2.637.028,1.056-.17,2.223-.156,3.3.207,6.418,1.061,15.134,1.98,22.318.087.752.023,2.472.17,3.292.289,1.467.551,1.162.772,2.56.193,1.226.046,1.461.216,2.628.142,1,.547,2.2.588,2.573.129,1.218-.161,1.361.032,2.666a21.153,21.153,0,0,0,.845,2.527c.092.544.68,4.057.868,5.2.533,2.73,1.254,6.115,2.251,9.772.914,3.679,1.924,7.673,3.215,11.56,1.18,3.92,2.43,7.789,3.808,11.215,1.327,3.44,2.453,6.552,3.638,8.849.519,1.083,1.428,2.4,1.869,3.486a4.831,4.831,0,0,0-.092.756c.234,1.66,1.245,2.933,1.777,4.242.625,1.315,1.934,4.058,2.549,5.34.836,1.748,1.635,3.915,2.384,5.418.3.623,1.1,1.324,1.566,2.154.409.7.248.9.772,1.817A226.29,226.29,0,0,0,69.5,413.575c1.125,1.545,2.411,3.311,3.477,4.777,1.213,1.549,2.264,2.647,3.459,3.97,2.163,2.5,3.776,4.957,5.043,6.027.138.12.179-.276.294-.23s.813.917.932.922c.344.014.1-1.024.2-.982.845.309,2.237,2.213,2.3,1.48a12.893,12.893,0,0,0-1.989-4.182c-.694-1.015-1.819-1.873-2.641-2.859-.749-.909-.744-1.273-1.41-2.172-.459-.637-.73-.623-1.3-1.453-.694-1-.629-1.314-1.3-2.246-.923-1.3-2.232-2.669-3.215-4.057-1.6-2.145-3.27-5.1-4.869-7.623-1.236-1.909-2.636-3.6-3.688-5.335-.919-1.679-1.557-2.845-2.489-4.542-5-8.1-9.99-21.433-13.439-28.71-.354-.811-.9-1.416-1.236-2.3-1.19-3.288-2.388-7.387-3.289-10.518-.3-.95-.983-2.061-1.309-2.984-.3-.853-.524-2.338-.776-3.158-.675-2.011-1.36-4.713-1.892-6.867-.992-3.864-2.563-7.843-3.362-11.878-.188-.867-.271-2.227-.468-3.219a93.64,93.64,0,0,1-1.653-9.6c-.106-1.176.028-2.043-.124-3.261-.349-2.153-.726-4.482-.831-5.123-.248-2.969.312-3.79-.8-5.792-.239-2.287.262-3.813.28-5.874,0-.392-.349-2.052-.368-3.219a11.492,11.492,0,0,1,.225-2.605c.17,1.978.4,4.786.634,7.465s.652,5.211.808,6.687c.2,1.826.432,3.873.652,5.8.271,1.928.606,3.731.909,5.059.239,1.005.68,1.558.951,2.462.17.678.381,1.508.478,1.882.666,2.351.262,3.223.739,5.1.455,1.784,1.337,3.532,1.892,5.515.386,1.425.556,3.246,1.13,5.008.2.654.717,1.475,1,2.393s.469,2.246.79,3.108a33.9,33.9,0,0,0,2.972,5.792c.6-.337-.289-1.993.156-2.029.156-.019.951,2.679,1.277,1.6a60.171,60.171,0,0,0-2.136-8.591c-.6-2.246-1.263-4.856-1.649-6.765-.207-.885-.542-.954-.739-1.775-.17-.706-.069-1.314-.321-2.522-.386-1.942-1.213-4.054-1.594-6.147-.368-2.075-.57-4.206-.965-6.267-.23-1.213-.693-2.389-.951-3.717-.547-3.564-.616-7.553-1.208-11.376-.142-1.226-.478-2.462-.6-3.776-.221-2.693-.266-5.566-.446-8.264-.055-1.512-.34-2.8-.413-4.45-.083-2.347-.147-4.814-.046-7.295.133-2.48.276-4.966.308-7.364-.028-2.292.124-5.28.275-8.2.17-2.919.2-5.778.455-7.747.124-1.148.455-1.928.528-2.509a14.343,14.343,0,0,1-.032-2.587,14.257,14.257,0,0,0,.441-1.867c.069-.9-.152-1.623-.032-2.592a12.178,12.178,0,0,0,.519-1.867c.671-4.708,2.058-11.113,2.981-15.706.2-1.162.1-2.08.363-3.205.331-1.591,1.13-3.186,1.667-4.856.455-1.448.712-3.08,1.217-4.975.23-.858.547-1.07.877-2.412.482-1.821.813-2.352,1.4-4.256.28-.895.17-1.153.634-2.486.487-1.374,1.171-2.771,1.6-4.182.331-1.1.216-1.974.611-3.191.188-.544.56-1,.873-1.72,1.263-2.859,2.724-6.848,4.469-10.693,1.631-3.9,3.279-7.766,4.671-10.468.354-.733.638-.682,1.038-1.628.041-.11-.11-.562-.041-.747.79-2.282,2.416-4.035,3.312-5.483.7-1.208,1.162-2.688,1.9-4.085a82.842,82.842,0,0,1,4.419-7.06c1.828-2.785,3.4-6.216,5.268-8.808.574-.8,1.438-1.664,2.012-2.508,1.1-1.669,2.246-3.4,3.385-5.128,1.158-1.7,2.4-3.324,3.578-4.874.625-.807,1.58-1.706,1.736-1.9a18.478,18.478,0,0,1,1.442-2.135c.455-.517,1.19-.936,1.5-1.255a19.055,19.055,0,0,0,1.125-1.572c.781-.932,1.084-.922,1.824-1.808,1.323-1.614,2.756-3.371,4.157-5.077,1.461-1.646,2.953-3.209,4.354-4.514.533-.494,1.466-.955,2.044-1.582.046-.069.965-1.494,1.07-1.651.593-.733,1.718-1.581,2.283-2.245.68-.826.675-1.771,1.828-2.739a24.76,24.76,0,0,0,5.434-4.21c2.049-1.785,4.281-3.8,6.463-5.608,1.768-1.471,3.738-2.758,5.709-4.15.771-.567,1.548-1.434,2.439-2.093.932-.692,1.286-.71,2.145-1.4,1.323-1.033,2.407-2.347,3.9-3.352,2.37-1.674,4.883-3.113,7.515-4.925,2.31-1.609,3.913-2.813,5.86-3.91,1.062-.581,1.842-.687,2.926-1.356.593-.369,1.828-1.517,2.536-2.006,3.656-2.227,9.062-4.6,11.349-5.953.584-.327.492-.669.988-.895.358-.166,1.731-.493,2.471-.775,3.114-1.157,5.259-2.587,7.519-3.574,1.24-.535,2.655-.931,4.2-1.568,1.92-.793,3.33-1.54,4.12-1.743.367-.1.514.484.868.447.505-.069,1.892-.715,2.443-.742.221-.014-.087.369.134.35a34.411,34.411,0,0,0,4.5-.641c1.162-.254,2.59-.4,3.16-.558.716-.189,1.681-.719,2.37-.862,1.451-.249,1.9-.111,3.192-.4.956-.212,2.044-.715,3.009-.936,1.208-.277,1.58-.143,2.517-.387a16.034,16.034,0,0,1,4.331-.848c.735-.046,1.323-.129,1.92-.106,1.015.051.188.729.891.936a21.513,21.513,0,0,0,4.5,0c.855-.111.933-.5,2.967-.927a23.611,23.611,0,0,0,2.476-.314c1.291-.3,2.627-.862,4.194-1.245A117.035,117.035,0,0,1,241.8,49.05a11.538,11.538,0,0,1,1.9.152c1.066-.023,2.366-.327,3.707-.392,1.245-.055,2.205.106,3.119.046,1.318-.069,2.567-.378,3.711-.36,1.4,0,2.407.2,3.734.166,2.614-.042,4.9-.415,7.423-.392,2.342.069,4.565.457,6.811.5,1.277.037,2.793-.1,3.707-.023,1.263.129,2.012.424,3.082.5,2.88.212,5.525.111,8.01.323,1.144.143,2.063.507,3.046.65,1.823.217,5.282.636,5.5.664.551.046.831-.138,1.249-.083,1.075.125,2,.558,3.014.752,2.87.609,4.634.553,6.7.908,1.281.217,1.952.632,2.981.844,1.63.309,3.922-.143,4.832.895-1.98.669-6.169-.83-9.742-1.236-2.122-.3-3.959-.263-6.1-.636a25.1,25.1,0,0,0-3.027-.5c-2.66-.18-6.293.074-8.589-.18-1.227-.115-2.269-.47-3.643-.535-4.152-.171-8.336.042-12.245.125-2.329.009-4.556-.369-6.733-.3-.5.032-1.939.466-2.43.516-1.989.217-5.438.438-7.322.415a18.425,18.425,0,0,0-2.471-.148c-.684.083-1.1.627-1.773.756.4-.078-.546-.129-.629-.125a23.223,23.223,0,0,0-4.818.89c-6.16,1.042-13.1,1.849-19.847,3.348-2.926.549-5.369,1.494-8.263,2.135-1.024.221-1.989.314-2.995.581-1.989.489-3.67,1.291-5.764,2.02-.845.277-2.113.47-2.967.724-1.92.618-4.088,1.337-6.316,2.241-1.079.41-1.327.277-2.356.664a21.4,21.4,0,0,1-2.219,1.014c-.969.332-2.021.517-2.93.867-2.1.77-3.619,1.923-5.493,2.651-1.291.53-2.651.807-4.079,1.314-3.849,1.333-7.694,3.481-10.56,4.763-1.042.5-1.134.747-2.1,1.254-2.724,1.434-5.48,2.444-7.676,3.767-.881.553-1.7,1.3-2.475,1.821-.712.443-2.03.835-2.793,1.277-1.006.586-1.952,1.462-3.027,2.08-1.134.66-2.517,1.162-3.84,1.928-5.19,3.269-9.558,6.548-14.082,9.794-1.2.848-3.064,2.176-4.506,3.2-.767.5-1.819,1.181-2.591,1.684-.629.456-1.249,1.12-1.878,1.59-.822.618-1.842,1.139-2.6,1.7-3.551,2.49-7.482,6.105-10.528,8.6a45.9,45.9,0,0,0-7.5,8.2c.9,1.06,3.009-.1,2.609,1.618-1.667,1.61-3.068,3.053-4.372,4.243-.712-.065-.552.087-.7-.623-2.236,2.168-5.162,3.7-7.61,7.208a14.1,14.1,0,0,0-.845,1.687c-.413.706-1.084,1.421-1.373,2.048-.588,1.263.23,1.236.133,1.651-.565,2.116-2.5,4.15-4.267,6.7-.7.992-2.2,3.325-2.31,3.579-.1.216-.161,2.826-.161,2.826.188,1.052,1.006.743,1.245.844s-.156.729.147.821c.455.143,1.3-.36,1.089.729,1.415-1.725,3.1-2.472,4.823-4.589.468-.562,1.369-2.305,2.581-3.974a27.522,27.522,0,0,0,2.774-3.846c.6-1.015.891-1.66,1.543-2.569,1.07-1.471,2.269-2.8,2.976-3.7.942-1.286,1.264-2.458,2.168-3.624.23-.291,1.5-1.388,2.1-2.122a34.1,34.1,0,0,1,3.615-3.951c2.379-2.3,4.253-4.736,6.076-6.553.924-.848,1.842-1.388,2.743-2.3.937-.95,1.547-1.946,2.356-2.721a19.831,19.831,0,0,1,2.852-2.172c.859-.719,1.41-1.554,2.49-2.6,2.209-2.135,4.469-3.717,5.92-5.022.657-.563,1.442-1.48,2.609-2.472.032-.023.652-.475,1.383-1s1.543-1.158,1.952-1.54c.679-.637.872-1.305,1.566-1.91a28.462,28.462,0,0,1,2.531-1.6c1.506-1.074,2.255-2.117,3.743-3.02,1.309-.7,1.566-.069,3.371-1.406,1.4-1.236-.335-.341.575-1.314,1.084-.678,1.649-.65,2.742-1.254.606-.327.643-.627,1.433-1.1.638-.383.859-.23,1.621-.775.9-.646.887-1,1.847-1.582a25.831,25.831,0,0,1,2.746-1.222c3.551-1.7,5.181-3.2,7.161-4.339a12.147,12.147,0,0,1,3.353-1.328c1.171-.535,1.883-1.305,3.064-1.9,1.07-.53,2.659-.895,3.922-1.48.749-.429,4.446-2.13,5.388-2.582,1.226-.6,2.182-1.351,3.16-1.748.041-.009,1.529-.3,1.791-.355,3.969-1.056,7.726-2.956,12.328-4.547,2.131-.627,3.982-.941,5.76-1.582,1.153-.42,2.117-1.047,3.316-1.429,4.061-1.042,8.484-1.614,13.421-2.965,1.2-.323,1.7-.719,2.844-.968.661-.143,1.313.088,2.415-.111.813-.148,2.283-.682,2.89-.788,2.021-.258,3.918-.609,5.906-.908l4.552-.618c1.465-.138,2.894-.281,4.327-.553.179-.516.321-.853,3.495-1.13,1.139.24,1.1.028.666.682,5.314-.235,5.824-1.291,10.1-1.628a6.5,6.5,0,0,0,4.814.567,6.2,6.2,0,0,1-2.4-.337c3.5-.775,5.613.383,7.79.664,2.779-.871,6.816.189,10.16.051.786-.032,1.534-.3,2.416-.291,3.211.069,6.38.807,10.128,1a44.42,44.42,0,0,1,5.347.636c1.12.171,1.336-.032,2.4.134a11.255,11.255,0,0,0,1.755.429c1.639.129,2.7-.217,4.235.055.831.134,2.108.563,2.912.733,1.837.392,3.532.47,5.346.789,2.641.5,5.81,1.572,6.977,1.78.739.148,1.612,0,2.425.18,1.286.267,2.517.812,4.019,1.231.8.212,2.09.406,2.94.65,1.786.507,3.192,1.194,5.139,1.66,2.265.627,3.666,1.3,5.682,1.914,1.1.337,1.842.309,2.967.609a48.674,48.674,0,0,1,7.207,2.716c2.333,1.028,4.644,1.928,6.766,2.785.7.263,1.515.3,2.338.646.987.41,2.31,1.254,3.219,1.656,2.88,1.19,5.613,2.375,8.254,3.657.914.457,1.663,1.042,2.6,1.536.832.424,1.787.7,2.733,1.268,1.52.876,3.059,2.006,4.607,2.868,2.09,1.079,5.939,3.122,8.911,5.045,1.267.8,2.434,1.854,2.939,2.107,1.245.622,1.08.018,2.306.89.707.5,1.341,1.328,2.242,2.066,2.163,1.808,4.133,3.085,6.113,4.5,1.952,1.448,4.01,2.9,6.49,4.828,2.425,1.789,4.258,3.956,6.752,6.036,1.061.922,2.205,1.927,3.362,2.933,1.1,1.069,2.205,2.148,3.248,3.158,2.085,2.02,3.922,3.74,4.928,4.552.689.613,1.456.525,2.048,1.383-.454.037.157.9.832,1.72-.2-.24,2.126,2.246,1.644,1.771,1.493,1.466,2.127,1.461,3.312,2.725.932,1.024,1.341,2.4,2.324,3.606.455.572,2,2.186,2.866,3.126.616.664.85.72,1.709,1.734.707.816.578,1.2,1.217,2.131s1.943,2.338,3.073,3.753c1.111,1.411,2.31,2.933,3.5,4.552,1.116,1.664,2.278,3.393,3.445,5.136,2.42,3.431,4.6,7.079,6.765,10.279.639.941,1.557,1.881,2.219,2.914a15.671,15.671,0,0,1,.725,1.683c2.122,4.483,4.309,6.682,5.586,10.081.326.88.321,1.475.712,2.356.762,1.734,2.324,4.408,2.53,4.833a8.4,8.4,0,0,0,.607,1.715c.56,1.185,1.4,2.439,1.979,3.767.68,1.559,1.332,3.8,1.943,5.1,1.112,2.4,2.462,4.113,3.059,6.626-.344.323-.794-1.577-1.148-1.521,1.19,2.877,1.277,4.224,2.287,6.907.354.766.712-.143,1.071.923,1.152,3.052,1.538,5.727,2.5,8.766.579,2.13,1.915,5.7,2.324,7.557.248,1.269.184,2.749.464,4.266.188.968.68,1.789.969,2.9.547,1.987,2.076,9,2,9.527.064,1.088-.487,1.752-.281,3.121.235.06.51-.184.653.517-.074,3.818.955,11.09,1.143,16.375.276,2.153.8-.955.882,2.374.023,1.278-.546-.848-.712.655.505,1.932.009,3.5.129,5.455M357.154,83.957c-.933.3-3.459-.821-3.739-1.411C353.167,81.919,355.872,82.509,357.154,83.957Zm10.238,5.026c.069-.784,3.821.83,4.836,1.835C371.126,91.275,369.169,89.481,367.392,88.983ZM409.671,115.1c-1.41-1.31-2.98-2.4-4.464-3.624-.239-.7,3.073,1.673,3.518,2.061.809.742,1.406,1.568.951,1.563m70.215,99.917a14.455,14.455,0,0,1-.85-3.417C479.441,211.246,481.049,215.8,479.891,215.014Zm9.333,94.259.395-2.933C490.313,305.51,489.675,310.255,489.224,309.273Zm2.931-18.8c-.115,1.222.083,4.15-.57,3.541C491.608,292.552,491.429,290.574,492.155,290.473Zm-1.718-41.553c.772.282,1.415,1.868,1.249,4.045C491.076,252.522,490.754,251.374,490.437,248.92Zm-14.4,121.59,1.727-3.846.349.143-1.732,3.851-.34-.152Zm7.39-16.531.533.189a9.427,9.427,0,0,1-1.167,2.8,8.069,8.069,0,0,1,.634-2.984m.069,3.242c.546,1.347-2,7.134-2.724,10.062-.335-.055-.092-.849-.468-.858-.29-.382-1.011,2.578-1.236,1.453A101.018,101.018,0,0,1,483.5,357.225Zm-8.6,22.807c.079.425-.771,1.642-1.382,2.721-.579,1.028-1.424,3.3-1.709,2.546.565-1.416,2.375-5.963,3.087-5.267m20.173-58.816c.772-.452-.147,2.67-.368,3.052C494.286,324.485,494.608,321.391,495.067,321.216ZM319.628,55.759c.294-.715,3.743.143,5.539.535.487.1.542.337,1.148.461.9.175,1.13.069,1.842.235,1.64.332,3.376,1.176,5.93,1.614,1.024.872-1.723-.235-2.462-.314-.129-.014.023.387-.1.364-1.112-.235-2.237-.835-3.505-1.116-2.6-.623-5.636-.918-8.392-1.78M497.06,319.7c.12,3.754-2.1,3.118,0,0Zm1.263-73.734c.965,1.794,2.012,6.673,2,10.339,0,.276-.7-.18-.744.069-.069.383.657,5.363-.046,3.1-.57-.867-.055-1.688-.142-3.081-.2-3.269-1.015-7.834-1.071-10.43m1.888,21.5c.377-.281.519.4.786.576-.1-1.627-.561-1.388-.74-3.052a36.774,36.774,0,0,1,.133-4.344c.721-.208.611,3.172.8,4.284.28,1.932.441,5.958.574,8.664.064.821.059,2.739.583,2.477.106,1.95-.491,1.641-.533,3.108-.2,1.715.345,1.821.409,3.108,0,1.826-.579,3.878-.593,5.57-.022,3.279.575,5.893.4,9.365-.129,3.1-.74,4.944-1.1,8.024-.188,1.333-.014,2.444-.128,3.744a20.4,20.4,0,0,1-.515,2.444c-.138,1,.046,1.093-.064,1.882-.17,1.2-.418,1.7-.528,2.439-.207,1.287-.179,2.587-.308,3.735-.175,1.568-.487,2.864-.6,4.33-.055.715,0,1.9-.082,2.536-.17,1.116-.593,2.334-.846,3.653a21.992,21.992,0,0,1-.381,2.476c-.422,1.466-.588,1.088-1.111,2.3.068,1.964-.68,4.131-.694,4.98a17,17,0,0,1-.845,3.661c-.643-1.037-.91.835-1.929,2.684-.607,1.1-.813,1.015-1.043,1.628-1.1,2.545-1.474,6.552-2.949,8.176-.707-.572.74-2.832,1.2-4.178.652-1.868,1.442-4.464,2.057-6.5a40.766,40.766,0,0,0,1.884-5.271c.248-.94-.069-1.452.137-2.531.253-1.448.786-3.141,1.282-5.428.349-1.729.749-3.684,1.121-5.51.317-1.84.574-3.569.868-4.833.22-.973.762-1.987.928-2.983.284-1.753-.037-3.3.082-5.008a6.479,6.479,0,0,0,.7-2.4c.235-1.5.2-2.665.391-4.316.151-1.319.413-1.586.519-2.435.34-4.362,1.2-12.151,1.084-19.16,0-1.125-.211-2.066-.253-3.094-.243-2.684-.17-5.888-.271-8.646-.037-2.177-.464-4.03-.427-6.161m-4.409-34.824c.486-.535,1.474,3.316,1.235,4.159C496.422,237.411,496.206,233.985,495.793,232.638Zm-8.006,124.85c.753-.244.082,1-.524,2.449-.386.959-1.414,4.164-1.7,3.324.413-1.78,1.305-2.919,2.228-5.768M416.46,99.3c-1.364-1.434-2.8-1.78-4.111-2.785-.771-.59-1.134-1.3-2.2-2.223a19.08,19.08,0,0,0-2.126-1.282,22.929,22.929,0,0,1-1.8-1.748c-1-.7-2.834-1.476-4.35-2.421a19.082,19.082,0,0,0-2.457-1.881c-.533-.291-.671.111-1.773-.687-.731-.53-1.038-1.323-1.773-1.808-1.544-1.015-3.358-1.706-4.887-2.679-1.112-.655-.965-1.056-1.861-1.72-1.028-.756-1.58-.636-2.241-1.07-.441-.29-.381-.622-1.429-1.254a37.114,37.114,0,0,0-3.945-1.821c-.942-.447-4.841-2.564-7.078-3.827-1.047-.59-1.024-.9-1.493-1.19-1.235-.779-1.906-.65-3.941-1.826a60.545,60.545,0,0,0-8.3-4.284c-.428-.161-.717-.032-1.231-.277a2.148,2.148,0,0,0-1.874-.332c-1.378-.217-1.071-.922-2.109-1.434-1.01-.5-1.855-.5-2.958-.968-1.006-.447-1.589-.895-2.8-1.393-2.155-.876-5.306-1.683-7.078-2.4-1.291-.558-2.77-1.393-4.006-1.808-1.571-.517-3.293-.7-4.85-1.19-1.112-.346-1.236-.655-2.3-1.051-1.263-.484-1.676-.185-2.475-.429-.519-.143-.979-.586-1.737-.789-3.715-.982-7.56-1.78-11.6-2.509-1.888-.383-4.258-1.167-6.086-1.508-1.7-.291-3.614-.268-6.205-.862-.717-.161-1.635-.572-2.43-.71a22.819,22.819,0,0,0-2.508-.157c-1.254-.171-5.608-.761-8.079-1.1,1.488-.779,3.684-.586,6.329-.208.937.125,1.732.526,2.462.646,1.861.277,3.744.59,5.6.761,1.635.171,3.284-.138,5.071.143.565.1,2.071.742,2.411.83,5.6,1.268,16.448,2.8,23.407,4.93,2.655.77,3.762,1.4,6.063,1.729,1.116.18,1.13.152,1.906.235a33.589,33.589,0,0,1,7.3,2.075c1.286.516,1.957,1.208,3.367,1.821,1.221.512,2.384.6,3.656,1.038,1.575.535,3.284,1.494,5.218,2.25,2.085.876,4.776,2.006,6.99,2.933a36.856,36.856,0,0,1,7.483,3.389c1.18.549.845-.35,2.03.194,2.861.959,2.6,1.628,4.34,2.638,1.13.7,3.895,2.453,5.958,3.624.941.54,1.892.853,2.833,1.416.983.549,2.141,1.683,3.041,2.306,1.323.885,3.28,1.734,4.993,2.762,4.882,2.841,9.351,6.626,11.037,7.433.836.466,1.52.231,2.5.895,2.264,2.075,3.417,3.92,7.124,6.373a22.217,22.217,0,0,1,2.2,1.319c.822.664,1.19,1.273,2.264,2.241,1.245,1.195,4.942,3.7,7.689,6.668.689.729,1.337,1.822,2.017,2.486.813.788,1.708,1.2,2.54,1.946a22.243,22.243,0,0,1,3.444,3.744c1.516,2.26,5.7,5.755,8.562,9.4,1.98,2.569,5.8,7.162,9.062,11.482.345,1.075-.22.1-.592.457,1.13,1.678,1.465,1.351,1.915,2.527.8.59,1.254.263,2.522,2.08-.129.525-.951-.807-1.222-.683.367,1.084,2.747,3.984,3.849,5.819.891,1.273.588-.239.106-.843.845.484,2.544,3.615,3.729,5.146.161.668-.229.894-.069,1.563.395,1.107.887.742.974.876.455.7.588,1.582,1,2.37.561,1.061,1.42,2.371,1.975,3.247.676,1.056,1.254,1.475,1.976,2.513.615.774,2.833,4.745,3.233,5.46.234.456.115.664.441,1.208.932,1.568,1.755,2.458,2.448,3.73,1.41,2.707,2.411,5.8,3.817,8.734.891,1.784,2.255,4.15,2.591,5.782.422,1.919.84,1.785,1.892,4.021.188.406.381,1.462.813,2.412.386.876.638.978.882,1.7,1.065,3.007,1.708,6.152,2.714,9.135.331.9.928,2.057,1.181,2.947.872,3.048,2.967,9.886,3.725,13.432.5,1.928,1.084,4.2,1.649,6.382.528,2.2.909,4.339,1.226,5.953.413,2.223-.092,1.116-.17,1.974.23,2,1.135,3.477,1.429,5.524.17,1.019-.037,2.177.11,3.191.252,1.711.937,3.675,1.24,5.575.211,1.3-.161.936-.069,2.56-.014-.273.533,3.154.583,3.748-.009-.115.06,3.717-.413,3.219-.22-1.706-.519-2.993-.712-5-.06-.614-.018-2.352-.142-3.159-.285-1.563-.914-2.578-1.217-4.279-.069-.383.192-1.241.082-1.928-.229-1.406-.744-2.753-1.038-4.3-.468-2.3-.831-4.8-1.47-7.4-.546-2.02-1.231-3.975-1.878-6.013-.216-.757-.441-2.467-.593-3.085-1.263-5.732-3.789-11.819-5.388-16.712-.289-.88-.514-2-.872-3.011-.437-1.18-1.158-2.061-1.424-2.813-.368-1.042-.395-2.153-.712-3.075-.377-1.089-1.107-2.38-1.516-3.445-.523-1.48-.79-2.946-1.18-4.261-1.011-2.259-.354.655-1.171-.862-1.071-3.514-3.206-6.511-4.731-9.518-.428-.853-.6-2.093-1.011-2.983-.464-1.033-1.607-2.449-2.319-3.731-.235-.452-.666-2.024-.859-2.37-.565-1-1.5-2.089-2.118-3.117-1.217-2.126-2.388-4.427-3.761-6.484-.717-1.1-1.727-2.241-2.591-3.532-.978-1.485-1.787-3.14-2.673-4.21-.68-.862-1.273-1.047-1.874-1.747-2.278-2.569-3.578-5.612-6.081-8.651-.6-.766-1.493-1.4-2.178-2.25-.583-.729-1.116-1.854-1.727-2.592-.909-1.088-1.612-1.619-2.6-2.707-1.093-1.254-1.929-2.531-3.054-3.924-.551-.682-1.5-1.508-2.136-2.255-.8-.936-.634-1.314-.919-1.678-.624-.826-1.456-.987-1.943-1.587-.344-.405-.133-.691-1-1.618-2.141-2.3-4.681-4.842-6.031-5.386a29.754,29.754,0,0,0-5.328-5.179c-.854-.71-1.814-1.291-2.471-1.881-.813-.77-1.465-1.6-2.623-2.633-1.543-1.36-2.5-2.043-3.716-3.26-1.488-1.494.473-.268-1.267-1.37-.258-.2-2.761-1.946-3.928-3.006-1.878-1.444-.082-.263-.133-.821M363.9,491.989c-.785.9-1.433.8-3.366,1.628C360.346,493.133,363.06,492.063,363.9,491.989Zm130.785-146c-1.157,3.348-1.8,7.512-2.834,7.646C492.219,352.074,493.919,345.494,494.681,345.992ZM345.1,500.4a6.672,6.672,0,0,1-2.159,1.452,14.383,14.383,0,0,1-2.452.563c-2.3.752-5.3,2.352-7.166,2.287-.28-.89,2.357-1.116,4.667-1.909,2.655-.844,5.319-2.278,7.11-2.4M485.109,373.2c.455.89-1.484,5.058-2.4,7.2-1.644,3.367-3.853,6.733-4.841,9.546a32.223,32.223,0,0,1-1.993,3.933c-.57,1.005-1.135,1.531-1.415,2.094-.583,1.175-.73,2.31-1.387,3.573a67.69,67.69,0,0,1-8.791,12.312c-1.534,1.656.3.669-.634,1.859-1.006,1.655-1.337,1.323-2.338,2.979-.248-1.942,2.871-5.474,4.625-8.264,1.378-2.222,3.229-5.16,5.062-7.936.441-.641,1.47-2.185,1.428-2.07.611-1.144.933-2.619,1.378-3.551a12.715,12.715,0,0,1,1.406-2.089c.262-.461.308-.95.771-1.72,1.107-1.817,1.907-3.251,2.766-4.915.082-.166.215-1.255.234-1.292.252-.511.422-.415.45-.47,2.1-3.929,3.67-8.549,5.686-11.182M329.168,506.169c-3.248,1.111-7.092,2.287-9.788,2.232a43.271,43.271,0,0,1,5.227-1.6c2.085-.6,4.065-1.029,4.565-.632M448.378,432.1c1.052-.171-.951,1.886-2.058,3.219-1.176,1.475-2.728,2.965-3.826,4.182-1.318,1.531-2.388,3.4-3.835,5.063a79.948,79.948,0,0,1-9.706,9.034c-.367.175-1.828,1.424-2,1.549-1.423,1.337-1.1,1.6-2.044,2.467-.794.729-1.671,1.176-2.535,1.9-2.5,2.2-5.351,4.676-7.772,6.469-2.259,1.7-5.084,4.658-6.379,4.109,3.3-2.144,5.842-4.676,8.933-7a39.915,39.915,0,0,0,3.537-2.647c.85-.765,1.727-1.927,2.646-2.734.505-.443,1.649-.863,2.168-1.342a19.26,19.26,0,0,1,1.557-2.052c2.443-2.449,5.957-5.391,9.186-8.605,1.19-1.309,2.117-2.67,3.22-3.887,1.966-2.227,4.166-4.169,5.608-5.935.753-.876,1.676-1.6,2.2-2.245C447.749,433.071,447.312,432.329,448.378,432.1ZM318.186,508.839c-3.432.876-7.96,2.01-12.926,2.8-1.189.277-6.83.862-6.935.29.813-.475,1.952-.2,3.128-.332,2.085-.212,4.974-.954,7.427-1.282.969-.142,2.324-.156,3.132-.295,1.443-.189,4.676-2.291,6.169-1.176m-21.064,3.588c.275.858-3.078.655-4.979.908-2.209.231-4.855.669-6.9.8a6.7,6.7,0,0,1-1.911-.267c-3.2.336-6.242,1.1-9.448.608,1.47-.747,4.515-.4,6.3-.428,1.024-.056,1.061-.217,1.879-.291,1.309-.12,1.736.12,2.521.042.386-.037.9-.591,1.231-.637a12.706,12.706,0,0,1,2.522.046c1.143-.037,1.814-.29,3.132-.369a48.985,48.985,0,0,0,5.645-.41M505.254,258.36c.68-.111,1.323,5.321.359,5.04A21.829,21.829,0,0,1,505.254,258.36Zm-101.5,215.249c-.418.917-3.371,2.813-5.572,4.182C397.876,477.173,402.91,473.526,403.751,473.609Zm3.753-2.343c-1.186.881-1.948,1.776-3.128,2.14C403.774,473.023,407.357,470.316,407.5,471.266Zm-13.826,8.845c.019,1.065-2.223,1.849-4.115,2.974C389.393,482.5,392.084,481.157,393.678,480.111Zm3.868-2.154a5.221,5.221,0,0,1-2.6,1.812C394.758,479.327,396.723,478.16,397.546,477.957ZM268.828,514.7c-2.164.388-6.472-.018-10.128-.018-2.191-.023-4.129.364-5.7-.263-.151-.318.625-.272.68-.507C258.631,514.013,265.015,514.451,268.828,514.7Zm-41.021-3.172c.064.834-2.38.083-3.827-.323C224.15,510.762,226.148,511.232,227.807,511.532ZM35.221,266.738c-.152,2.361-.055,5.686-.455,7.056C34.22,273.5,34.376,266.084,35.221,266.738ZM310.556,42.769c-1.281-.35-4.464-.309-3.757-.918C308.094,42.124,311.268,42.17,310.556,42.769ZM42.593,215.263c-.285-.563-.767-.807-.909-1.6C42.336,211.625,43.815,212.266,42.593,215.263ZM290.824,40.072c-.891.461-2.838-.406-3.835-.512C287.921,39.071,290.154,39.883,290.824,40.072Zm-15.414-.756c-.189-.729,3.435-.129,4.519-.406.409.207,1.475.249,1.263.613C279.548,39.846,277.628,38.9,275.41,39.316Zm-12.856.2c-.253-.8,2.324-.655,3.844-.493A11.681,11.681,0,0,1,262.554,39.519Zm-5.136.3c-.142-.747,1.622-.59,3.193-.562C260.537,39.666,259.017,39.749,257.418,39.814Zm-21.087,2.26-2.544.392C233.167,41.829,236.726,41.28,236.331,42.073ZM474.8,408.124a17.619,17.619,0,0,1-2.241,3.173C472.528,410.43,474.315,406.893,474.8,408.124ZM74.465,144.434c-.625-.171.184-1.983,1.406-2.956A5.03,5.03,0,0,1,74.465,144.434Zm406.322,253.7c-2.2,3.523-3.22,7.152-4.97,9.1-.85.313,1.612-3.648,2.407-5.354-.074.143,2.048-4.842,2.563-3.744m5.034-9.785a48.682,48.682,0,0,1-3.587,7.622C481.591,395.268,484.581,389.776,485.821,388.356ZM199.949,50.194l-3.082.955C196.022,50.618,200.321,49.285,199.949,50.194Zm-55.6,25.38a32.393,32.393,0,0,1,3.4-1.868C148.028,74.2,144.147,76.565,144.354,75.574Zm-47.3,39.86c-.923-.019,1.695-2.237,2.1-2.454C99.631,113.017,97.541,115.526,97.049,115.434Zm-4.726,5.307c-.62-.613,1.892-2.236,2.834-3.537C95.671,117.329,92.92,120.621,92.323,120.741ZM83.288,131.7c-.919.069,1.465-2.4,1.846-2.656C85.612,129.037,83.78,131.748,83.288,131.7ZM71.86,148.128c-.56.853-1.245,2.125-1.543,2.075C69.385,150.447,72.031,146.583,71.86,148.128Zm52.192-57.655c-.868.641-1.713,1.314-2.521,2.024C121.6,91.815,123.708,89.624,124.052,90.473ZM32.828,277.635c.1,2.213-.023,3.693-.716,3.246C31.841,279.9,31.974,276.731,32.828,277.635Zm-.487,7.788c-.124-1.535-.317-3.016.344-3.246C32.993,283.136,32.993,285.861,32.341,285.423Zm1.833-33.653c-1.167,4.049-.859,9.237-1.5,12.889-.726-.3-.514-3-.381-4.584.216-2.43.873-3.892.8-7.12C33.453,252.711,33.728,251.618,34.174,251.77Zm-1.461,16.79c.083,1.835-.331,1.665-.312,3.232-.533.083-.482-1.6-.441-3.264.331,1.1.243-.051.753.036m.239,29.176c-.565.609-.427-1.974-.56-3.219-.216-2.033-.712-5.3.083-5.206.514,2.518.1,4.759.478,8.43m275.73,219.643c.588.623-.583,1.019-2.425,1.328C305,518.527,306.923,517.729,308.682,517.388ZM39.217,219.049c.652-3.592,1.038-8.264,3.008-12.681.657-.263-.156,2.006-.381,3.288A51.513,51.513,0,0,1,39.217,219.049ZM384.046,492.967c2.536-1.254,6.307-3.731,8.052-4.192.758.028-4.359,3.113-5.424,3.611C385.544,492.912,383.991,493.488,384.046,492.967ZM57.388,170.418c-.455-.244,1-2.942,1.594-3.564A7.307,7.307,0,0,1,57.388,170.418Zm-21.064,62.64c-.836.461-.055-3.611.5-4.547C37.293,228.709,36.6,231.236,36.324,233.058Zm37.255-91.589c1.566.576,3.785-5.737,0,0Zm-29.1,58.78c-.634-1.379,1.819-5.769,2.7-8.033.445-1.254.294-2.32.666-3.242.216-.549.9-1.475,1.3-2.292a12.671,12.671,0,0,1,1.419-2.937c0,1.992-1.938,5.363-2.967,7.931-.234.609-.363,1.96-.6,2.56C46.254,196,45.239,198.432,44.476,200.249ZM277.164,521.036c-.055.479-2.416.465-3.242.216A5.493,5.493,0,0,1,277.164,521.036Zm88.358-18.708c.506.281-4.427,2.61-4.184,1.77A12.8,12.8,0,0,1,365.522,502.328Zm12.411-5.644c.06.673-2.875,1.673-4.524,2.6-2.853,1.628-2.549,1.674-5.347,2.38-.712.17-1.4.59-1.346.161C370.35,500.041,374.722,498.1,377.933,496.684ZM51,183.228a7.214,7.214,0,0,1,.813-3.2A3.412,3.412,0,0,1,51,183.228Zm37.067-60.172c-.56.664-1.167,1.287-1.681,1.983C85.066,125.08,87.9,121.77,88.065,123.056ZM330.5,514.179c.95.253-.671,1.715-.726,2.517-2.163.282-4.079,1.333-6.316,1.813-1.313.286-2.3.138-3.931.424-1.116.2-2.233.645-3.822.982-1.249.2-3.128.277-3.918.415-1.309.235-1.86.6-3.187.876-1.741.36-4.878.752-7.152.982-1.4.18-3.233.554-3.895.605-1.667.115-3.578-.166-5.273-.014-1.8.083-2.462.618-4.552.825-.3.032-1.368-.286-1.988-.263-.845.033-2.651.323-3.923.415-1.4.134-2.972.023-3.941.093-4.134.175-6.706.788-9.838-.328a66.76,66.76,0,0,1-10.505-.1c-3.486-.425-6.839-1.079-9.723-1.7,1.373.152,2.567-.47,3.977-.41,1.121.046,3.542.659,4.524.77,2.462.263,4.447-.1,7.189-.051,1.3.014,2.944.332,4.561.369,4.91-.078,13.159.009,19.548-.664,3.156-.161,8.851-1.273,13.568-1.78a47.056,47.056,0,0,0,5.186-.489c2.168-.4,4.01-1.125,6.343-1.554,1.268-.244,2.489-.138,3.877-.475,4.813-1.134,9.5-1.95,13.917-3.246M489.394,171.926a31.415,31.415,0,0,1,2.821,5.889C491.645,178.17,488.4,172.06,489.394,171.926Zm-2.967-5.072c.395-.789,2.131,2.416,1.222,2.3C486.8,168.136,487.282,168.412,486.427,166.854Zm-29.873-45.029c1.074.793.523.65,1.681,2C458.01,124.679,455.681,121.9,456.554,121.825ZM169.488,59.37c3.183-1.273,3.3-2.061,5.764-3.066C174.434,57.018,170.613,60.163,169.488,59.37ZM66.822,151.844c.174.756-1.236,1.7-1.695,2.785C64.732,154.044,66.252,152.01,66.822,151.844ZM57.011,169.5c-.56.157,1.438-4.344,1.773-3.491A10.046,10.046,0,0,1,57.011,169.5ZM473.773,412.883c.818-1.074,2.177-3.984,2.416-3.1C475.372,410.859,474,413.778,473.773,412.883ZM31.487,254.1l-.56-.055a9.464,9.464,0,0,1,.455-2.592C31.68,251.65,31.648,252.619,31.487,254.1ZM133.3,78.917c-.266-1.3,5.466-4.551,9.614-6.866.937-.544.845-.747,1.58-1.194.1-.055,1.116-.475,1.773-.867,2.292-1.346,4.363-2.97,6.2-3.7.459-.194.854.134,1.911-.613l.275.493a13.723,13.723,0,0,1-2.871,1.568c-1.258.6-2.416.858-3.642,1.545-1.433.816-4.295,2.974-7.161,4.616C138.769,75.274,135.99,77.045,133.3,78.917Zm-5.539,3.528c.693-.945,3.537-2.914,3.918-2.416C130.464,80.951,128.035,83.335,127.759,82.445Zm-95.5,157.193a22.339,22.339,0,0,1,.514-5.93C33.6,234.215,33.163,237.78,32.263,239.638Zm88.946-151.72c-.886.641-1.695,1.379-2.54,2.08C117.691,89.8,121.214,86.885,121.209,87.918ZM42.947,198.33c-.592,2.384-1.047,1.886-1.58,2.938C41.188,200.447,42.616,197.311,42.947,198.33Zm472.128,63.124c.482-.235.666.867.712,2.591C515.3,264.276,515.121,263.174,515.075,261.454ZM74.543,136.539c-1.86,2.574-2.76,2.375-4.8,5.479-.983-.319,1.451-2.661,2.356-3.984,1.268-1.854,2.264-3.952,3.44-4.847a17.677,17.677,0,0,1-2.37,3.993c.027,1.015,1.35-1.66,1.373-.636m3-5.142c-2.255,2.79-.427-1.415.781-1.9C78.847,129.576,76.389,131.8,77.551,131.4Zm413.676,37.4c.469,1.167,1.952,3.482,1.093,3.145C491.516,170.552,490.515,169.063,491.227,168.8ZM88.24,117.14c-.831-.115,2.949-4.081,2.742-2.859A9.985,9.985,0,0,1,88.24,117.14ZM514.68,238.891c.013.922.023,1.766.036,2.679C513.752,240.842,513.531,236.761,514.68,238.891ZM93.255,110.988l4.134-4.288C98.22,106.7,93.3,111.814,93.255,110.988ZM510.794,335.631c.395-1.854.8-3.523,1.3-3.1C512.149,333.685,511.354,336.359,510.794,335.631Zm7.018-49.133c-.069,1.434.262,4.915-.574,5.284C517.44,289.361,516.806,286.539,517.812,286.5Zm-5.783,44.66c.262-1.075.5-2.154.68-3.247C513.513,327.04,512.415,332.278,512.029,331.158ZM119.928,86.3a22.007,22.007,0,0,1-2.173,1.522c-.069-.341.574-1.111,1.819-1.964l.349.443Zm-8.107,6.792L109.795,94.8C108.918,94.6,111.747,92.2,111.821,93.092Zm18.009-14.53c-.587.35-.367-.014-.215-.309.206-.41.583-.954,2.517-2.181-.115.069.436.078.656-.221.06-.088,2.637-2.444,3.28-2.25.5.788-5.719,3.837-6.233,4.962M274.886,28.594a18.583,18.583,0,0,1-4.033-.152C271.009,27.838,275.221,27.972,274.886,28.594Zm-31.573,1.134c.882-.526,4.657-.563,6.678-.895C249.027,29.457,245.343,29.627,243.313,29.729Zm-9.972,1.577c.7-.922,3.79-1.13,5.935-1.3C239.124,30.656,235.486,30.891,233.341,31.306Zm-20.007,3.016c-2.21,2.532,7.358-1.637,0,0ZM201.75,38.015l-.157-.54a11.518,11.518,0,0,1,3.285-.784A20.212,20.212,0,0,1,201.75,38.015Zm-23.6,8.079c.036-1.028,3.564-2.292,6.086-2.988C183.147,44.36,180.58,44.794,178.155,46.094Zm86.6-19.1c1.281.069,4.074-.3,3.389.341C267.179,27.635,264.63,27.557,264.754,27ZM167.48,50.323c.014-.8,3.9-2.107,6.031-3.08C173.4,47.975,169.051,49.825,167.48,50.323Zm-4.262,2.057c-.207-.475,2.687-1.794,3.573-1.932A9.534,9.534,0,0,1,163.218,52.379Zm-17.863,9.568a2.126,2.126,0,0,1-1.92.742c-1.111.558-2.783,2.37-3.077,1.448.909-.475,1.984-1.342,2.884-1.775.152-.069.051.369.193.323.675-.226,2.173-1.485,1.92-.742m109.22-35.156c2.526-.221,3.982-.083,4.1.516C256.7,27.921,254.58,27.428,254.575,26.787ZM107.251,88.836c-1.351,1.088-2.664,2.246-2.935,1.808C105.717,89.292,107.117,88.209,107.251,88.836ZM512.976,354.325c1.024-.1-.588,2.9-1.158,4.634-.781,2.347-1.387,5.437-2.31,5.686.822-4.155,2-6.119,3.463-10.32M82.135,113.571c-.317-.369,1.332-2.2,2.09-2.693C84.533,111.256,82.9,113.082,82.135,113.571Zm-19.962,24.97c-4.1,7.239,2.508-.863,0,0ZM516.645,341.916c.694.359-.574,2.716-.9,3.993-.409,1.651-.6,4.164-1.309,5.3C513.88,349.6,515.584,344.932,516.645,341.916Zm9.122-66.817c.143,2.052.395-.66.749-.01a32.1,32.1,0,0,0-.762,7.36c-.212,3.2-.363,7.032-.524,11.132-.184,3.435-.753,6.8-.891,8.849-.041.562.2,2.231.142,2.762a23.2,23.2,0,0,1-.927,3.338c-.014.106-.308,2.306-.455,3.385-.4,2.638-1.259,8.24-1.755,11.482-.188,1.494.083,3.371-.739,6.124-.166.562-.414.327-.611,1.268-.4,1.646-.381,2.845-.735,4.035-.386,1.3-.634,1.923-1.139,3.246-.276.715-.845,3.062-1.167,2.522-.009-1.913.772-3.444,1.236-5.307a25.583,25.583,0,0,0,.431-2.693,7.592,7.592,0,0,1,.676-1.254c.321-1.435-.069-1.435.023-2.08.11-.89,1.368-5.308,1.593-6.636.212-1.259.129-2.66.35-4.081-.046.355.473-3.14.367-2.7.152-.623.446-.484.551-1.3.262-2.047.138-4.122.441-6.128.216-1.3.74-2.015.923-3.325.037-.221-.018-1.863.051-2.739.083-1.1.3-1.166.363-2.02a13.036,13.036,0,0,1-.069-1.374,130.8,130.8,0,0,0,.721-13.612,10.657,10.657,0,0,0-.294-2.052c-.041-1.139.262-1.476.193-2.725a9.516,9.516,0,0,1-.395-2.043c0,.1.395-.083.367-.683a14.863,14.863,0,0,0-.206-2.042c-.262-1.9.1-2.38.142-4.773-.009-1.9-.344-3.159-.473-5.432-.221-2.91.106-6.737-.354-10.223-.165-1.554-.519-2.744-.611-4.044-.087-1.218.051-2.818-.059-4.114-.359-3.481-1.2-6.446-1.507-10.121a20.07,20.07,0,0,1,.055-2.094c-.036-.35-.367-1.222-.546-1.983-.428-2.024-.519-3.656-.772-4.722a29.651,29.651,0,0,0-1.236-3.232c-.294-.946-.413-2.333-.7-3.339-.431-1.434-.992-2.439-1.2-3.214-.919-3.122-1.3-7.1-2.444-10.629-.565-1.821-1.782-4.1-2.186-6.46a6.552,6.552,0,0,1,.156-.77c-.335-1.222-.882-2.089-1.226-3.187-.317-1.1-.147-1.839-.395-2.753a109.66,109.66,0,0,0-5.406-14.022,17.987,17.987,0,0,1-.62-1.965,19.953,19.953,0,0,1-.965-1.812c-.367-.978-.583-2.338-1.033-3.283-.46-1.029-.657-.973-1.057-1.771-.542-1.074-.464-1.4-1.01-2.545-.676-1.416-1.534-2.776-2.237-4.233a26.014,26.014,0,0,0-1.057-2.532c-.711-1.245-.927-.978-1.635-2.232a14.722,14.722,0,0,0-1.139-2.49c.579-.493,1.231,1.655,1.966,2.831.547.895,1.451,1.9,1.943,2.85,1.562,3.034,2.719,6.161,4.276,9.352.772,1.383,2.82,6.193,3.344,6.76,1.01,1.194.464.6,1.768,3.73.965,2.186,2,4.506,2.646,6.341.634,1.807,1.773,5.068,2.953,8.434,1.038,3.417,2.131,6.931,2.9,9.172.418,1.245.39,2.024.606,2.683.514,1.522,1.337,2.49,1.745,3.805.689,2.213.795,4.717,1.7,6.672-.363.079-.694-1.761-1.07-1.157.408,1.254.794,2.849,1.212,2.541-.216,2.835,2.209,9.808,2.8,15.576.064.549.3,1.545.312,2.043a4.347,4.347,0,0,1-.262.738,21.024,21.024,0,0,1,1.2,5.381c-.515,1.185-.391-.848-.143,2.1.088,1.043-.128,2.163-.082,2.772.092,1.18.335,1.457.473,2.711.17,1.554.266,3.339.349,5.045,0,1.711,0,3.334.069,4.556.266,4.394,1.212,9.494.289,12.326M486.34,413.063c-.023,1.388-3.215,7.18-4.676,8.342-.252-.743,2.03-3.675,3-5.372C485.49,414.585,485.522,413.473,486.34,413.063Zm9.269-16.642c1.235.576-1.07,3.514-2.4,6.446C491.673,403.089,494.231,399.4,495.609,396.421Zm13.467-30.485c1.1-.138-.914,3.73-1.7,5.907-.3.839-.363,1.973-.648,2.688-.5,1.213-1.153,2.218-1.869,3.657-1.314,2.619-2.49,5.759-3.62,8.1-.486,1.01-.6,1.172-.895,1.084a12.641,12.641,0,0,1,.386-1.319,5.069,5.069,0,0,1,.895-1.088c.377-.858.643-2.227,1.052-3.26,2-4.69,4.782-11.03,6.4-15.762M320.092,30.563a12.763,12.763,0,0,1,4.7.715A11.082,11.082,0,0,1,320.092,30.563Zm-8.015-1.476c-.846-.765,4.074.267,4.037.553C316.955,30.407,312.04,29.378,312.077,29.088Zm-33.764-3.606c1.639-.018,1.469.4,3.389.318-.289-1.051-5.282-.217-5.41-1.526,2.039-.383,2.25.613,2.714.669,1.355.161,2.513-.231,3.413-.055a3.265,3.265,0,0,1,2,1.019c1.957.083,4.451.069,5.416.484-.965.3-3.436-.055-5.434-.111C282.1,26.2,277.789,26.7,278.313,25.482ZM54.944,150.9c-.377-.3.877-2.435,1.534-3.057C56.846,148.151,55.6,150.272,54.944,150.9Zm-2.871,5.414c-.583.8-1.548,3.158-1.823,2.882-.74-.171,1.557-3.293,1.846-4.436C52.207,155.155,51.178,156.7,52.073,156.313Zm-3.5,6.607-.5-.258,1.236-2.43C49.281,160.892,49.7,161.053,48.573,162.92Zm-7.836,16.615c-.68,1.434-1.208,2.937-1.8,4.408C38.087,183.925,39.865,178.341,40.737,179.535Zm448.6,228.977c.042-.572,2.889-6.013,3.2-5.234C491.278,405.791,490.561,406.174,489.339,408.512ZM28.846,213.575c-1.516,3.459-1.667,7.032-2.921,10.514-.579.152.354-2.808.716-4.736.473-2.7,1.052-5.759,2.2-5.773m-8.961,62.611c-.629-1.2-.152-8.111-.037-9.568l.56.028c.156,1.821-.326,6.9-.519,9.54m15.3-84.2c-.423-.677,2.03-6.368,2.8-7.7.579.383-.726,2.329-1.07,3.251-.583,1.577-.795,3.233-1.736,4.45M29.6,209.54c-.643-.336,1.428-6.077,1.791-8.014l.533.171C31.335,203.038,30.7,207.4,29.6,209.54Zm-5.052,21.231c.243.931-.74,5.187-1.231,4.634A10.306,10.306,0,0,1,24.547,230.771Zm-3.486,24.3c-.923-.254-.05-4.067.262-6.151.3-2.514.17-5.077.9-6.77.087-1.162.322-1.254.556-1.3-.11,3.375-1.263,10.892-1.727,14.221m-.886,8.148c-.363-1.688.078-2.873.151-6.156a2.669,2.669,0,0,0,.492-1.328C21.433,256.446,20.661,262.395,20.17,263.22ZM297.323,26.658c-.128.406-2.884-.171-4.087-.166C293.291,25.98,296.474,26.326,297.323,26.658Zm54.8,10.518c2.59.89,4.891,1.674,6.931,2.379,2.011.77,3.729,1.536,5.217,2.2.074.724-1.952-.6-3.247-1.074C358.1,39.606,352.17,38.347,352.12,37.176Zm-18.281-5.7c1.355.383,4.685.872,3.881,1.374C336.59,32.8,333.513,32.016,333.839,31.472Zm143.875,97.5a13.322,13.322,0,0,1-2.182-3.505C476.442,125.486,478.5,128.908,477.714,128.968Zm-8.8-12.271a61.387,61.387,0,0,1,5.521,7.005c-.413-.079-1.943-1.665-3.275-3.325s-2.613-3.283-2.246-3.684M323.128,29.212c-.028-.535.128-1.061,2.2-.512C326.632,29.429,325.139,29.577,323.128,29.212Zm-5.379-1c-.119-.922,2.43-.327,3.431.249C321,28.853,319.412,28.548,317.749,28.216ZM480.392,132.108c.514-.941,3.835,4.044,4.717,5.93C483.906,138.384,482.555,135.087,480.392,132.108Zm-51.9-56.6c3.21,2.619,5.961,4.284,9.112,7.383a68.7,68.7,0,0,0,8.277,7.309c.79.609.56.563,1.116.825,1.557.788,8.332,7.567,9.4,10.113,3.307,2.647,6.067,6.373,9.113,10.334-1.865-1.195-4.079-4.252-6.243-6.419-1.653-1.614-3.936-3.832-6.4-6.235-1.042-.987-1.18-1.429-1.842-2.047-1.681-1.614-3.89-3.73-6.187-5.93-2.36-2.13-4.809-4.344-6.811-6.327a48.4,48.4,0,0,0-4.492-4.284,5.956,5.956,0,0,0-1.2-.71c-.087-.069-4.437-3.564-3.854-4.016M302.27,25.293c-2.117-.383-5.015-.374-6.113-.816C296.308,24.02,302.381,24.426,302.27,25.293ZM491.512,148.639c.128-1.6,3.371,3.519,2.269,3.454C493.014,150.664,492.472,150.512,491.512,148.639ZM423.993,73.471c-1.116-.775-.988-1.245-2.471-2.458-3.073-2.55-8.81-5.667-5.526-5.335-.055.364,1.8,1.471,2.141,1.762,1.152.973,1.093,1.176,2.034,1.914,1.824,1.425,3.955,2.578,5.5,4.164C425.793,74.343,424.438,73.356,423.993,73.471ZM288.688,23.079c2.412.3,6.628.263,6.118,1.093C292.932,24.186,287.692,24.108,288.688,23.079Zm81.8,19.709c-2.1-.835-4.547-1.706-4.267-2.287C368.035,40.989,371.273,42.11,370.487,42.788ZM344.982,32.371c3.178.978,6.485,2.665,9.678,3.68,2.636.862,4.322.871,6.7,1.729.822,1.314-3.284-.078-6.228-.973-1.934-.618-5.406-1.941-6.449-2.379a15.034,15.034,0,0,1-2.48-1.314c.771.4-2.182-.406-1.218-.742m-.983.895a15.728,15.728,0,0,0-5.282-1.508c-.248-.549-2.457-1.116-1.7-1.656,1.653,0,1.7.789,3.215,1.31,1.282.281,1.346-.175,3.417.586C343.021,32.413,344.141,32.846,344,33.266ZM274.257,22.955c-2.715.065-3.794-.89.009-.752Zm54,5.271c.845.4,2.429.756,3.27,1.153C330.862,29.941,327.854,28.751,328.254,28.226Zm-57.437-5.99c.215.982-5.31.6-5.508.051C265.461,22.014,268.74,22.429,270.817,22.236ZM403.636,58.06c1.2.756,4.24,2.269,3.335,2.486C405.891,60.168,403.181,58.466,403.636,58.06Zm-20.2-10.5c-.147-.807,2.453.493,3.238,1.227A4.649,4.649,0,0,1,383.431,47.565Zm33.318,444.019c.1.461-2.443,1.807-2.847,1.95C413.833,492.861,416.152,491.542,416.749,491.584ZM398.662,55.635c-1.282-.862-2.922-1.831-4.529-2.771-1.64-.871-3.243-1.734-4.387-2.5.653-.221,3.037.8,5.168,2.038,2.1,1.314,3.968,2.785,3.748,3.228m-89.41-30.72c-1.883-.323-3.95-1.1-2.609-1.305C309.2,23.84,310.8,24.68,309.252,24.91Zm-76.93-.115c1.322-.83,9-2.006,8.924-.9-2.191.8-3.642.2-5.516.369C234.3,24.407,233.566,25.016,232.322,24.795ZM435.894,476.864c.62-.475.413-.1.119.143-.262,1.024,1.8-1.332,1.539-.313-1.732,1.448-3,2.222-3.647,2.1C434.732,478.077,435.976,477.159,435.894,476.864ZM294.94,22.674c.307-.337,3.151.263,2.135-.567,1.806.106,2.954.327,2.7.8C296.8,22.378,296.547,23.273,294.94,22.674Zm52.623,502.959c-1.4,2.084-5.953,1.134,0,0ZM214.647,27.967l-.17-.733a26.3,26.3,0,0,1,3.473-.332C217.936,27.322,216.333,27.645,214.647,27.967Zm-14.294,2.8c1.263-.346,3.955-1.388,3.431-.595C202.177,30.674,200.473,31.541,200.353,30.766ZM192.517,33.6c.033-.742,4.52-2.112,5.292-1.646A24.306,24.306,0,0,1,192.517,33.6ZM519.075,355.491c.776.314-.556,2.509-.9,3.376-.281.715-.588,2.024-.891,2.647a5.4,5.4,0,0,1-.579.544c-.354.987-.74,2.725-1.158,4.025-.992,3.2-2.393,5.954-3.628,9.057-.271-.378.349-2.873.565-3.518.689-2.006,2.021-4.464,2.981-7.051.188-.489.009-.77.266-1.379.064-.152.556-.489.574-.539.423-1.153.23-1.508.707-2.693.666-1.707,1.516-3.076,2.058-4.464M277.036,20.912c-2.476-.484-9.742.023-11.079-.134.611-1.07,8.075-.443,11.1-.807Zm-39.382,2.107c-.905-.908,2.875-1.185,4.749-1.134C242.1,22.475,239.115,22.521,237.654,23.019Zm67.717-.346c-.377-.968,4-.682,6.3.1C311.649,23.619,307.493,22.72,305.371,22.674Zm-22.787-1.927-3.458-.129C278.464,19.828,283.3,20.017,282.584,20.746Zm-56.6,3.929c-.06-.332.739-.549,1.268-.8,1.456-.738,1.116-.7,4.744-1.121-.927.761-2.434,1.406-6.017,1.923M525.887,327.741c.266.489.032,2.245-.335,4.118-.423,1.858-1.039,3.827-1.328,4.795C523.526,335.534,525.308,330.411,525.887,327.741ZM243.056,21.433l2.769-.291C246.436,21.807,242.592,22.212,243.056,21.433Zm-21.184,3.892c-2.457.4-6.357.761-5-.125,2.118-.387,3.9-.609,5.54-.756.362.327-.377.586-.538.876m205.2,461.629c-1.612,1.407-1.819.982-3.431,2.384C423.221,489.006,426.776,486.507,427.075,486.949Zm22.993-20.193c2.641-2.162.735,1.195-1.01,1.974C448.571,468.513,450.932,466.77,450.068,466.756ZM523.88,337.3c.45.176-.157,2.633-.607,3.44C522.823,340.555,523.429,338.1,523.88,337.3ZM299.22,21.535c-3.008-.2-5-.576-5.47-1.231,1.327-.383,1.732.212,2.756.429C297.47,20.935,300.465,20.907,299.22,21.535ZM149.521,51.19c-.68-.669,2.641-1.785,4.189-2.5C153.462,49.428,150.665,50.59,149.521,51.19Zm62.1-24c3.16-2.4-4.8,1.452-7.505,1.545a3.456,3.456,0,0,1,1.929-.885c-.409-.351-3.119.281-1.6-.563,3.335-1.079,4.892-.595,6.959-1.01,1.355-.281,3.091-1.328,4.749-1.116A29.937,29.937,0,0,1,211.616,27.188Zm46.675-7.028c-.441-.461.248-.692,2.058-.682-3.339-.719-11.543,1.061-13.311-.171,2.857-.83,5.2-.231,7.7-.263,1.433-.042,2.839-.447,5.571-.512-.142,0,.345.3.708.148.629-.309,5.075.143,8.387-.2,1.088.659-2.375.134-2.09.586-.211.5,3.9-.217,2.793.535-3.684.1-7.111.083-8.364-.4-1.039.337-1.025.9-3.445.95m-129.2,42.968c-1.052.9-1.461.609-1.929.867-.841.461-2.37,2.181-2.522,1.273,2.214-1.568,3.73-2.319,4.446-2.14m358.4,361.4c-.693.881-.523,1.12-1.047,1.826-.4.521-.978.742-1.116.931-.487.646-1.911,3.832-2.581,3.311.689-1.346,4.308-6.986,4.744-6.073m9.2-14.88-2.085,3.647C494.089,413.008,496.252,408.719,496.688,409.637Zm-93.952,94.9c-.62.729-2.563,1.642-4.18,2.555C396.622,506.667,402.708,503.55,402.736,504.541Zm96.74-100.562c.992-1.739,1.741-3.394,2.141-2.822C501.337,402.641,499.959,404.3,499.476,403.979Zm6.679-13.082c1.134-1.1,1.309-2.827,2.342-4.312-.014.4-.023.793.225.876C507.744,389.347,506.8,391.03,506.155,390.9ZM412.377,498.846c-1.534.918-3.087,1.854-3.28,1.351C409.929,499.317,412.51,497.924,412.377,498.846Zm96.694-113.538,1.429-3.2C511.464,381.361,509.163,386.525,509.071,385.308ZM195.209,30.591a23.222,23.222,0,0,1,6.573-2.426C201.616,28.9,197.5,29.779,195.209,30.591Zm50.479-10.763c-5.136,1.374-2.743-1.351,0,0ZM171.476,38.915c-.707-.406,2-1.582,3.078-1.706C174.613,37.628,173.084,38.269,171.476,38.915Zm-13.99,6.419c-1.034.249-1.3-.161-2.311.074A100.288,100.288,0,0,1,164.734,41c.532.526-2.729,1.6-4.263,2.472s-1.741,1.263-2.99,1.863m-69.9,50.7c-1.213.341,2.623-4.03,2.806-3.145A23.128,23.128,0,0,1,87.583,96.034Zm152.524-75.8c-2.265.263-3.367.258-3.569-.277C239.115,19.39,239.955,19.727,240.107,20.234Zm291.7,234.377c.942.94.446,3.726.239,4.92C531.3,258.069,531.656,256.091,531.807,254.611Zm-1.038-6.262c.832-.069,1.19,5.252.85,6.28C530.884,253.49,530.953,250.714,530.769,248.349ZM146.329,49.723c2.673-1.356,6.256-3.671,8.134-4.178.414.457-3.325,2.5-4.074,2.818C149.131,48.9,145.86,50.59,146.329,49.723ZM125.738,63.142c-1.075,1.706-3.381,2.278-5.314,3.422.05-.576,1.323-1.429,2.094-1.9.152-.092.17.521.322.461,1.171-.443,2.384-2.55,2.893-1.987m-17.008,12.4c1.291-.936,4.129-3.615,4.1-2.725C112.1,73.679,108.665,76.505,108.725,75.532ZM432.541,484.906c1.3-1,2.618-1.964,3.844-3.043l.234.29c-1.231,1.084-2.549,2.053-3.849,3.049Zm99.965-210.614a15.245,15.245,0,0,1,.151-3.519c.639-.318,1.07.175.965,2.795-.248-.249-.308-1.236-.575-1.4-.45-.263.138,3.205-.541,2.121M525.772,214.9c.335,2.13.721,4.173.969,6.3C525.726,218.97,524.913,215.4,525.772,214.9ZM145.374,50.89c-1.81,1.162-2.361,1.028-3.771,1.9.367-.719,2.149-1.674,4.11-2.725-.252.309-.5.623-.339.83M65.839,118.971c.886-1,2.425-3.491,2.471-2.532C67.345,117.859,66.372,119.515,65.839,118.971Zm-3.817,5.063c1.337-1.863,1.635-3.011,2.375-2.619C64.107,122.028,62.408,124.449,62.022,124.034Zm468.095,116.6-.427-2.785C530.319,237.176,530.921,241.072,530.117,240.629Zm-.964-6.266c-.423-2.7-.639-4.376-.161-4.99C529.754,231.038,529.809,234.141,529.153,234.363ZM55.468,134.054l-1.892,2.97C52.569,137.194,55.21,133.053,55.468,134.054Zm468.017,74.154.721-.2c.257,1.448,1.378,4.44,1.047,4.842C524.647,212.879,524.073,210.274,523.485,208.208Zm-1.815-9.776c1,2.158.23,2.356.506,3.541.3,1.282,1.387,2.615,1.244,4.058-.588.743-.95-2.453-1.424-4-.537-1.66-2.393-6.618-2.213-8.185-.212-.89.05.285.477,1.66C520.628,196.9,521.165,198.5,521.67,198.432ZM363.7,33.45c.694-.415,6.559,2.121,7.928,2.919C370.915,36.775,365.081,34.248,363.7,33.45ZM268.672,16.236c.367-1.134,5.479-.4,7.753-.429,4.409.148,11.519.171,17.633.752,1.456.1,3.284.5,4.9.613,1.658.1,3.16-.088,4.258.087,1.3.189,2.779.7,4.148.936,6.283,1.015,13.43,2.089,20.168,3.491,2.71.7,5.48,1.416,8.2,2.112,2.476.535,5.342,1.171,7.546,1.831,1.631.5,3.013,1.176,4.644,1.715a120.46,120.46,0,0,1,12,4.136l-.188.53c-2.526-.369-2.761-1.074-4.6-1.757-4.557-1.794-9.049-2.734-13.458-4.109-3.4-1.134-7.211-1.849-10.914-2.744-1.681-.429-3.311-.839-4.9-1.245q-2.418-.5-4.694-.959c-1.695-.314-2.6-.254-4.189-.581-1.938-.415-4.18-1.116-6.2-1.388-1.4-.217-2.65-.171-4.208-.383-1.249-.171-2.475-.54-3.463-.655-1.635-.226-3.353-.055-4.937-.148-1.241-.074-1.47-.327-2.788-.429-1.071-.083-1.291.092-2.118,0-2.126-.189-4.147-.775-6.288-.839-5.066-.281-12.19-.24-18.308-.544M120.093,66.1c-.308.7-3.923,3.3-3.6,2.246A12.982,12.982,0,0,1,120.093,66.1ZM104.614,78.271l-.487-.576c2.673-1.748,4.75-4.593,5.774-4.072A49.6,49.6,0,0,0,104.614,78.271Zm405.518,90.5c.988,1.747.588,1.747,1.319,3.287C510.968,172.2,509.214,168.449,510.132,168.768ZM72.21,108.674c1.787-1.813,1.929-2.859,3.257-3.736-1.773,3.274.969-1.162,1.631-.442-1.2,1.932-4.184,4.57-4.887,4.182m-41.1,69.04c-.221-1.992,3.123-6.571,3.67-9.2.17.06.487-.729.749-1.208.129,1.388-3.325,8.355-4.419,10.407m-11.465,31.2c-.2-1.195,1.144-4.1,1.534-4.718C21.7,205.1,20.183,208.655,19.646,208.909Zm3.179-10.136c.349.2-.873,2.873-1.075,4.113C21.24,202.72,22.25,199.548,22.824,198.773Zm-6.072,22.549c.776-.858-.7,2.412-1.134,4.1-.473,2.167-.634,3.785-1.024,5.575C13.909,229.143,15.71,223.738,16.752,221.322Zm-3.785,16.591c.335-2.3.487-5.339,1.369-5.519C13.973,234.7,13.831,237.715,12.967,237.913Zm-2.531,49.493a14.463,14.463,0,0,0-.041,6.387C8.912,294.761,9.238,283.4,10.437,287.406Zm516.6-72.092c.34-.249,2.039,3.919,1.231,4.081A21.359,21.359,0,0,1,527.04,215.314ZM526.7,213.2c-.454-.485-1.387-4.939-.868-4.916C526.764,211.085,526.135,211.071,526.7,213.2ZM9.04,278.9c.248-1.66-.078-6.078.8-5.677-.133,2.629.39,3.33-.248,4.257C9.389,277.792,9.426,279.24,9.04,278.9Zm4.253,44.54c-.56.06-1.309-4.906-.464-4.242A10.239,10.239,0,0,1,13.294,323.443ZM519.64,190.132a47.985,47.985,0,0,1-1.764-5.4C518.51,185.511,520.637,190.173,519.64,190.132ZM59.84,124.186c-.937,1.12-2.609,4.2-2.77,3.251C58.008,126.312,59.68,123.241,59.84,124.186ZM32.066,172.738c-2.577,4.9-3.284,7.332-5.622,12.27-.482-1.065,1.13-3.209,1.635-4.7.694-2.052.781-4.408,2.494-7.452.666-.443.574.2,1.488-.115M9.789,269.68c-.781.743-.069-2.706-.023-4.27.037-2-.211-3.9.358-5.671C10.62,261.606,9.89,268,9.789,269.68Zm5.8,65.619c-.455.3-1.525-4.805-1.323-5.534C14.874,329.17,15.6,334.565,15.59,335.3Zm2.292,11.14c-.514-2.171-1.415-5.03-1.4-6.248C17.06,340.187,18.879,347.007,17.882,346.439Zm450.83-245.291c.767.42.914.29.56-.5-1.8-2.075-2.94-2.974-4.387-4.712-.679-.816-1.033-1.623-1.681-2.361-2.071-2.43-4.652-4.358-7.624-7.567-1.925-1.844-.538.5-1.544-.452-1.152-1-.794-1.144-.638-1.406-1.07-1.121-.978-.535-1.8-1.213-.859-.664-.855-.982-1.484-1.559a40.534,40.534,0,0,1-3.762-3.311,12.345,12.345,0,0,1-1.369-1.7,36.136,36.136,0,0,0-3.238-3.352c-1.63-1.462-3.491-3.048-4.712-3.924-2.21-1.6-2.628-1.407-4.956-2.965.023-.544-1.966-1.554-2.669-2.412-.115-.138.368-.161.221-.3-.951-.89-2.38-1.706-3.395-2.661-.239-.221-.17-.549-.367-.729a28.077,28.077,0,0,0-6.417-4.644c-1.079-.544-1.855-.669-3.325-1.471.6-.314-.349-1.134-1.318-1.96-1.287-.982-2.871-1.577-4.359-2.545-1.677-1.037-2.389-2.08-3.992-3.168-1.29-.876-3.509-1.932-5.64-3.232-1.213-.784-2.508-1.688-3.656-2.361-1.939-1.1-3.849-1.9-5.149-2.633-.827-.466-1.911-1.4-2.412-1.651-.229-.2-5.644-1.651-5.989-2.559-.367-.931-.565-.484-2.563-1.36-.969-.429-3.05-2-3.376-1.314-2.232-.955-1.024-1.038-2.379-1.808-1.038-.567-2.012-.494-3.445-1.158-.45-.208-.537-.793-1.883-1.148-2.338-.738-.234.36-1.622.171A23.692,23.692,0,0,0,365.1,25.5c-1.309-.475-4.433-.627-4.855-1.471-.584-1.153-.23-.083-2.683-1.107-.7-.291-1.717-1.462-3.15-2.057-1.934-.341-9.784-2.393-11.056-3.643-1.975-.572-4.777-1.466-5.011-.941-1.934-.646,1.148-.244-.528-.894-3.638-.742-5.393-.715-9.968-2.14-3.105-.835-6.49-2.739-8.561-1.78-1.194-.747-3.606-.927-5.686-1.356a27.027,27.027,0,0,0-2.807-.955c-.9-.175-2.021-.208-2.9-.4a53.442,53.442,0,0,0-7.923-1.522c-1.47-.125-3.041.148-4.409-.009-1.714-.2-1.424-.5-2.88-.627-.583-.051-2.32.194-2.168-.563-1.654-.378-2.209.083-3.67-.018-1.5-.083-1.677-.41-2.917-.489-2.655-.175-3.647.088-5.865-.221-.3-.042-1.249.009-1.47-.051-.124-.037.156-.36.005-.378-1.617-.134-4.75-.18-5.88-.157-1.3.032-2.948.429-4.4.42-1.709,0-1.929-.443-3.684-.5a18.657,18.657,0,0,0-2.935.35c-1.575.1-2.733-.2-3.693-.166l-8.084.567c-1.189.074-1.81-.106-2.967-.065-1.217.037-2.825.41-4.4.466-.716.023-1.267-.2-2.241-.134-1.658.06-4.2.41-5.879.641-1.121.166-1.319.424-2.168.526-1.112.134-1.874-.014-2.981.083-2.655.171-6.279,1.038-9.494,1.572-1.681.267-3.569.4-5.158.678-1.764.272-3.95.973-5.774,1.37-1.277.277-2.425.277-3.688.563-1.475.341-4,1.176-6.467,1.706-.786.184-2.118.29-2.945.512-4.969,1.342-10.173,3.389-14.39,3.938a22.031,22.031,0,0,1,4.621-1.854c1.708-.415,3.6-.876,5.337-1.3,1.208-.323,2.99-.991,4.272-1.323a13.29,13.29,0,0,1,2.237-.3c1.079-.235,1.024-.512,1.373-.618.023,0,.8-.111,1.667-.24s1.814-.277,2.04-.332c.67-.166,1.506-.627,2.833-.922,1.434-.323,3.239-.5,5.136-.927,4.464-.922,11.951-2.725,15.345-2.8.437,0-1.2.387-1.428.443,2.788-.387,5.2-1.074,8.024-1.48,1.07-.143,2.03.2,3.013.106A19.543,19.543,0,0,0,236,5.188c1.915-.258,8.814-.563,11.813-.908a16.523,16.523,0,0,1,2.2-.41c.391-.009,1.236.281,1.5.286.68.014,1.539-.143,2.214-.129,1.006.018,2.214.217,2.976.2.414,0,1.828-.3,2.94-.355,2.9-.217,6.688.088,9.6.12,1.911.023,4.162-.115,5.9-.051,1.194.019,2.5.406,3.674.461,1.962.111,4.074-.032,5.893.037,2.191,0,9.347.641,10.261,1.042,1.608.627.552.2,3.652.507,1.337.129,2.324.581,2.889.632,1.249.111.85-.2,2.963-.023-.216-.023.257.249.707.281.147.014.073-.184.753-.088,1.268.18,2.1.586,3.592.862,1.879.35,3.964.609,5.806.821,1.832.3,3.431.539,4.349.765,2.325.572,4.061,1.582,6.316,2.121,1.649.364,3.358.5,5.048.885,4.694,1.056,10.013,2.873,14.767,4.307a11.224,11.224,0,0,0,3.619.641,89.7,89.7,0,0,0,10.142,4.118,107.289,107.289,0,0,1,12.9,5.257c.809,1.037-2.342-.8-2.237-.272.561.682,4.222,1.739,6.017,2.573,1.36-.378-4.455-1.656-3.1-2.034,1.741.8,1.644.2,3.459,1.167.725.4.124.576,1.13,1.074,3.311,1.678,7.633,3.316,11.289,5.091,1.126.576,1.943,1.324,3.087,1.978,1.107.636,2.476,1.213,3.89,1.987,1.544.844,2.848,1.835,4.355,2.651,2.834,1.679,5.9,3.274,8.828,5.049,2.425,1.411,4.726,3.431,7.128,5.049,1.236.835,4.469,2.679,6.706,4.325.607.489,1.387,1.416,2.145,1.992,2.5,1.909,5.209,3.74,7.855,5.557,2.585,1.886,5.057,3.832,7.215,5.741.859.775.855,1.31,1.346,1.794,2.219,2.08,5.076,4.233,7.694,6.58,1.694,1.591,2.264,2.472,5.135,5.1.629.595,2.324,2,2.2,1.868,1.1,1.13,1.419,1.881,2.329,2.79.8.8,1.864,1.554,2.714,2.379,1.429,1.328,2.728,3.2,4.23,4.943.607.7,1.383,1.406,1.966,2.112,1.672,2.08,3.845,4.791,6.766,8.43.827.991,1.125,1.023,1.989,2.079s1.166,1.707,1.708,2.325c2.15,2.411,3.261,3.057,4.047,5.049a46.781,46.781,0,0,0,3.325,4.7c1.622,2.292,2.876,4.528,4.6,7.3.887,1.374,2.053,2.656,2.981,4.044,1.493,2.25,2.687,4.45,4.005,6.815,1.139,1.96,2.692,4.224,3.734,6.133,1,1.817,1.562,3.473,2.4,5.243,1.18,2.394,3.642,7.116,4.612,8.9a11.611,11.611,0,0,1,1.134,1.83c.427.978.409,1.522.9,2.753.482,1.181,2.31,4.317,2.476,5.165.1.516-.189.8.105,1.522.584,1.4,1.429,2.494,1.92,3.836.515,1.374.372,3.362,2.246,6.807-1.336-.2-2.521-6.216-3.615-6.2-1.07-2.1-1.782-4.524-2.489-5.893-.707-1.333-.785-.886-1.562-2.4-1.212-2.172.129-.89-.252-2.255-.2-.742-1.213-2.37-1.544-3.2a14.206,14.206,0,0,0-1.175-3.408c-.749-1.54-.565.747-1.516-1.614-1.438-2.532.161-.526.321-.987l-2.044-3.767c-1.345-1.808,1.594,3.85-.137,1.715-1.071-1.854-2.173-3.749-3.138-5.575-.44-.89-.018-.913-.257-1.508-.262-.659-.771-1.466-.951-1.923-.725-1.863-3.757-8.577-6.577-11.034,0,0,.919,2.135.087.8a12.342,12.342,0,0,0-1.446-2.462c-.354-.365-.189.23-.712-.379-.262-.318-1.25-1.521-1.355-1.66-.919-1.235-.561-1.434-.9-1.978a13.849,13.849,0,0,0-1.966-2.093c-.817-1.093-.716-1.513-1.415-2.49-.707-.992-1.24-1.038-2.021-2.048s-.316-1.014-1.851-3.062c-2.526-3.486-6.4-7.055-7.56-10.4-1.369-1.457-2.567-2.679-4.028-4.053M355.67,28.65c-1.654-.821-5.319-1.854-5.888-2.527C350.112,26.054,356.873,28.138,355.67,28.65ZM18.149,211.445a38.832,38.832,0,0,1-1.369,4.782C16.458,215.6,17.432,210.675,18.149,211.445ZM308.3,16.614c1.58.351,5.544.41,4.864,1.042C312.008,17.776,307.534,17.283,308.3,16.614ZM492.927,132.846c1.515,2.139,2.838,4.394,4.207,6.626-.028.945-.965-.9-1.433-1.628C494.892,136.47,492.247,132.878,492.927,132.846ZM391.9,43.028l-1.263-.646c.188-.083-.17-.286-.551-.493l.17-.337c.528.3.634.24.721.157l1.268.65c-.189.083.17.286.551.493l-.17.337c-.524-.309-.629-.244-.721-.157M302.027,15.2a28.182,28.182,0,0,1,3.477.848C304.613,16.43,301.131,15.978,302.027,15.2Zm82.318,23.886c-.234-1,4.221,1.028,4.814,1.48C388.355,40.741,386.458,39.9,384.345,39.085ZM286.424,13.926c.818-.309,4.272.235,5.682.383,2.071.166,6.834.309,7.05.991a30.484,30.484,0,0,1-5.677-.309,16.644,16.644,0,0,1-2.094-.558c-.368-.092-4.993.682-4.956-.507m84.94,19.307c-.969-.383-.165-.475-.454-.788,0,0-1.144-.789-1.259-.7.372-.281,3.394,1.121,4.272.876,1.869.913.634.553.372.955,1.525.7,1.754.369,2.774.784,1.957.844,2.728,2.006,6.435,3.108a8.5,8.5,0,0,1-2.912-.489c-1.327-.5-1.07-.862-2.444-1.513C377.143,34.935,373.372,33.9,371.369,33.233Zm92.139,62.04,2.916,3.131C466.121,98.492,462.7,95.518,463.508,95.273ZM366.211,30.8c-1.754-.627-2.834-1.185-2.462-1.568C365.5,29.858,367.1,30.476,366.211,30.8Zm-8.662-3.3c-.175-.775,2.186.138,4.239.844C361.618,28.889,359.266,27.976,357.549,27.5Zm-5.907-2.587c1.052.051,3.582,1.014,3.266,1.5C353.8,26.349,350.971,25.367,351.642,24.91Zm-7.648-1.817c-1.24-.327-1.382-.636-2.7-.968-.161-.655,1.625-.157,3.587.438.183.461-.611.341-.891.53m-6.137-1.886c-.785.291-2.609-.881-4.864-1.144C333.177,18.68,337.017,20.566,337.853,21.207Zm-23.774-4.759c-1.741-.157-1.892-.844-2.719-1.13-.753-.263-2.714-.235-2.071-.664,3.431.609,4.763.272,7.078,1.065-.469.383-2.788-.1-2.292.729M438.93,71.322c5.493,3.647.624,2.186,0,0ZM331.639,19.552c-1.856-.424-3.7-.895-5.567-1.268C326.338,17.6,331.919,18.809,331.639,19.552Zm-10.482-2.181-2.811-.517C317.639,16.061,322.434,16.716,321.157,17.371Zm-46.1-4.957c-4.272-.484,2.682-1.452,5.02-.613C278.6,12.063,275.9,11.9,275.056,12.413Zm-4.3-.337a15.643,15.643,0,0,1-3.578-.157C266.958,11.431,272.025,11.219,270.757,12.077Zm61.878,6.354a9.019,9.019,0,0,1,4.327.438C336.976,19.524,334.142,19.2,332.635,18.431Zm-4.891-1.144c-.487-1.014,4.584-.028,3.491.816A8.972,8.972,0,0,1,327.744,17.288ZM325,16.356c.409.023.854.47.634.5a3.461,3.461,0,0,1-1.337-.632c-1.672-.309-5.672-.6-7.064-1.3,0-1,4.469.083,7.919.7.891.6-1.962.355-.147.742m72.277,25.615c1.723-.148,4.846,2.753,8.277,4.395C404.16,46.717,399.755,43.318,397.279,41.976ZM233.562,14.134a15.989,15.989,0,0,1-2.876.258c.124-.351,1.158-.613,2.793-.816ZM217.89,16.351c.919-.456,4.221-1.051,4.3-.5C221.1,16.384,217.816,16.979,217.89,16.351Zm-16.65,4.574c-2.614.535-4.18.7-6.417,1.121C196.04,20.751,201.768,19.732,201.24,20.926Zm-20.7,6.115a17.362,17.362,0,0,0-4.878,1.383c-.078-1.19,4.3-1.715,7.331-3.08-.735.553-2.627,1.222-2.457,1.7m166.978-5.879c-1.823-.466-2.958-.913-2.618-1.333C346.732,20.294,348.394,20.76,347.517,21.161ZM156.921,36a18.711,18.711,0,0,1,3.752-2.227c.409-.028.8-.051.887.2C160.278,35.064,158.294,35.534,156.921,36Zm-1.139.968a24.292,24.292,0,0,1-4.07,1.554C152.139,37.868,156.333,36,155.782,36.968ZM136.6,47.035c-1.874,1.153-4,2.578-3.991,1.785C134.18,47.611,136.688,45.891,136.6,47.035ZM92.429,78.364c-2.306,3.9-5.241,3.3,0,0ZM85.277,85.58c-2.49,2.578-2.949,2.163-3.881,2.259C83.853,84.921,84.735,85.147,85.277,85.58Zm21.684-19.169c-.827-.244.4-1.36,2.425-2.8C110.167,63.88,108.638,65.111,106.961,66.411ZM73.413,97.3a22.227,22.227,0,0,1-3,3.158C69.872,100.323,73.661,95.688,73.413,97.3ZM51.7,123.656c-.257.926-3.574,5.727-3.638,4.569A19.186,19.186,0,0,1,51.7,123.656Zm-6.3,9.785c-1.02,1.558-2.044,3.145-2.434,2.776.726-1.093.634-1.421,1.41-2.564C44.816,133.27,45.156,133.219,45.4,133.441Zm-6.334,8.946a14.684,14.684,0,0,1,2.5-3.611C41.592,139.73,39.4,143.719,39.066,142.387ZM16.83,190.717c-.023-.415-.046-.821-.3-.876,1.755-4.717,2.944-8.831,4.667-9.951,0,1.171-.551,1.042-.969,1.969-1.2,2.513-2.274,6.414-3.4,8.863M2.651,265.032c-.248,2.559-.684.816-.932-.05.285-1.9.423-5.456,1.116-5.788C2.766,262.067,1.93,264.225,2.651,265.032ZM2.091,276.7c-.928.139-.56-8.208.234-8.028C2.394,271.848,2.155,272.733,2.091,276.7ZM306.354,9.329c1.074-.323,2.535,0,4.363.4C310.625,10.232,307.249,9.707,306.354,9.329ZM172.914,19.22c-.381.544-3.872,1.6-5.47,2.416-.607-.244.877-.622.62-.466C169.042,20.612,170.746,19.1,172.914,19.22Z" fill="#131313" fill-rule="evenodd"/>
</svg>
